<?xml version="1.0" encoding="utf-8"?>
<!-- Generator: Adobe Illustrator 23.1.1, SVG Export Plug-In . SVG Version: 6.00 Build 0)  -->
<svg version="1.1" id="Layer_1" xmlns="http://www.w3.org/2000/svg" xmlns:xlink="http://www.w3.org/1999/xlink" x="0px" y="0px"
	 viewBox="0 0 83 83" style="enable-background:new 0 0 83 83;" xml:space="preserve">
<style type="text/css">
	.st0{fill:none;stroke:#414042;stroke-width:4.725;stroke-miterlimit:10;}
	.st1{fill:none;stroke:#414042;stroke-width:11.475;stroke-miterlimit:10;}
	.st2{fill:none;stroke:#414042;stroke-width:3.375;stroke-linecap:round;stroke-linejoin:round;stroke-miterlimit:10;}
	.st3{fill:#414042;}
	.st4{fill:none;stroke:#414042;stroke-width:11.5246;stroke-linecap:round;stroke-miterlimit:10;}
	.st5{fill:none;stroke:#414042;stroke-width:5.8076;stroke-linecap:round;stroke-linejoin:round;stroke-miterlimit:10;}
	.st6{fill:none;stroke:#414042;stroke-width:3.5571;stroke-linecap:round;stroke-linejoin:round;stroke-miterlimit:10;}
	.st7{fill:none;stroke:#414042;stroke-width:4.6877;stroke-linecap:round;stroke-miterlimit:10;}
	.st8{fill:none;stroke:#414042;stroke-width:6.7333;stroke-linecap:round;stroke-miterlimit:10;}
	.st9{fill:none;stroke:#414042;stroke-width:7.4814;stroke-linecap:round;stroke-linejoin:round;stroke-miterlimit:10;}
	.st10{fill:none;stroke:#414042;stroke-width:5.187;stroke-linecap:round;stroke-linejoin:round;stroke-miterlimit:10;}
	.st11{fill:none;stroke:#414042;stroke-width:7.4731;stroke-linecap:round;stroke-linejoin:round;stroke-miterlimit:10;}
	.st12{fill:none;stroke:#414042;stroke-width:6.4281;stroke-miterlimit:10;}
	.st13{fill-rule:evenodd;clip-rule:evenodd;fill:#414042;}
	.st14{fill-rule:evenodd;clip-rule:evenodd;fill:#FEFEFE;}
	.st15{fill:#FEFEFE;}
	.st16{fill:#414042;stroke:#414042;stroke-width:2;stroke-miterlimit:10;}
	.st17{fill:none;stroke:#414042;stroke-width:5.7093;stroke-linecap:round;stroke-linejoin:round;stroke-miterlimit:10;}
	.st18{fill:none;stroke:#414042;stroke-width:5.2488;stroke-miterlimit:10;}
	.st19{fill:#00796B;}
	.st20{fill-rule:evenodd;clip-rule:evenodd;fill:#00796B;}
	.st21{fill:#E3E6E8;}
	.st22{fill-rule:evenodd;clip-rule:evenodd;fill:#E3E6E8;}
</style>
<g>
	<path class="st19" d="M51.48,20.72H30.06c-0.22,0-0.39,0.18-0.39,0.39V61.7c0,0.22,0.18,0.39,0.39,0.39h21.41
		c0.22,0,0.39-0.18,0.39-0.39V21.11C51.87,20.89,51.69,20.72,51.48,20.72z M51.08,61.31H30.46v-39.8h20.62V61.31z"/>
	<path class="st19" d="M26.92,65.24h27.71c0.22,0,0.39-0.18,0.39-0.39V19.09c0-0.22-0.18-0.39-0.39-0.39H26.92
		c-0.22,0-0.39,0.18-0.39,0.39v45.76C26.52,65.06,26.7,65.24,26.92,65.24z M27.31,19.48h26.92v44.97H27.31V19.48z"/>
	
		<rect x="31.01" y="31.36" transform="matrix(0.707 -0.7072 0.7072 0.707 -11.3643 36.6639)" class="st19" width="15.12" height="1.37"/>
	
		<rect x="36.03" y="36.38" transform="matrix(0.707 -0.7072 0.7072 0.707 -13.4426 41.6825)" class="st19" width="15.12" height="1.37"/>
	
		<rect x="29.9" y="34.05" transform="matrix(0.707 -0.7072 0.7072 0.707 -12.4942 39.3077)" class="st19" width="22.58" height="1.37"/>
</g>
</svg>
