<?xml version="1.0" encoding="utf-8"?>
<!-- Generator: Adobe Illustrator 23.1.1, SVG Export Plug-In . SVG Version: 6.00 Build 0)  -->
<svg version="1.1" id="Layer_1" xmlns="http://www.w3.org/2000/svg" xmlns:xlink="http://www.w3.org/1999/xlink" x="0px" y="0px"
	 viewBox="0 0 83 83" style="enable-background:new 0 0 83 83;" xml:space="preserve">
<style type="text/css">
	.st0{fill:none;stroke:#414042;stroke-width:4.725;stroke-miterlimit:10;}
	.st1{fill:none;stroke:#414042;stroke-width:11.475;stroke-miterlimit:10;}
	.st2{fill:none;stroke:#414042;stroke-width:3.375;stroke-linecap:round;stroke-linejoin:round;stroke-miterlimit:10;}
	.st3{fill:#414042;}
	.st4{fill:none;stroke:#414042;stroke-width:11.5246;stroke-linecap:round;stroke-miterlimit:10;}
	.st5{fill:none;stroke:#414042;stroke-width:5.8076;stroke-linecap:round;stroke-linejoin:round;stroke-miterlimit:10;}
	.st6{fill:none;stroke:#414042;stroke-width:3.5571;stroke-linecap:round;stroke-linejoin:round;stroke-miterlimit:10;}
	.st7{fill:none;stroke:#414042;stroke-width:4.6877;stroke-linecap:round;stroke-miterlimit:10;}
	.st8{fill:none;stroke:#414042;stroke-width:6.7333;stroke-linecap:round;stroke-miterlimit:10;}
	.st9{fill:none;stroke:#414042;stroke-width:7.4814;stroke-linecap:round;stroke-linejoin:round;stroke-miterlimit:10;}
	.st10{fill:none;stroke:#414042;stroke-width:5.187;stroke-linecap:round;stroke-linejoin:round;stroke-miterlimit:10;}
	.st11{fill:none;stroke:#414042;stroke-width:7.4731;stroke-linecap:round;stroke-linejoin:round;stroke-miterlimit:10;}
	.st12{fill:none;stroke:#414042;stroke-width:6.4281;stroke-miterlimit:10;}
	.st13{fill-rule:evenodd;clip-rule:evenodd;fill:#414042;}
	.st14{fill-rule:evenodd;clip-rule:evenodd;fill:#FEFEFE;}
	.st15{fill:#FEFEFE;}
	.st16{fill:#414042;stroke:#414042;stroke-width:2;stroke-miterlimit:10;}
	.st17{fill:none;stroke:#414042;stroke-width:5.7093;stroke-linecap:round;stroke-linejoin:round;stroke-miterlimit:10;}
	.st18{fill:none;stroke:#414042;stroke-width:5.2488;stroke-miterlimit:10;}
	.st19{fill:#00796B;}
	.st20{fill-rule:evenodd;clip-rule:evenodd;fill:#00796B;}
	.st21{fill:#E3E6E8;}
	.st22{fill-rule:evenodd;clip-rule:evenodd;fill:#E3E6E8;}
</style>
<path class="st19" d="M41.57,55.04c-5.51,0-11.01,0-16.52,0c-0.91,0-1.79-0.16-2.56-0.68c-1.23-0.84-1.82-2.01-1.75-3.5
	c0.05-1.05,0.4-1.99,1.17-2.74c0.23-0.22,0.49-0.41,0.76-0.57c5.82-3.42,11.65-6.83,17.47-10.24c0.17-0.1,0.25-0.19,0.23-0.39
	c-0.02-0.25-0.01-0.5,0-0.75c0.01-0.35-0.11-0.64-0.38-0.85c-0.36-0.29-0.74-0.57-1.12-0.82c-1.09-0.72-1.76-1.72-2.03-3
	c-0.29-1.41,0.03-2.7,0.75-3.91c0.66-1.1,1.57-1.9,2.83-2.23c3.12-0.81,6.03,0.98,6.67,4.07c0.12,0.58,0.12,1.16-0.28,1.66
	c-0.37,0.46-0.85,0.7-1.44,0.58c-0.61-0.12-0.88-0.58-1.01-1.14c-0.05-0.22-0.06-0.45-0.1-0.68c-0.2-0.96-0.81-1.52-1.75-1.74
	c-1.13-0.27-2.31,0.3-2.73,1.32c-0.45,1.1-0.12,2.53,1.17,3.13c0.81,0.38,1.49,0.92,1.89,1.75c0.19,0.39,0.24,0.81,0.24,1.24
	c0,0.48,0.01,0.96,0,1.44c0,0.15,0.04,0.23,0.17,0.3c3.82,2.25,7.64,4.5,11.45,6.76c1.96,1.16,3.92,2.32,5.88,3.47
	c0.99,0.58,1.67,1.4,1.88,2.55c0.27,1.48-0.15,3.24-1.57,4.21c-0.64,0.44-1.36,0.66-2.14,0.73c-0.34,0.03-0.67,0.04-1.01,0.04
	C52.36,55.04,46.96,55.04,41.57,55.04z M41.55,52.12c5.49,0,10.97,0,16.46,0c0.06,0,0.12,0,0.18,0c0.43-0.02,0.8-0.17,1.05-0.54
	c0.4-0.6,0.19-1.32-0.51-1.73c-5.65-3.3-11.31-6.61-16.96-9.91c-0.12-0.07-0.2-0.07-0.32,0c-5.12,2.99-10.24,5.98-15.36,8.97
	c-0.59,0.35-1.19,0.69-1.78,1.04c-0.79,0.48-0.79,1.48-0.01,1.98c0.24,0.16,0.51,0.19,0.79,0.19
	C30.57,52.12,36.06,52.12,41.55,52.12z"/>
</svg>
