<?xml version="1.0" encoding="utf-8"?>
<!-- Generator: Adobe Illustrator 23.1.1, SVG Export Plug-In . SVG Version: 6.00 Build 0)  -->
<svg version="1.1" id="Layer_1" xmlns="http://www.w3.org/2000/svg" xmlns:xlink="http://www.w3.org/1999/xlink" x="0px" y="0px"
	 viewBox="0 0 83 83" style="enable-background:new 0 0 83 83;" xml:space="preserve">
<style type="text/css">
	.st0{fill:none;stroke:#414042;stroke-width:4.725;stroke-miterlimit:10;}
	.st1{fill:none;stroke:#414042;stroke-width:11.475;stroke-miterlimit:10;}
	.st2{fill:none;stroke:#414042;stroke-width:3.375;stroke-linecap:round;stroke-linejoin:round;stroke-miterlimit:10;}
	.st3{fill:#414042;}
	.st4{fill:none;stroke:#414042;stroke-width:11.5246;stroke-linecap:round;stroke-miterlimit:10;}
	.st5{fill:none;stroke:#414042;stroke-width:5.8076;stroke-linecap:round;stroke-linejoin:round;stroke-miterlimit:10;}
	.st6{fill:none;stroke:#414042;stroke-width:3.5571;stroke-linecap:round;stroke-linejoin:round;stroke-miterlimit:10;}
	.st7{fill:none;stroke:#414042;stroke-width:4.6877;stroke-linecap:round;stroke-miterlimit:10;}
	.st8{fill:none;stroke:#414042;stroke-width:6.7333;stroke-linecap:round;stroke-miterlimit:10;}
	.st9{fill:none;stroke:#414042;stroke-width:7.4814;stroke-linecap:round;stroke-linejoin:round;stroke-miterlimit:10;}
	.st10{fill:none;stroke:#414042;stroke-width:5.187;stroke-linecap:round;stroke-linejoin:round;stroke-miterlimit:10;}
	.st11{fill:none;stroke:#414042;stroke-width:7.4731;stroke-linecap:round;stroke-linejoin:round;stroke-miterlimit:10;}
	.st12{fill:none;stroke:#414042;stroke-width:6.4281;stroke-miterlimit:10;}
	.st13{fill-rule:evenodd;clip-rule:evenodd;fill:#414042;}
	.st14{fill-rule:evenodd;clip-rule:evenodd;fill:#FEFEFE;}
	.st15{fill:#FEFEFE;}
	.st16{fill:#414042;stroke:#414042;stroke-width:2;stroke-miterlimit:10;}
	.st17{fill:none;stroke:#414042;stroke-width:5.7093;stroke-linecap:round;stroke-linejoin:round;stroke-miterlimit:10;}
	.st18{fill:none;stroke:#414042;stroke-width:5.2488;stroke-miterlimit:10;}
	.st19{fill:#00796B;}
	.st20{fill-rule:evenodd;clip-rule:evenodd;fill:#00796B;}
	.st21{fill:#E3E6E8;}
	.st22{fill-rule:evenodd;clip-rule:evenodd;fill:#E3E6E8;}
</style>
<g>
	<path class="st19" d="M43.02,48.42H25.46c-3.16,0-5.73-2.57-5.73-5.73v-5.14c0-0.54,0.44-0.98,0.98-0.98h27.05
		c0.53,0,0.97,0.43,0.98,0.96c0,0,0.01,0.43,0.01,0.85c0,0.34,0,0.62-0.02,0.86h0.01v3.44C48.74,45.85,46.17,48.42,43.02,48.42z
		 M21.69,38.53v4.16c0,2.08,1.69,3.77,3.77,3.77h17.55c2.08,0,3.77-1.69,3.77-3.77v-3.44c0-0.04,0-0.08,0.01-0.12
		c0-0.1,0-0.32,0-0.6H21.69z M46.86,38.88c-0.03,0.06-0.05,0.13-0.06,0.19C46.82,39.01,46.84,38.94,46.86,38.88z"/>
	<path class="st19" d="M24.07,49.91c-2.03,3.81,0.66,4.32,0.66,4.32c-1.16-0.82-0.64-2.24-0.41-2.83c1.86,1.26,1.17,2.49,1.17,2.49
		C27.29,52.51,24.07,49.91,24.07,49.91z"/>
	<path class="st19" d="M30.48,49.89c-2.24,3.69,0.42,4.35,0.42,4.35c-1.11-0.89-0.51-2.27-0.25-2.85c1.79,1.36,1.03,2.55,1.03,2.55
		C33.55,52.66,30.48,49.89,30.48,49.89z"/>
	<path class="st19" d="M37.25,54.13c2.2-0.54,0.29-4.22,0.29-4.22c-3.39,2.68-1.13,4.22-1.13,4.22c-0.73-1.22,0.31-2.31,0.76-2.75
		C38.38,53.28,37.25,54.13,37.25,54.13z"/>
	<path class="st19" d="M42.02,53.77c-0.26-1.4,1.09-2.06,1.67-2.32c0.47,2.2-0.88,2.61-0.88,2.61c2.25,0.25,1.73-3.86,1.73-3.86
		C40.43,51.55,42.02,53.77,42.02,53.77z"/>
	<rect x="23.68" y="55.34" class="st19" width="20.61" height="2.12"/>
	<path class="st19" d="M34.43,26.67c0.05,0.09,0.09,0.18,0.11,0.26l0.01,0.03v0c0.01,0.01-0.01-0.02,0-0.01l0,0.01l0,0.01l0.01,0.02
		c0.01,0.03,0.02,0.07,0.02,0.08l0.02,0.13c0.03,0.19,0.03,0.35,0,0.51c-0.05,0.33-0.21,0.69-0.43,1.11
		c-0.22,0.41-0.5,0.85-0.75,1.37c-0.13,0.26-0.24,0.55-0.34,0.86c-0.09,0.32-0.16,0.67-0.16,1.04c0,0.18,0.01,0.37,0.04,0.55
		c0.02,0.12,0.06,0.32,0.11,0.45c0.09,0.3,0.21,0.59,0.35,0.85c0.3,0.51,0.7,0.93,1.17,1.11c-0.26-0.49-0.41-0.99-0.49-1.47
		c-0.04-0.24-0.06-0.48-0.06-0.72c0-0.13,0-0.2,0.01-0.36c0.01-0.09,0.02-0.18,0.04-0.27c0.08-0.36,0.27-0.73,0.51-1.13
		c0.24-0.41,0.52-0.83,0.79-1.35c0.13-0.26,0.26-0.54,0.36-0.86c0.1-0.32,0.17-0.69,0.18-1.07c0-0.38-0.07-0.77-0.2-1.1
		c-0.03-0.08-0.07-0.16-0.11-0.25c-0.02-0.05-0.03-0.07-0.05-0.1l-0.06-0.12c-0.09-0.16-0.19-0.28-0.29-0.4
		c-0.4-0.45-0.82-0.72-1.26-0.96c-0.44-0.23-0.88-0.42-1.35-0.53c0.34,0.4,0.68,0.77,1,1.15C33.91,25.9,34.22,26.29,34.43,26.67z"/>
	<path class="st19" d="M40.66,28.9c0.16,0.22,0.21,0.49,0.17,0.72c-0.03,0.23-0.16,0.48-0.33,0.74c-0.17,0.26-0.38,0.54-0.56,0.86
		c-0.18,0.32-0.36,0.69-0.38,1.13c0,0.11,0,0.22,0.03,0.32c0.02,0.08,0.04,0.19,0.07,0.28c0.06,0.18,0.14,0.36,0.24,0.52
		c0.21,0.32,0.49,0.58,0.83,0.71c-0.21-0.29-0.35-0.59-0.42-0.89c-0.04-0.15-0.06-0.3-0.07-0.46c-0.01-0.08-0.01-0.14,0-0.23
		c0-0.06,0.01-0.13,0.02-0.19c0.11-0.5,0.58-0.98,0.97-1.6c0.19-0.31,0.38-0.7,0.39-1.16c0-0.23-0.04-0.46-0.13-0.65
		c-0.02-0.05-0.05-0.1-0.08-0.15c-0.01-0.03-0.03-0.04-0.04-0.06l-0.05-0.07c-0.06-0.09-0.13-0.17-0.2-0.24
		c-0.29-0.27-0.59-0.45-0.91-0.61c-0.32-0.16-0.65-0.28-0.99-0.37c0.27,0.23,0.53,0.45,0.78,0.68
		C40.25,28.42,40.49,28.66,40.66,28.9z"/>
	<path class="st19" d="M27.78,28.3c0.05,0.07,0.09,0.14,0.11,0.2l0.01,0.02c-0.01-0.01,0.01,0.02,0.01,0.03
		c0.01,0.02,0.02,0.05,0.02,0.06l0.03,0.1c0.03,0.15,0.04,0.28,0.01,0.41c-0.04,0.27-0.19,0.55-0.39,0.87
		c-0.2,0.31-0.45,0.64-0.67,1.01c-0.22,0.38-0.43,0.83-0.45,1.36c0,0.13,0.01,0.26,0.03,0.39c0.02,0.09,0.05,0.23,0.09,0.33
		c0.07,0.22,0.17,0.43,0.29,0.62c0.25,0.38,0.59,0.69,0.99,0.84c-0.24-0.34-0.4-0.71-0.48-1.07c-0.04-0.18-0.07-0.36-0.07-0.54
		c-0.01-0.1,0-0.16,0-0.27c0.01-0.08,0.01-0.15,0.03-0.22c0.07-0.29,0.24-0.57,0.45-0.88c0.21-0.31,0.47-0.62,0.7-1
		c0.12-0.19,0.23-0.39,0.31-0.62c0.09-0.23,0.15-0.49,0.15-0.76c0-0.27-0.06-0.55-0.16-0.78c-0.03-0.06-0.06-0.12-0.09-0.18
		c-0.02-0.03-0.03-0.05-0.04-0.07l-0.06-0.09c-0.08-0.11-0.16-0.2-0.25-0.29c-0.34-0.32-0.71-0.54-1.09-0.72
		c-0.38-0.18-0.77-0.33-1.18-0.43c0.31,0.28,0.62,0.54,0.91,0.82C27.3,27.73,27.58,28.01,27.78,28.3z"/>
	<path class="st19" d="M53.31,40.78h-5.47c-0.54,0-0.98-0.44-0.98-0.98c0-0.54,0.44-0.98,0.98-0.98h5.47c0.54,0,0.98,0.44,0.98,0.98
		C54.29,40.34,53.85,40.78,53.31,40.78z"/>
	<path class="st19" d="M64.45,41.76H54.29c-0.54,0-0.98-0.44-0.98-0.98v-2.34c0-0.54,0.44-0.98,0.98-0.98h10.16
		c0.54,0,0.98,0.44,0.98,0.98v2.34C65.43,41.32,64.99,41.76,64.45,41.76z"/>
</g>
</svg>
