<?xml version="1.0" encoding="utf-8"?>
<!-- Generator: Adobe Illustrator 23.1.1, SVG Export Plug-In . SVG Version: 6.00 Build 0)  -->
<svg version="1.1" id="Layer_1" xmlns="http://www.w3.org/2000/svg" xmlns:xlink="http://www.w3.org/1999/xlink" x="0px" y="0px"
	 viewBox="0 0 83 83" style="enable-background:new 0 0 83 83;" xml:space="preserve">
<style type="text/css">
	.st0{fill:none;stroke:#414042;stroke-width:4.725;stroke-miterlimit:10;}
	.st1{fill:none;stroke:#414042;stroke-width:11.475;stroke-miterlimit:10;}
	.st2{fill:none;stroke:#414042;stroke-width:3.375;stroke-linecap:round;stroke-linejoin:round;stroke-miterlimit:10;}
	.st3{fill:#414042;}
	.st4{fill:none;stroke:#414042;stroke-width:11.5246;stroke-linecap:round;stroke-miterlimit:10;}
	.st5{fill:none;stroke:#414042;stroke-width:5.8076;stroke-linecap:round;stroke-linejoin:round;stroke-miterlimit:10;}
	.st6{fill:none;stroke:#414042;stroke-width:3.5571;stroke-linecap:round;stroke-linejoin:round;stroke-miterlimit:10;}
	.st7{fill:none;stroke:#414042;stroke-width:4.6877;stroke-linecap:round;stroke-miterlimit:10;}
	.st8{fill:none;stroke:#414042;stroke-width:6.7333;stroke-linecap:round;stroke-miterlimit:10;}
	.st9{fill:none;stroke:#414042;stroke-width:7.4814;stroke-linecap:round;stroke-linejoin:round;stroke-miterlimit:10;}
	.st10{fill:none;stroke:#414042;stroke-width:5.187;stroke-linecap:round;stroke-linejoin:round;stroke-miterlimit:10;}
	.st11{fill:none;stroke:#414042;stroke-width:7.4731;stroke-linecap:round;stroke-linejoin:round;stroke-miterlimit:10;}
	.st12{fill:none;stroke:#414042;stroke-width:6.4281;stroke-miterlimit:10;}
	.st13{fill-rule:evenodd;clip-rule:evenodd;fill:#414042;}
	.st14{fill-rule:evenodd;clip-rule:evenodd;fill:#FEFEFE;}
	.st15{fill:#FEFEFE;}
	.st16{fill:#414042;stroke:#414042;stroke-width:2;stroke-miterlimit:10;}
	.st17{fill:none;stroke:#414042;stroke-width:5.7093;stroke-linecap:round;stroke-linejoin:round;stroke-miterlimit:10;}
	.st18{fill:none;stroke:#414042;stroke-width:5.2488;stroke-miterlimit:10;}
	.st19{fill:#00796B;}
	.st20{fill-rule:evenodd;clip-rule:evenodd;fill:#00796B;}
	.st21{fill:#E3E6E8;}
	.st22{fill-rule:evenodd;clip-rule:evenodd;fill:#E3E6E8;}
</style>
<g>
	<path class="st19" d="M64.88,37.02c-0.67-0.88-1.62-1.39-2.61-1.39c-0.33,0-0.65,0.03-0.94,0.07v-3.78c0-2.17-1.77-3.94-3.94-3.94
		H27.77c-2.17,0-3.94,1.77-3.94,3.94v3.78c-0.3-0.05-0.61-0.07-0.94-0.07c-0.99,0-1.94,0.51-2.61,1.39
		c-0.71,0.92-0.96,2.09-0.68,3.12c0.42,1.51,1.8,2,2.69,2.08v4.37c0,1.05,0.78,1.91,1.79,2.06v3.25c0,0.17,0.14,0.3,0.3,0.3h1.77
		c0.14,0,0.26-0.1,0.29-0.23l0.79-3.29h30.69l0.79,3.29c0.03,0.14,0.15,0.23,0.29,0.23h1.77c0.17,0,0.3-0.14,0.3-0.3v-3.25
		c1.01-0.15,1.79-1.01,1.79-2.06v-4.37c0.89-0.08,2.27-0.57,2.69-2.08C65.84,39.11,65.59,37.95,64.88,37.02z M60.73,31.93v3.91
		c-1.5,0.43-2.39,1.5-2.39,3.03v2.05h-9.3V28.59h8.36C59.23,28.59,60.73,30.09,60.73,31.93z M26.83,41.52h31.5v2.98h-31.5V41.52z
		 M36.73,40.92V28.59h11.69v12.32H36.73z M24.44,31.93c0-1.84,1.5-3.34,3.34-3.34h8.36v12.32h-9.3v-2.05c0-1.53-0.89-2.61-2.39-3.03
		V31.93z M25.91,51.6h-1.23v-2.92h1.93L25.91,51.6z M59.25,51.6l-0.7-2.92h1.93v2.92H59.25z M64.97,39.98
		c-0.46,1.67-2.33,1.65-2.4,1.64c-0.08,0-0.16,0.03-0.22,0.09c-0.06,0.06-0.09,0.13-0.09,0.22v4.67c0,0.82-0.67,1.49-1.49,1.49
		H24.38c-0.82,0-1.49-0.67-1.49-1.49v-4.67c0-0.08-0.03-0.16-0.09-0.22c-0.06-0.05-0.13-0.09-0.21-0.09c0,0-0.01,0-0.01,0
		c-0.02,0-1.94,0.03-2.4-1.64c-0.23-0.85-0.02-1.81,0.57-2.59c0.56-0.73,1.33-1.15,2.13-1.15c0.78,0,3.34,0.19,3.34,2.63v5.93
		c0,0.17,0.14,0.3,0.3,0.3h32.11c0.17,0,0.3-0.14,0.3-0.3v-5.93c0-2.44,2.55-2.63,3.34-2.63c0.8,0,1.57,0.42,2.13,1.15
		C64.99,38.16,65.21,39.13,64.97,39.98z"/>
	<path class="st19" d="M60.78,52.46h-1.77c-0.26,0-0.49-0.18-0.55-0.43l-0.74-3.09H27.44l-0.74,3.09c-0.06,0.25-0.29,0.43-0.55,0.43
		h-1.77c-0.31,0-0.56-0.25-0.56-0.56v-3.03c-1.03-0.26-1.79-1.2-1.79-2.28v-4.14c-1.08-0.16-2.29-0.82-2.68-2.24
		c-0.3-1.11-0.03-2.36,0.72-3.34c0.72-0.95,1.75-1.49,2.82-1.49c0.23,0,0.45,0.01,0.68,0.04v-3.48c0-2.32,1.89-4.2,4.2-4.2h29.61
		c2.32,0,4.2,1.89,4.2,4.2v3.48c0.23-0.02,0.46-0.04,0.68-0.04c1.07,0,2.09,0.54,2.82,1.49l0,0c0.75,0.99,1.02,2.24,0.72,3.34
		c-0.39,1.42-1.6,2.08-2.68,2.24v4.14c0,1.08-0.76,2.02-1.79,2.28v3.03C61.34,52.21,61.09,52.46,60.78,52.46z M27.03,48.42h31.1
		l0.84,3.49c0,0.02,0.02,0.03,0.04,0.03h1.77c0.02,0,0.04-0.02,0.04-0.04v-3.48l0.22-0.03c0.89-0.13,1.57-0.91,1.57-1.8v-4.61
		l0.24-0.02c0.33-0.03,2.01-0.25,2.46-1.89c0.26-0.95,0.02-2.03-0.63-2.89l0,0c-0.62-0.82-1.5-1.28-2.4-1.28
		c-0.3,0-0.59,0.02-0.9,0.07l-0.3,0.05v-4.08c0-2.03-1.65-3.68-3.68-3.68H27.77c-2.03,0-3.68,1.65-3.68,3.68v4.08l-0.3-0.05
		c-0.31-0.05-0.61-0.07-0.9-0.07c-0.9,0-1.78,0.47-2.4,1.28c-0.66,0.86-0.89,1.94-0.63,2.89c0.45,1.63,2.13,1.86,2.46,1.89
		l0.24,0.02v4.61c0,0.9,0.67,1.67,1.57,1.8l0.22,0.03v3.48c0,0.02,0.02,0.04,0.04,0.04h1.77c0.02,0,0.03-0.01,0.04-0.03L27.03,48.42
		z M60.74,51.86h-1.7l-0.82-3.44h2.52V51.86z M59.45,51.34h0.76v-2.39h-1.33L59.45,51.34z M26.12,51.86h-1.7v-3.44h2.52L26.12,51.86
		z M24.95,51.34h0.76l0.57-2.39h-1.33V51.34z M60.78,48.34H24.39c-0.96,0-1.75-0.78-1.75-1.75v-4.67c0-0.01,0-0.02-0.01-0.03
		c-0.01-0.01-0.02-0.01-0.03-0.01v0c0,0-0.01,0-0.01,0c-0.3,0-2.17-0.08-2.65-1.83c-0.25-0.92-0.02-1.98,0.62-2.82
		c0.61-0.8,1.46-1.25,2.34-1.25c1.74,0,3.6,0.76,3.6,2.89v5.93c0,0.02,0.02,0.04,0.04,0.04h32.11c0.02,0,0.04-0.02,0.04-0.04v-5.93
		c0-2.13,1.86-2.89,3.6-2.89c0.88,0,1.73,0.46,2.34,1.25c0.64,0.84,0.87,1.89,0.62,2.82l0,0c-0.52,1.91-2.66,1.84-2.68,1.84
		c0.01,0,0,0-0.01,0.01c-0.01,0.01-0.01,0.02-0.01,0.03v4.67C62.53,47.55,61.74,48.34,60.78,48.34z M22.57,41.36h0.02
		c0.16,0,0.3,0.06,0.4,0.16c0.11,0.11,0.17,0.25,0.17,0.4v4.67c0,0.68,0.55,1.23,1.23,1.23h36.39c0.68,0,1.23-0.55,1.23-1.23v-4.67
		c0-0.15,0.06-0.3,0.17-0.4c0.11-0.11,0.26-0.17,0.41-0.16c0.03,0,1.73,0.04,2.14-1.45h0c0.21-0.77,0.01-1.65-0.53-2.36
		c-0.51-0.66-1.21-1.05-1.92-1.05c-0.92,0-3.08,0.23-3.08,2.37v5.93c0,0.31-0.25,0.56-0.56,0.56H26.53c-0.31,0-0.56-0.25-0.56-0.56
		v-5.93c0-2.14-2.15-2.37-3.08-2.37c-0.71,0-1.41,0.38-1.92,1.05c-0.54,0.71-0.74,1.59-0.53,2.36
		C20.83,41.34,22.42,41.36,22.57,41.36L22.57,41.36z M58.59,44.76H26.57v-3.5h32.03V44.76z M27.09,44.24h30.98v-2.45H27.09V44.24z
		 M58.59,41.18h-9.82V28.33h8.62c1.99,0,3.6,1.61,3.6,3.6v4.11l-0.19,0.05c-1.42,0.4-2.2,1.39-2.2,2.78V41.18z M49.29,40.66h8.78
		v-1.78c0-1.56,0.87-2.72,2.39-3.23v-3.71c0-1.7-1.38-3.08-3.08-3.08h-8.09V40.66z M48.69,41.18H36.47V28.33h12.22V41.18z
		 M36.99,40.66h11.17v-11.8H36.99V40.66z M36.39,41.18h-9.82v-2.31c0-1.39-0.78-2.38-2.2-2.78l-0.19-0.05v-4.11
		c0-1.99,1.61-3.6,3.6-3.6h8.62V41.18z M27.09,40.66h8.78v-11.8h-8.09c-1.7,0-3.08,1.38-3.08,3.08v3.72
		c1.52,0.5,2.39,1.67,2.39,3.23V40.66z"/>
</g>
</svg>
