<?xml version="1.0" encoding="utf-8"?>
<!-- Generator: Adobe Illustrator 23.1.1, SVG Export Plug-In . SVG Version: 6.00 Build 0)  -->
<svg version="1.1" id="Layer_1" xmlns="http://www.w3.org/2000/svg" xmlns:xlink="http://www.w3.org/1999/xlink" x="0px" y="0px"
	 viewBox="0 0 83 83" style="enable-background:new 0 0 83 83;" xml:space="preserve">
<style type="text/css">
	.st0{fill:none;stroke:#414042;stroke-width:4.725;stroke-miterlimit:10;}
	.st1{fill:none;stroke:#414042;stroke-width:11.475;stroke-miterlimit:10;}
	.st2{fill:none;stroke:#414042;stroke-width:3.375;stroke-linecap:round;stroke-linejoin:round;stroke-miterlimit:10;}
	.st3{fill:#414042;}
	.st4{fill:none;stroke:#414042;stroke-width:11.5246;stroke-linecap:round;stroke-miterlimit:10;}
	.st5{fill:none;stroke:#414042;stroke-width:5.8076;stroke-linecap:round;stroke-linejoin:round;stroke-miterlimit:10;}
	.st6{fill:none;stroke:#414042;stroke-width:3.5571;stroke-linecap:round;stroke-linejoin:round;stroke-miterlimit:10;}
	.st7{fill:none;stroke:#414042;stroke-width:4.6877;stroke-linecap:round;stroke-miterlimit:10;}
	.st8{fill:none;stroke:#414042;stroke-width:6.7333;stroke-linecap:round;stroke-miterlimit:10;}
	.st9{fill:none;stroke:#414042;stroke-width:7.4814;stroke-linecap:round;stroke-linejoin:round;stroke-miterlimit:10;}
	.st10{fill:none;stroke:#414042;stroke-width:5.187;stroke-linecap:round;stroke-linejoin:round;stroke-miterlimit:10;}
	.st11{fill:none;stroke:#414042;stroke-width:7.4731;stroke-linecap:round;stroke-linejoin:round;stroke-miterlimit:10;}
	.st12{fill:none;stroke:#414042;stroke-width:6.4281;stroke-miterlimit:10;}
	.st13{fill-rule:evenodd;clip-rule:evenodd;fill:#414042;}
	.st14{fill-rule:evenodd;clip-rule:evenodd;fill:#FEFEFE;}
	.st15{fill:#FEFEFE;}
	.st16{fill:#414042;stroke:#414042;stroke-width:2;stroke-miterlimit:10;}
	.st17{fill:none;stroke:#414042;stroke-width:5.7093;stroke-linecap:round;stroke-linejoin:round;stroke-miterlimit:10;}
	.st18{fill:none;stroke:#414042;stroke-width:5.2488;stroke-miterlimit:10;}
	.st19{fill:#00796B;}
	.st20{fill-rule:evenodd;clip-rule:evenodd;fill:#00796B;}
	.st21{fill:#E3E6E8;}
	.st22{fill-rule:evenodd;clip-rule:evenodd;fill:#E3E6E8;}
</style>
<g>
	<rect x="30.42" y="43.13" class="st19" width="19.73" height="4.98"/>
	<rect x="50.63" y="43.13" class="st19" width="0.95" height="4.98"/>
	<rect x="52.05" y="43.13" class="st19" width="0.95" height="4.98"/>
	<path class="st19" d="M51.12,34.04h-2.25l0.14-0.5c0.06-0.21,0.1-0.52,0.1-0.65c0-1.51-1.17-2.73-2.61-2.73h-1.64l-0.44,1.71h2
		c0.72,0,1.31,0.61,1.31,1.37c0,0.13-0.02,0.26-0.05,0.39l-0.31,1.09c-0.01,0.05-0.02,0.09-0.02,0.15c0,0.28,0.22,0.51,0.49,0.51
		h2.91c0.7,0,1.28,0.6,1.28,1.34c0,0.02,0,0.04,0,0.05l0.01,5.23h0.45l0.62-5.6c0.01-0.09,0.02-0.17,0.02-0.26
		C53.12,34.97,52.23,34.04,51.12,34.04"/>
	<path class="st19" d="M51.1,41.99h0.45v-3.05c0-0.83-0.64-1.51-1.44-1.51h-2.61c-1.38,0-2.51-1.11-2.62-2.52
		c-0.01-0.18-0.15-0.31-0.33-0.31h-0.72c-2.03,0-3.67-1.72-3.67-3.84c0-0.8,0.23-1.54,0.63-2.16h-1.89
		c-0.3,0.65-0.47,1.38-0.47,2.16c0,2.77,2.14,5.01,4.79,5.01h0.37c0.58,1.56,2.03,2.67,3.72,2.67h2.61c0.5,0,0.91,0.4,0.95,0.92
		L51.1,41.99z"/>
	<path class="st19" d="M40.92,23.13h2.1c0.25,0.03,0.51,0.06,0.76,0.09c3.85,0.43,7.25,1.9,10.13,4.49c3.08,2.77,5,6.2,5.73,10.29
		c0.12,0.67,0.19,1.36,0.28,2.04v2.1c-0.03,0.25-0.06,0.51-0.09,0.76c-0.43,3.86-1.91,7.27-4.51,10.16
		c-2.76,3.07-6.19,4.98-10.26,5.7c-0.68,0.12-1.36,0.19-2.04,0.28h-2.1c-0.25-0.03-0.51-0.06-0.76-0.09
		c-3.85-0.43-7.25-1.9-10.13-4.49c-3.08-2.77-5-6.2-5.73-10.29c-0.12-0.67-0.19-1.36-0.28-2.04v-2.1c0.03-0.25,0.06-0.51,0.09-0.76
		c0.42-3.79,1.85-7.14,4.37-10c2.78-3.16,6.25-5.12,10.4-5.86C39.55,23.29,40.24,23.22,40.92,23.13 M31.54,52.89
		c6.55,5.81,16.78,5.28,22.6-1.79c5.72-6.95,3.96-15.91-0.38-20.43C46.36,38.08,38.96,45.48,31.54,52.89 M52.13,29.05
		c-5.92-5.12-15.37-5.22-21.44,1.01c-6.22,6.38-5.56,15.74-0.75,21.18C37.34,43.85,44.73,36.46,52.13,29.05"/>
</g>
</svg>
