<?xml version="1.0" encoding="utf-8"?>
<!-- Generator: Adobe Illustrator 23.1.1, SVG Export Plug-In . SVG Version: 6.00 Build 0)  -->
<svg version="1.1" id="Layer_1" xmlns="http://www.w3.org/2000/svg" xmlns:xlink="http://www.w3.org/1999/xlink" x="0px" y="0px"
	 viewBox="0 0 83 83" style="enable-background:new 0 0 83 83;" xml:space="preserve">
<style type="text/css">
	.st0{fill:none;stroke:#414042;stroke-width:4.725;stroke-miterlimit:10;}
	.st1{fill:none;stroke:#414042;stroke-width:11.475;stroke-miterlimit:10;}
	.st2{fill:none;stroke:#414042;stroke-width:3.375;stroke-linecap:round;stroke-linejoin:round;stroke-miterlimit:10;}
	.st3{fill:#414042;}
	.st4{fill:none;stroke:#414042;stroke-width:11.5246;stroke-linecap:round;stroke-miterlimit:10;}
	.st5{fill:none;stroke:#414042;stroke-width:5.8076;stroke-linecap:round;stroke-linejoin:round;stroke-miterlimit:10;}
	.st6{fill:none;stroke:#414042;stroke-width:3.5571;stroke-linecap:round;stroke-linejoin:round;stroke-miterlimit:10;}
	.st7{fill:none;stroke:#414042;stroke-width:4.6877;stroke-linecap:round;stroke-miterlimit:10;}
	.st8{fill:none;stroke:#414042;stroke-width:6.7333;stroke-linecap:round;stroke-miterlimit:10;}
	.st9{fill:none;stroke:#414042;stroke-width:7.4814;stroke-linecap:round;stroke-linejoin:round;stroke-miterlimit:10;}
	.st10{fill:none;stroke:#414042;stroke-width:5.187;stroke-linecap:round;stroke-linejoin:round;stroke-miterlimit:10;}
	.st11{fill:none;stroke:#414042;stroke-width:7.4731;stroke-linecap:round;stroke-linejoin:round;stroke-miterlimit:10;}
	.st12{fill:none;stroke:#414042;stroke-width:6.4281;stroke-miterlimit:10;}
	.st13{fill-rule:evenodd;clip-rule:evenodd;fill:#414042;}
	.st14{fill-rule:evenodd;clip-rule:evenodd;fill:#FEFEFE;}
	.st15{fill:#FEFEFE;}
	.st16{fill:#414042;stroke:#414042;stroke-width:2;stroke-miterlimit:10;}
	.st17{fill:none;stroke:#414042;stroke-width:5.7093;stroke-linecap:round;stroke-linejoin:round;stroke-miterlimit:10;}
	.st18{fill:none;stroke:#414042;stroke-width:5.2488;stroke-miterlimit:10;}
	.st19{fill:#00796B;}
	.st20{fill-rule:evenodd;clip-rule:evenodd;fill:#00796B;}
	.st21{fill:#E3E6E8;}
	.st22{fill-rule:evenodd;clip-rule:evenodd;fill:#E3E6E8;}
</style>
<g>
	<path class="st19" d="M58.1,48.96H23.93c-1.26,0-2.28-1.02-2.28-2.28V29.83c0-1.26,1.02-2.28,2.28-2.28H58.1
		c1.26,0,2.28,1.02,2.28,2.28v16.86C60.38,47.94,59.35,48.96,58.1,48.96z M23.93,29.07c-0.42,0-0.76,0.34-0.76,0.76v16.86
		c0,0.42,0.34,0.76,0.76,0.76H58.1c0.42,0,0.76-0.34,0.76-0.76V29.83c0-0.42-0.34-0.76-0.76-0.76H23.93z"/>
	<path class="st19" d="M52.94,28.78H29.09c-0.26,0-0.47-0.21-0.47-0.47v-7.14c0-0.26,0.21-0.47,0.47-0.47H47.5
		c0.12,0,0.23,0.04,0.31,0.12l5.43,4.91c0.1,0.09,0.15,0.21,0.15,0.35v2.23C53.4,28.57,53.19,28.78,52.94,28.78z M29.56,27.84h22.91
		v-1.56l-5.15-4.65H29.56V27.84z"/>
	<path class="st19" d="M52.94,61.12H29.09c-0.26,0-0.47-0.21-0.47-0.47V48.2c0-0.26,0.21-0.47,0.47-0.47h23.84
		c0.26,0,0.47,0.21,0.47,0.47v12.45C53.4,60.91,53.19,61.12,52.94,61.12z M29.56,60.19h22.91V48.67H29.56V60.19z"/>
	<path class="st19" d="M55.74,48.96H26.28c-0.42,0-0.76-0.34-0.76-0.76v-2.89c0-0.42,0.34-0.76,0.76-0.76h29.46
		c0.42,0,0.76,0.34,0.76,0.76v2.89C56.5,48.62,56.16,48.96,55.74,48.96z M27.04,47.44h27.94v-1.37H27.04V47.44z"/>
	<path class="st19" d="M26.76,34.85c-1.09,0-1.98-0.89-1.98-1.98c0-1.09,0.89-1.98,1.98-1.98c1.09,0,1.98,0.89,1.98,1.98
		C28.74,33.96,27.85,34.85,26.76,34.85z M26.76,31.81c-0.58,0-1.05,0.47-1.05,1.05c0,0.58,0.47,1.05,1.05,1.05
		c0.58,0,1.05-0.47,1.05-1.05C27.81,32.28,27.34,31.81,26.76,31.81z"/>
	<path class="st19" d="M31.01,34.85c-1.09,0-1.98-0.89-1.98-1.98c0-1.09,0.89-1.98,1.98-1.98c1.09,0,1.98,0.89,1.98,1.98
		C33,33.96,32.11,34.85,31.01,34.85z M31.01,31.81c-0.58,0-1.05,0.47-1.05,1.05c0,0.58,0.47,1.05,1.05,1.05
		c0.58,0,1.05-0.47,1.05-1.05C32.07,32.28,31.59,31.81,31.01,31.81z"/>
	<path class="st19" d="M56.68,31.81h-8.5c-0.26,0-0.47-0.21-0.47-0.47c0-0.26,0.21-0.47,0.47-0.47h8.5c0.26,0,0.47,0.21,0.47,0.47
		C57.14,31.6,56.93,31.81,56.68,31.81z"/>
	<path class="st19" d="M56.68,34.85h-6.99c-0.26,0-0.47-0.21-0.47-0.47c0-0.26,0.21-0.47,0.47-0.47h6.99c0.26,0,0.47,0.21,0.47,0.47
		C57.14,34.64,56.93,34.85,56.68,34.85z"/>
	<path class="st19" d="M49.14,52.01H32.89c-0.26,0-0.47-0.21-0.47-0.47s0.21-0.47,0.47-0.47h16.25c0.26,0,0.47,0.21,0.47,0.47
		S49.4,52.01,49.14,52.01z"/>
	<path class="st19" d="M49.14,55.2H32.89c-0.26,0-0.47-0.21-0.47-0.47s0.21-0.47,0.47-0.47h16.25c0.26,0,0.47,0.21,0.47,0.47
		S49.4,55.2,49.14,55.2z"/>
	<path class="st19" d="M49.14,58.39H32.89c-0.26,0-0.47-0.21-0.47-0.47c0-0.26,0.21-0.47,0.47-0.47h16.25
		c0.26,0,0.47,0.21,0.47,0.47C49.6,58.18,49.4,58.39,49.14,58.39z"/>
	<path class="st19" d="M52.96,26.57h-5.47c-0.26,0-0.47-0.21-0.47-0.47V21.4c0-0.26,0.21-0.47,0.47-0.47s0.47,0.21,0.47,0.47v4.24h5
		c0.26,0,0.47,0.21,0.47,0.47C53.42,26.36,53.21,26.57,52.96,26.57z"/>
</g>
</svg>
