<?xml version="1.0" encoding="utf-8"?>
<!-- Generator: Adobe Illustrator 23.1.1, SVG Export Plug-In . SVG Version: 6.00 Build 0)  -->
<svg version="1.1" id="Layer_1" xmlns="http://www.w3.org/2000/svg" xmlns:xlink="http://www.w3.org/1999/xlink" x="0px" y="0px"
	 viewBox="0 0 83 83" style="enable-background:new 0 0 83 83;" xml:space="preserve">
<style type="text/css">
	.st0{fill:none;stroke:#414042;stroke-width:4.725;stroke-miterlimit:10;}
	.st1{fill:none;stroke:#414042;stroke-width:11.475;stroke-miterlimit:10;}
	.st2{fill:none;stroke:#414042;stroke-width:3.375;stroke-linecap:round;stroke-linejoin:round;stroke-miterlimit:10;}
	.st3{fill:#414042;}
	.st4{fill:none;stroke:#414042;stroke-width:11.5246;stroke-linecap:round;stroke-miterlimit:10;}
	.st5{fill:none;stroke:#414042;stroke-width:5.8076;stroke-linecap:round;stroke-linejoin:round;stroke-miterlimit:10;}
	.st6{fill:none;stroke:#414042;stroke-width:3.5571;stroke-linecap:round;stroke-linejoin:round;stroke-miterlimit:10;}
	.st7{fill:none;stroke:#414042;stroke-width:4.6877;stroke-linecap:round;stroke-miterlimit:10;}
	.st8{fill:none;stroke:#414042;stroke-width:6.7333;stroke-linecap:round;stroke-miterlimit:10;}
	.st9{fill:none;stroke:#414042;stroke-width:7.4814;stroke-linecap:round;stroke-linejoin:round;stroke-miterlimit:10;}
	.st10{fill:none;stroke:#414042;stroke-width:5.187;stroke-linecap:round;stroke-linejoin:round;stroke-miterlimit:10;}
	.st11{fill:none;stroke:#414042;stroke-width:7.4731;stroke-linecap:round;stroke-linejoin:round;stroke-miterlimit:10;}
	.st12{fill:none;stroke:#414042;stroke-width:6.4281;stroke-miterlimit:10;}
	.st13{fill-rule:evenodd;clip-rule:evenodd;fill:#414042;}
	.st14{fill-rule:evenodd;clip-rule:evenodd;fill:#FEFEFE;}
	.st15{fill:#FEFEFE;}
	.st16{fill:#414042;stroke:#414042;stroke-width:2;stroke-miterlimit:10;}
	.st17{fill:none;stroke:#414042;stroke-width:5.7093;stroke-linecap:round;stroke-linejoin:round;stroke-miterlimit:10;}
	.st18{fill:none;stroke:#414042;stroke-width:5.2488;stroke-miterlimit:10;}
	.st19{fill:#00796B;}
	.st20{fill-rule:evenodd;clip-rule:evenodd;fill:#00796B;}
	.st21{fill:#E3E6E8;}
	.st22{fill-rule:evenodd;clip-rule:evenodd;fill:#E3E6E8;}
</style>
<g>
	<path class="st19" d="M59.83,39.2c-0.13-1.25-0.99-1.72-2.19-1.72c-6.82,0-13.63-0.05-20.45,0.03c-1.44,0.02-1.74-0.43-1.71-1.76
		c0.08-4.06,0.04-8.12,0.02-12.17c-0.01-1.68-0.61-2.29-2.22-2.3c-2.97-0.02-5.93-0.03-8.9,0c-1.55,0.02-2.17,0.63-2.17,2.2
		c-0.02,5.52,0.03,11.03-0.02,16.55c-0.01,1.17,0.47,1.41,1.49,1.37c1.48-0.06,2.97-0.02,4.57-0.02c0,2.11-0.01,3.97,0,5.84
		c0.01,1.43,0.69,2.24,2.18,2.27c0.35,0.01,0.7,0.06,1.19,0.11c0,2.61,0.05,5.15-0.02,7.69c-0.03,1.16,0.24,1.69,1.54,1.67
		c3.95-0.07,7.91-0.07,11.86-0.01c1.15,0.02,1.42-0.44,1.38-1.48c-0.06-1.71-0.02-3.43-0.02-5.27c6.12-1.19,10.33-4.15,10.83-10.74
		c0.31-0.03,0.51-0.05,0.72-0.07C59.21,41.22,59.96,40.53,59.83,39.2z M25.75,22.39c2.08,0,4.15,0.01,6.23,0
		c2.49-0.01,2.5,0.21,2.5,2.8c-3.53,0-7.34,0-10.99,0C23.49,22.6,23.25,22.39,25.75,22.39z M23.55,40.08v-0.01
		c-0.04,0-0.08,0-0.12,0c0-4.5,0-13.73,0-13.73h0.12h10.93v13.74H23.55z M51.74,48.95c-2.1,1.33-4.39,2.1-6.92,2.03
		c-1.3-0.04-2.6-0.05-3.89,0.02c-0.38,0.02-1.11,0.01-1.11,0.55c0,0.4,0.7,0.56,1.06,0.58c1.34,0.07,2.69,0.03,4.18,0.03
		c0,1.88,0,3.66,0,5.53c-4.03,0-8,0-12.22,0c0-2.53-0.08-5.01,0.03-7.47c0.07-1.46-0.32-2.16-1.88-1.92
		c-1.15,0.17-1.58-0.37-1.53-1.52c0.07-1.71,0.02-3.42,0.02-5.27c8.83,0,17.57,0,26.51,0C55.77,44.75,54.42,47.25,51.74,48.95z
		 M57.56,40.14c-7.26,0.05-14.52-0.06-21.84-0.06c0-1.03-0.18-1.48,0.88-1.47c6.96,0.02,13.91,0,20.87,0.04
		c0.39,0,1.18,0.18,1.18,0.71C58.64,40.08,57.92,40.14,57.56,40.14z"/>
	<path class="st19" d="M33.07,59.2c-0.62,0-1.04-0.13-1.32-0.41c-0.38-0.38-0.41-0.98-0.4-1.52c0.05-1.79,0.04-3.55,0.03-5.41
		c0-0.67-0.01-1.35-0.01-2.03c-0.08-0.01-0.16-0.02-0.23-0.03c-0.26-0.03-0.49-0.06-0.71-0.06c-1.58-0.03-2.42-0.91-2.44-2.53
		c-0.01-1.29-0.01-2.59-0.01-3.96c0-0.53,0-1.07,0-1.62c-0.4,0-0.79,0-1.17-0.01c-1.08-0.01-2.1-0.02-3.13,0.02
		c-0.48,0.02-1.02,0-1.37-0.34c-0.27-0.26-0.4-0.67-0.39-1.29c0.03-3.3,0.03-6.67,0.02-9.92c0-2.21-0.01-4.42,0-6.63
		c0.01-1.71,0.73-2.45,2.43-2.46c2.57-0.03,5.4-0.03,8.9,0c1.78,0.01,2.47,0.73,2.48,2.56l0.01,1.38c0.02,3.54,0.04,7.2-0.03,10.8
		c-0.01,0.66,0.06,1.03,0.26,1.22c0.19,0.2,0.56,0.28,1.19,0.27c4.82-0.06,9.73-0.05,14.47-0.04c1.99,0,3.99,0.01,5.98,0.01
		c0,0,0,0,0,0c1.86,0,2.35,1.06,2.44,1.96l0,0c0.14,1.41-0.62,2.28-2.13,2.45c-0.14,0.02-0.27,0.03-0.44,0.05l-0.06,0.01
		c-0.53,5.84-4.07,9.35-10.81,10.72c0,0.48,0,0.95-0.01,1.42c-0.01,1.25-0.02,2.44,0.02,3.63c0.02,0.48-0.01,1.01-0.35,1.36
		c-0.26,0.27-0.67,0.39-1.29,0.38c-4.17-0.06-8.05-0.06-11.85,0.01C33.13,59.2,33.1,59.2,33.07,59.2z M25.47,41.09
		c0.44,0,0.89,0,1.35,0.01c0.47,0,0.94,0.01,1.43,0.01h0.26v0.26c0,0.65,0,1.28,0,1.89c0,1.37-0.01,2.66,0.01,3.95
		c0.01,1.34,0.62,1.98,1.93,2.01c0.24,0.01,0.48,0.03,0.76,0.06c0.14,0.02,0.29,0.03,0.46,0.05l0.24,0.02v0.24
		c0,0.76,0,1.52,0.01,2.27c0.01,1.86,0.02,3.63-0.03,5.43c-0.02,0.61,0.06,0.95,0.25,1.14c0.18,0.18,0.51,0.27,1.02,0.25
		c3.81-0.07,7.69-0.07,11.87-0.01c0.46,0.01,0.76-0.07,0.91-0.23c0.16-0.16,0.22-0.47,0.21-0.98c-0.04-1.2-0.03-2.39-0.02-3.65
		c0-0.53,0.01-1.08,0.01-1.63v-0.22l0.21-0.04c6.8-1.32,10.17-4.66,10.62-10.51l0.02-0.22l0.5-0.05c0.17-0.02,0.3-0.03,0.43-0.04
		c1.22-0.14,1.78-0.77,1.67-1.88l0,0c-0.1-1-0.73-1.49-1.92-1.49c0,0,0,0,0,0c-1.99,0-3.99,0-5.98-0.01
		c-4.74-0.01-9.64-0.02-14.46,0.04c-0.8,0-1.26-0.12-1.57-0.43c-0.38-0.38-0.42-1-0.41-1.6c0.07-3.59,0.05-7.25,0.03-10.79
		l-0.01-1.38c-0.01-1.54-0.48-2.03-1.96-2.04c-3.49-0.03-6.32-0.03-8.89,0c-1.41,0.01-1.91,0.52-1.91,1.94c-0.01,2.21,0,4.42,0,6.63
		c0,3.25,0.01,6.61-0.02,9.92c0,0.46,0.07,0.75,0.23,0.91c0.16,0.16,0.47,0.22,0.99,0.2C24.27,41.1,24.86,41.09,25.47,41.09z
		 M45.31,57.95H32.57v-0.26c0-0.75-0.01-1.5-0.01-2.24c-0.02-1.72-0.03-3.5,0.05-5.24c0.04-0.77-0.07-1.24-0.33-1.48
		c-0.23-0.21-0.64-0.27-1.25-0.18c-0.61,0.09-1.07,0-1.38-0.28c-0.33-0.3-0.48-0.79-0.45-1.51c0.05-1.18,0.04-2.36,0.03-3.61
		c0-0.54-0.01-1.09-0.01-1.65v-0.26h27.05l-0.02,0.28c-0.21,3.38-1.67,5.96-4.36,7.66l0,0c-2.31,1.46-4.62,2.14-7.06,2.07
		c-1.57-0.05-2.76-0.04-3.87,0.02l-0.09,0c-0.57,0.03-0.77,0.1-0.77,0.29c0,0.12,0.39,0.3,0.81,0.32c0.96,0.05,1.93,0.04,2.95,0.03
		c0.4,0,0.8-0.01,1.22-0.01h0.26V57.95z M33.09,57.43h11.7v-5.01c-0.32,0-0.64,0-0.95,0.01c-1.03,0.01-2,0.02-2.98-0.03
		c-0.45-0.02-1.3-0.23-1.3-0.84c0-0.75,0.86-0.79,1.27-0.81l0.09,0c1.12-0.06,2.33-0.07,3.92-0.02c2.34,0.07,4.55-0.58,6.77-1.99
		c2.5-1.58,3.84-3.86,4.1-6.97H29.72c0,0.47,0,0.93,0.01,1.39c0.01,1.25,0.02,2.44-0.03,3.63c-0.02,0.54,0.07,0.91,0.28,1.1
		c0.19,0.17,0.51,0.22,0.95,0.15c0.77-0.11,1.32-0.02,1.68,0.31c0.39,0.35,0.54,0.93,0.5,1.89c-0.08,1.73-0.06,3.42-0.04,5.21
		C33.08,56.1,33.09,56.76,33.09,57.43z M53.59,40.41c-2.99,0-5.99-0.02-8.91-0.03c-2.93-0.02-5.97-0.03-8.96-0.03h-0.26v-0.26
		c0-0.14,0-0.26-0.01-0.38c-0.01-0.47-0.02-0.84,0.22-1.09c0.18-0.19,0.47-0.27,0.93-0.27c2.66,0.01,5.33,0.01,7.99,0.01
		c4.22,0,8.58,0.01,12.87,0.03c0.56,0,1.44,0.27,1.44,0.98c0,0.38-0.17,1.03-1.34,1.03l0,0C56.24,40.41,54.92,40.41,53.59,40.41z
		 M35.98,39.82c2.91,0,5.86,0.02,8.71,0.03c4.22,0.02,8.59,0.05,12.87,0.02l0,0c0.73,0,0.82-0.26,0.82-0.51
		c0-0.3-0.59-0.45-0.92-0.45c-4.29-0.03-8.65-0.03-12.87-0.03c-2.66,0-5.33,0-7.99-0.01c-0.37,0.01-0.5,0.06-0.55,0.11
		c-0.09,0.09-0.08,0.37-0.08,0.71C35.98,39.73,35.98,39.78,35.98,39.82z M34.74,40.35l-11.57-0.01V26.09h11.57V40.35z M23.81,39.82
		h10.4V26.61H23.69v13.2L23.81,39.82z M34.74,25.45H23.22v-0.26c0-0.22,0-0.43,0-0.62c-0.01-1.08-0.01-1.67,0.35-2.04
		c0.35-0.35,0.92-0.41,2.17-0.41l0.84,0c1.79,0,3.59,0.01,5.38,0c1.29-0.01,1.93,0.06,2.32,0.44c0.44,0.44,0.44,1.17,0.44,2.62
		V25.45z M23.75,24.93h10.47c0-1.1-0.02-1.72-0.29-1.98c-0.25-0.25-0.84-0.3-1.95-0.29c-1.8,0.01-3.59,0-5.39,0l-0.84,0
		c-1.03,0-1.59,0.04-1.8,0.25c-0.21,0.22-0.21,0.76-0.2,1.66C23.74,24.68,23.75,24.81,23.75,24.93z"/>
</g>
</svg>
