<?xml version="1.0" encoding="utf-8"?>
<!-- Generator: Adobe Illustrator 23.1.1, SVG Export Plug-In . SVG Version: 6.00 Build 0)  -->
<svg version="1.1" id="Layer_1" xmlns="http://www.w3.org/2000/svg" xmlns:xlink="http://www.w3.org/1999/xlink" x="0px" y="0px"
	 viewBox="0 0 83 83" style="enable-background:new 0 0 83 83;" xml:space="preserve">
<style type="text/css">
	.st0{fill:none;stroke:#414042;stroke-width:4.725;stroke-miterlimit:10;}
	.st1{fill:none;stroke:#414042;stroke-width:11.475;stroke-miterlimit:10;}
	.st2{fill:none;stroke:#414042;stroke-width:3.375;stroke-linecap:round;stroke-linejoin:round;stroke-miterlimit:10;}
	.st3{fill:#414042;}
	.st4{fill:none;stroke:#414042;stroke-width:11.5246;stroke-linecap:round;stroke-miterlimit:10;}
	.st5{fill:none;stroke:#414042;stroke-width:5.8076;stroke-linecap:round;stroke-linejoin:round;stroke-miterlimit:10;}
	.st6{fill:none;stroke:#414042;stroke-width:3.5571;stroke-linecap:round;stroke-linejoin:round;stroke-miterlimit:10;}
	.st7{fill:none;stroke:#414042;stroke-width:4.6877;stroke-linecap:round;stroke-miterlimit:10;}
	.st8{fill:none;stroke:#414042;stroke-width:6.7333;stroke-linecap:round;stroke-miterlimit:10;}
	.st9{fill:none;stroke:#414042;stroke-width:7.4814;stroke-linecap:round;stroke-linejoin:round;stroke-miterlimit:10;}
	.st10{fill:none;stroke:#414042;stroke-width:5.187;stroke-linecap:round;stroke-linejoin:round;stroke-miterlimit:10;}
	.st11{fill:none;stroke:#414042;stroke-width:7.4731;stroke-linecap:round;stroke-linejoin:round;stroke-miterlimit:10;}
	.st12{fill:none;stroke:#414042;stroke-width:6.4281;stroke-miterlimit:10;}
	.st13{fill-rule:evenodd;clip-rule:evenodd;fill:#414042;}
	.st14{fill-rule:evenodd;clip-rule:evenodd;fill:#FEFEFE;}
	.st15{fill:#FEFEFE;}
	.st16{fill:#414042;stroke:#414042;stroke-width:2;stroke-miterlimit:10;}
	.st17{fill:none;stroke:#414042;stroke-width:5.7093;stroke-linecap:round;stroke-linejoin:round;stroke-miterlimit:10;}
	.st18{fill:none;stroke:#414042;stroke-width:5.2488;stroke-miterlimit:10;}
	.st19{fill:#00796B;}
	.st20{fill-rule:evenodd;clip-rule:evenodd;fill:#00796B;}
	.st21{fill:#E3E6E8;}
	.st22{fill-rule:evenodd;clip-rule:evenodd;fill:#E3E6E8;}
</style>
<g>
	<path class="st19" d="M35.53,43.21c-0.57,0-1.03,0.46-1.03,1.03v8.09c0,0.57,0.46,1.03,1.03,1.03s1.03-0.46,1.03-1.03v-8.09
		C36.57,43.68,36.1,43.21,35.53,43.21z"/>
	<path class="st19" d="M43.34,43.21c-0.57,0-1.03,0.46-1.03,1.03v8.09c0,0.57,0.46,1.03,1.03,1.03s1.03-0.46,1.03-1.03v-8.09
		C44.37,43.68,43.91,43.21,43.34,43.21z"/>
	<path class="st19" d="M52.28,35.48h-1.19V34.3c0.46-0.76,0.72-1.64,0.72-2.59c0-2.55-1.92-4.67-4.39-4.98
		c-0.46-2.29-2.49-4.03-4.92-4.03c-1.41,0-2.73,0.59-3.67,1.6c-0.48-0.15-0.99-0.23-1.49-0.23c-1.88,0-3.58,1.06-4.44,2.68
		c-0.27-0.04-0.54-0.07-0.81-0.07c-2.77,0-5.02,2.25-5.02,5.02c0,0.95,0.26,1.83,0.72,2.59v18.96c0,3.41,2.78,6.19,6.19,6.19H44.9
		c3.15,0,5.76-2.37,6.14-5.41h1.24c2.27,0,4.12-1.85,4.12-4.12V39.6C56.4,37.33,54.55,35.48,52.28,35.48z M32.08,28.76
		c0.36,0,0.72,0.07,1.05,0.19c0.27,0.1,0.57,0.09,0.83-0.04c0.26-0.13,0.45-0.36,0.53-0.64c0.36-1.26,1.53-2.13,2.84-2.13
		c0.48,0,0.93,0.11,1.35,0.33c0.47,0.24,1.05,0.09,1.34-0.35c0.55-0.84,1.48-1.35,2.48-1.35c1.63,0,2.95,1.32,2.96,2.95
		c0,0.01,0,0.02,0,0.02c0,0.29,0.12,0.56,0.33,0.76c0.21,0.2,0.49,0.29,0.78,0.27c0.09-0.01,0.16-0.01,0.22-0.01
		c1.63,0,2.96,1.33,2.96,2.96c0,1.63-1.33,2.96-2.96,2.96h-8.76c-0.57,0-1.03,0.46-1.03,1.03v3.78c0,0.57-0.46,1.03-1.03,1.03
		c-0.57,0-1.03-0.46-1.03-1.03V35.7c0-0.57-0.46-1.03-1.03-1.03h-1.84c-1.63,0-2.96-1.33-2.96-2.96
		C29.12,30.08,30.45,28.76,32.08,28.76z M49.02,53.27c0,2.27-1.85,4.12-4.12,4.12H33.97c-2.27,0-4.12-1.85-4.12-4.12V36.21
		c0.67,0.34,1.43,0.53,2.23,0.53h0.81v2.75c0,1.7,1.39,3.09,3.09,3.09c1.7,0,3.09-1.39,3.09-3.09v-2.75h7.72
		c0.8,0,1.56-0.19,2.23-0.53V53.27z M54.34,49.92c0,1.14-0.92,2.06-2.06,2.06h-1.19V37.54h1.19c1.14,0,2.06,0.92,2.06,2.06V49.92z"
		/>
</g>
</svg>
