<?xml version="1.0" encoding="utf-8"?>
<!-- Generator: Adobe Illustrator 23.1.1, SVG Export Plug-In . SVG Version: 6.00 Build 0)  -->
<svg version="1.1" id="Layer_1" xmlns="http://www.w3.org/2000/svg" xmlns:xlink="http://www.w3.org/1999/xlink" x="0px" y="0px"
	 viewBox="0 0 83 83" style="enable-background:new 0 0 83 83;" xml:space="preserve">
<style type="text/css">
	.st0{fill:none;stroke:#414042;stroke-width:4.725;stroke-miterlimit:10;}
	.st1{fill:none;stroke:#414042;stroke-width:11.475;stroke-miterlimit:10;}
	.st2{fill:none;stroke:#414042;stroke-width:3.375;stroke-linecap:round;stroke-linejoin:round;stroke-miterlimit:10;}
	.st3{fill:#414042;}
	.st4{fill:none;stroke:#414042;stroke-width:11.5246;stroke-linecap:round;stroke-miterlimit:10;}
	.st5{fill:none;stroke:#414042;stroke-width:5.8076;stroke-linecap:round;stroke-linejoin:round;stroke-miterlimit:10;}
	.st6{fill:none;stroke:#414042;stroke-width:3.5571;stroke-linecap:round;stroke-linejoin:round;stroke-miterlimit:10;}
	.st7{fill:none;stroke:#414042;stroke-width:4.6877;stroke-linecap:round;stroke-miterlimit:10;}
	.st8{fill:none;stroke:#414042;stroke-width:6.7333;stroke-linecap:round;stroke-miterlimit:10;}
	.st9{fill:none;stroke:#414042;stroke-width:7.4814;stroke-linecap:round;stroke-linejoin:round;stroke-miterlimit:10;}
	.st10{fill:none;stroke:#414042;stroke-width:5.187;stroke-linecap:round;stroke-linejoin:round;stroke-miterlimit:10;}
	.st11{fill:none;stroke:#414042;stroke-width:7.4731;stroke-linecap:round;stroke-linejoin:round;stroke-miterlimit:10;}
	.st12{fill:none;stroke:#414042;stroke-width:6.4281;stroke-miterlimit:10;}
	.st13{fill-rule:evenodd;clip-rule:evenodd;fill:#414042;}
	.st14{fill-rule:evenodd;clip-rule:evenodd;fill:#FEFEFE;}
	.st15{fill:#FEFEFE;}
	.st16{fill:#414042;stroke:#414042;stroke-width:2;stroke-miterlimit:10;}
	.st17{fill:none;stroke:#414042;stroke-width:5.7093;stroke-linecap:round;stroke-linejoin:round;stroke-miterlimit:10;}
	.st18{fill:none;stroke:#414042;stroke-width:5.2488;stroke-miterlimit:10;}
	.st19{fill:#00796B;}
	.st20{fill-rule:evenodd;clip-rule:evenodd;fill:#00796B;}
	.st21{fill:#E3E6E8;}
	.st22{fill-rule:evenodd;clip-rule:evenodd;fill:#E3E6E8;}
</style>
<g>
	<path class="st19" d="M53.58,42.96c-0.61,0-0.87-0.25-1.36-0.77c-0.54-0.58-1.29-1.37-2.92-1.38c-0.01,0-0.02,0-0.04,0
		c-1.63,0-2.42,0.83-2.99,1.43c-0.54,0.56-0.78,0.78-1.3,0.77c-0.56-0.01-0.85-0.29-1.35-0.84c-0.55-0.6-1.3-1.42-2.8-1.43
		c-0.02,0-0.04,0-0.05,0c-0.01,0-0.02,0-0.03,0c0,0-0.01,0-0.01,0c-1.5,0.01-2.25,0.83-2.8,1.43c-0.5,0.55-0.79,0.83-1.35,0.84
		c-0.52,0.01-0.76-0.21-1.3-0.77c-0.57-0.6-1.36-1.43-2.99-1.43c-0.01,0-0.02,0-0.03,0c-1.63,0.01-2.38,0.81-2.92,1.38
		c-0.48,0.51-0.75,0.77-1.36,0.77c-0.46,0-0.83,0.31-0.82,0.68c0,0.37,0.37,0.67,0.83,0.67c0,0,0,0,0.01,0
		c1.45-0.01,2.15-0.75,2.66-1.3c0.52-0.56,0.83-0.85,1.62-0.85c0.8,0.01,1.14,0.32,1.7,0.91c0.55,0.58,1.23,1.3,2.6,1.3
		c0.01,0,0.02,0,0.03,0c1.41-0.01,2.11-0.77,2.67-1.38c0.53-0.58,0.84-0.88,1.49-0.88c0.01,0,0.02,0,0.03,0c0.01,0,0.02,0,0.03,0
		c0.65,0,0.96,0.31,1.49,0.88c0.56,0.61,1.26,1.37,2.67,1.38c0.01,0,0.02,0,0.03,0c1.37,0,2.05-0.72,2.6-1.3
		c0.55-0.58,0.9-0.91,1.68-0.91c0.01,0,0.01,0,0.02,0c0.78,0.01,1.09,0.3,1.61,0.85c0.51,0.54,1.21,1.29,2.66,1.3c0,0,0.01,0,0.01,0
		c0.46,0,0.83-0.3,0.83-0.67C54.4,43.27,54.04,42.97,53.58,42.96z"/>
	<path class="st19" d="M40.77,27.16c-7.17,0-13.03,5.28-13.39,11.91h26.78C53.8,32.44,47.95,27.16,40.77,27.16z M32.45,32.73
		c-0.91,0-0.88-1.4,0.02-1.4C33.38,31.32,33.36,32.73,32.45,32.73z M35.3,32.15c-1.24,0-1.21-1.92,0.03-1.92
		C36.57,30.23,36.54,32.15,35.3,32.15z M38.48,32.05c-1.33,0-1.29-2.05,0.04-2.05C39.84,29.99,39.81,32.05,38.48,32.05z
		 M40.66,35.17c-1.24,0-1.2-1.93,0.03-1.93C41.94,33.24,41.9,35.17,40.66,35.17z M42,30.54c-1.33,0-1.29-2.05,0.04-2.05
		C43.36,28.48,43.33,30.54,42,30.54z M46.2,32.48c-1.24,0-1.21-1.92,0.03-1.92C47.47,30.56,47.43,32.48,46.2,32.48z M50.05,33.89
		c-1.33,0-1.29-2.05,0.04-2.05C51.41,31.84,51.37,33.89,50.05,33.89z"/>
	<path class="st19" d="M29.48,53.05c0.4,1.12,2.49,1.94,4.34,1.94h13.89c1.85,0,3.95-0.82,4.34-1.94c0.24-0.67,0.38-1.36,0.43-2.08
		H29.05C29.1,51.69,29.24,52.39,29.48,53.05z"/>
	<path class="st19" d="M50.83,46.27H30.71c-1.85,0-3.35,0.59-3.35,1.31c0,0.73,1.5,1.31,3.35,1.31h20.12c1.85,0,3.35-0.59,3.35-1.31
		C54.18,46.86,52.68,46.27,50.83,46.27z"/>
</g>
</svg>
