<?xml version="1.0" encoding="utf-8"?>
<!-- Generator: Adobe Illustrator 23.1.1, SVG Export Plug-In . SVG Version: 6.00 Build 0)  -->
<svg version="1.1" id="Layer_1" xmlns="http://www.w3.org/2000/svg" xmlns:xlink="http://www.w3.org/1999/xlink" x="0px" y="0px"
	 viewBox="0 0 83 83" style="enable-background:new 0 0 83 83;" xml:space="preserve">
<style type="text/css">
	.st0{fill:none;stroke:#414042;stroke-width:4.725;stroke-miterlimit:10;}
	.st1{fill:none;stroke:#414042;stroke-width:11.475;stroke-miterlimit:10;}
	.st2{fill:none;stroke:#414042;stroke-width:3.375;stroke-linecap:round;stroke-linejoin:round;stroke-miterlimit:10;}
	.st3{fill:#414042;}
	.st4{fill:none;stroke:#414042;stroke-width:11.5246;stroke-linecap:round;stroke-miterlimit:10;}
	.st5{fill:none;stroke:#414042;stroke-width:5.8076;stroke-linecap:round;stroke-linejoin:round;stroke-miterlimit:10;}
	.st6{fill:none;stroke:#414042;stroke-width:3.5571;stroke-linecap:round;stroke-linejoin:round;stroke-miterlimit:10;}
	.st7{fill:none;stroke:#414042;stroke-width:4.6877;stroke-linecap:round;stroke-miterlimit:10;}
	.st8{fill:none;stroke:#414042;stroke-width:6.7333;stroke-linecap:round;stroke-miterlimit:10;}
	.st9{fill:none;stroke:#414042;stroke-width:7.4814;stroke-linecap:round;stroke-linejoin:round;stroke-miterlimit:10;}
	.st10{fill:none;stroke:#414042;stroke-width:5.187;stroke-linecap:round;stroke-linejoin:round;stroke-miterlimit:10;}
	.st11{fill:none;stroke:#414042;stroke-width:7.4731;stroke-linecap:round;stroke-linejoin:round;stroke-miterlimit:10;}
	.st12{fill:none;stroke:#414042;stroke-width:6.4281;stroke-miterlimit:10;}
	.st13{fill-rule:evenodd;clip-rule:evenodd;fill:#414042;}
	.st14{fill-rule:evenodd;clip-rule:evenodd;fill:#FEFEFE;}
	.st15{fill:#FEFEFE;}
	.st16{fill:#414042;stroke:#414042;stroke-width:2;stroke-miterlimit:10;}
	.st17{fill:none;stroke:#414042;stroke-width:5.7093;stroke-linecap:round;stroke-linejoin:round;stroke-miterlimit:10;}
	.st18{fill:none;stroke:#414042;stroke-width:5.2488;stroke-miterlimit:10;}
	.st19{fill:#00796B;}
	.st20{fill-rule:evenodd;clip-rule:evenodd;fill:#00796B;}
	.st21{fill:#E3E6E8;}
	.st22{fill-rule:evenodd;clip-rule:evenodd;fill:#E3E6E8;}
</style>
<g>
	<path class="st19" d="M54.38,35.77H29.1c-0.41,0-0.75-0.33-0.75-0.75v-2.99c0-0.41,0.33-0.75,0.75-0.75h25.28
		c0.41,0,0.75,0.33,0.75,0.75v2.99C55.13,35.43,54.8,35.77,54.38,35.77z M29.85,34.27h23.79v-1.49H29.85V34.27z"/>
	<path class="st19" d="M41.73,52.19c-0.41,0-0.75-0.33-0.75-0.75V35.02c0-0.41,0.33-0.75,0.75-0.75s0.75,0.33,0.75,0.75v16.42
		C42.48,51.85,42.14,52.19,41.73,52.19z"/>
	<path class="st19" d="M46.96,52.19H36.51c-0.41,0-0.75-0.33-0.75-0.75s0.33-0.75,0.75-0.75h10.45c0.41,0,0.75,0.33,0.75,0.75
		S47.37,52.19,46.96,52.19z"/>
	<path class="st19" d="M63.38,43.23H51.44c-0.41,0-0.75-0.33-0.75-0.75c0-2.06,1.67-3.73,3.73-3.73h8.96c0.41,0,0.75,0.33,0.75,0.75
		v2.99C64.13,42.9,63.79,43.23,63.38,43.23z M52.31,41.74h10.32v-1.49h-8.21C53.45,40.25,52.62,40.87,52.31,41.74z"/>
	<path class="st19" d="M63.38,52.19C63.38,52.19,63.38,52.19,63.38,52.19c-0.42,0-0.75-0.34-0.75-0.75l0.06-8.96
		c0-0.41,0.34-0.74,0.75-0.74c0,0,0,0,0.01,0c0.41,0,0.74,0.34,0.74,0.75l-0.06,8.96C64.12,51.86,63.79,52.19,63.38,52.19z"/>
	<path class="st19" d="M52.93,52.19c-0.04,0-0.08,0-0.12-0.01c-0.41-0.07-0.68-0.45-0.61-0.86l1.49-8.96
		c0.07-0.41,0.45-0.68,0.86-0.61c0.41,0.07,0.68,0.45,0.61,0.86l-1.49,8.96C53.6,51.93,53.29,52.19,52.93,52.19z"/>
	<path class="st19" d="M63.38,40.25C63.38,40.25,63.37,40.25,63.38,40.25c-0.42,0-0.75-0.34-0.75-0.75l0.1-10.75
		c0-0.41,0.34-0.74,0.75-0.74c0,0,0,0,0.01,0c0.41,0,0.74,0.34,0.74,0.75l-0.1,10.75C64.12,39.92,63.79,40.25,63.38,40.25z"/>
	<path class="st19" d="M32.03,43.23H20.08c-0.41,0-0.75-0.33-0.75-0.75V39.5c0-0.41,0.33-0.75,0.75-0.75h8.96
		c2.06,0,3.73,1.67,3.73,3.73C32.77,42.9,32.44,43.23,32.03,43.23z M20.83,41.74h10.32c-0.31-0.87-1.14-1.49-2.11-1.49h-8.21V41.74z
		"/>
	<path class="st19" d="M20.08,52.19C20.08,52.19,20.08,52.19,20.08,52.19c-0.41,0-0.75-0.34-0.75-0.75l0.03-8.96
		c0-0.41,0.34-0.74,0.75-0.74c0,0,0,0,0,0c0.41,0,0.75,0.34,0.74,0.75l-0.03,8.96C20.83,51.86,20.5,52.19,20.08,52.19z"/>
	<path class="st19" d="M30.53,52.19c-0.36,0-0.67-0.26-0.74-0.62l-1.49-8.96c-0.07-0.41,0.21-0.79,0.61-0.86
		c0.41-0.07,0.79,0.21,0.86,0.61l1.49,8.96c0.07,0.41-0.21,0.79-0.61,0.86C30.62,52.19,30.57,52.19,30.53,52.19z"/>
	<path class="st19" d="M20.08,40.25c-0.41,0-0.74-0.33-0.75-0.74l-0.1-10.75c0-0.41,0.33-0.75,0.74-0.75c0,0,0,0,0.01,0
		c0.41,0,0.74,0.33,0.75,0.74l0.1,10.75C20.83,39.9,20.5,40.24,20.08,40.25C20.09,40.25,20.09,40.25,20.08,40.25z"/>
</g>
</svg>
