<?xml version="1.0" encoding="utf-8"?>
<!-- Generator: Adobe Illustrator 23.1.1, SVG Export Plug-In . SVG Version: 6.00 Build 0)  -->
<svg version="1.1" id="Layer_1" xmlns="http://www.w3.org/2000/svg" xmlns:xlink="http://www.w3.org/1999/xlink" x="0px" y="0px"
	 viewBox="0 0 83 83" style="enable-background:new 0 0 83 83;" xml:space="preserve">
<style type="text/css">
	.st0{fill:none;stroke:#414042;stroke-width:4.725;stroke-miterlimit:10;}
	.st1{fill:none;stroke:#414042;stroke-width:11.475;stroke-miterlimit:10;}
	.st2{fill:none;stroke:#414042;stroke-width:3.375;stroke-linecap:round;stroke-linejoin:round;stroke-miterlimit:10;}
	.st3{fill:#414042;}
	.st4{fill:none;stroke:#414042;stroke-width:11.5246;stroke-linecap:round;stroke-miterlimit:10;}
	.st5{fill:none;stroke:#414042;stroke-width:5.8076;stroke-linecap:round;stroke-linejoin:round;stroke-miterlimit:10;}
	.st6{fill:none;stroke:#414042;stroke-width:3.5571;stroke-linecap:round;stroke-linejoin:round;stroke-miterlimit:10;}
	.st7{fill:none;stroke:#414042;stroke-width:4.6877;stroke-linecap:round;stroke-miterlimit:10;}
	.st8{fill:none;stroke:#414042;stroke-width:6.7333;stroke-linecap:round;stroke-miterlimit:10;}
	.st9{fill:none;stroke:#414042;stroke-width:7.4814;stroke-linecap:round;stroke-linejoin:round;stroke-miterlimit:10;}
	.st10{fill:none;stroke:#414042;stroke-width:5.187;stroke-linecap:round;stroke-linejoin:round;stroke-miterlimit:10;}
	.st11{fill:none;stroke:#414042;stroke-width:7.4731;stroke-linecap:round;stroke-linejoin:round;stroke-miterlimit:10;}
	.st12{fill:none;stroke:#414042;stroke-width:6.4281;stroke-miterlimit:10;}
	.st13{fill-rule:evenodd;clip-rule:evenodd;fill:#414042;}
	.st14{fill-rule:evenodd;clip-rule:evenodd;fill:#FEFEFE;}
	.st15{fill:#FEFEFE;}
	.st16{fill:#414042;stroke:#414042;stroke-width:2;stroke-miterlimit:10;}
	.st17{fill:none;stroke:#414042;stroke-width:5.7093;stroke-linecap:round;stroke-linejoin:round;stroke-miterlimit:10;}
	.st18{fill:none;stroke:#414042;stroke-width:5.2488;stroke-miterlimit:10;}
	.st19{fill:#00796B;}
	.st20{fill-rule:evenodd;clip-rule:evenodd;fill:#00796B;}
	.st21{fill:#E3E6E8;}
	.st22{fill-rule:evenodd;clip-rule:evenodd;fill:#E3E6E8;}
</style>
<g>
	<path class="st19" d="M39.06,60.14c-0.47,0-0.85-0.01-1.23,0c-0.45,0.01-0.68-0.18-0.68-0.64c0-2.33-0.02-4.67,0.02-7
		c0.02-0.98,0.48-1.42,1.4-1.77c0.27-0.1,0.54-0.45,0.63-0.74c0.55-1.74,1.05-3.51,1.57-5.26c0.25-0.83,0.68-1.14,1.54-1.13
		c2.34,0.02,4.69,0.06,7.03,0.06c1.51,0,3.03-0.05,4.54-0.06c1.29-0.01,2.58,0,3.86,0c0.92,0,1.35,0.33,1.61,1.24
		c0.51,1.76,1.02,3.52,1.51,5.28c0.1,0.36,0.25,0.56,0.63,0.69c0.75,0.27,1.17,0.85,1.18,1.66c0.01,2.33,0,4.67,0.01,7
		c0,0.51-0.23,0.69-0.7,0.68c-0.38-0.01-0.76,0-1.21,0c0,0.94-0.02,1.82,0.01,2.69c0.02,0.55-0.18,0.8-0.75,0.77
		c-0.5-0.03-1-0.02-1.49,0c-0.5,0.02-0.69-0.21-0.68-0.7c0.02-0.88,0.01-1.76,0.01-2.7c-5.3,0-10.56,0-15.89,0
		c0,0.89-0.02,1.76,0.01,2.64c0.02,0.56-0.2,0.79-0.76,0.76c-0.47-0.03-0.95-0.03-1.43,0c-0.58,0.03-0.76-0.24-0.74-0.78
		C39.07,61.96,39.06,61.1,39.06,60.14z M40.48,50.62c6.38,0,12.68,0,19.03,0c-0.48-1.76-0.94-3.46-1.44-5.14
		c-0.06-0.21-0.37-0.47-0.57-0.49c-0.72-0.06-1.44-0.03-2.16-0.02c-2.37,0.02-4.74,0.05-7.11,0.05c-1.85,0-3.7-0.03-5.55-0.06
		c-0.34,0-0.59,0.04-0.71,0.44C41.49,47.13,40.99,48.84,40.48,50.62z M58.24,56.76c1.21-0.01,2.2-1.04,2.18-2.24
		c-0.03-1.23-1.01-2.17-2.25-2.15c-1.22,0.02-2.21,1.04-2.17,2.23C56.03,55.84,57,56.77,58.24,56.76z M41.48,56.76
		c1.21-0.01,2.18-1.01,2.17-2.23c-0.01-1.22-0.99-2.17-2.23-2.16c-1.22,0.01-2.19,1-2.17,2.22C39.27,55.8,40.27,56.77,41.48,56.76z"
		/>
	<path class="st19" d="M27.8,45.56c-2.47,0-4.8,0-7.18,0c0-8.95,0-17.86,0-26.87c0.21-0.02,0.45-0.05,0.69-0.05
		c3.95,0,7.91-0.2,11.85,0.04c8.13,0.5,10.46,7.86,7.68,12.76c-1.67,2.93-4.44,4.19-7.69,4.41c-1.74,0.12-3.5,0.02-5.34,0.02
		C27.8,39.1,27.8,42.28,27.8,45.56z M27.8,23.34c0,2.67,0,5.24,0,7.84c1.65,0.04,3.22,0.19,4.69-0.64c1.32-0.75,1.95-1.85,1.94-3.34
		c-0.01-1.46-0.66-2.53-1.95-3.25C31.01,23.13,29.44,23.29,27.8,23.34z"/>
</g>
</svg>
