<?xml version="1.0" encoding="utf-8"?>
<!-- Generator: Adobe Illustrator 23.1.1, SVG Export Plug-In . SVG Version: 6.00 Build 0)  -->
<svg version="1.1" id="Layer_1" xmlns="http://www.w3.org/2000/svg" xmlns:xlink="http://www.w3.org/1999/xlink" x="0px" y="0px"
	 viewBox="0 0 83 83" style="enable-background:new 0 0 83 83;" xml:space="preserve">
<style type="text/css">
	.st0{fill:none;stroke:#414042;stroke-width:4.725;stroke-miterlimit:10;}
	.st1{fill:none;stroke:#414042;stroke-width:11.475;stroke-miterlimit:10;}
	.st2{fill:none;stroke:#414042;stroke-width:3.375;stroke-linecap:round;stroke-linejoin:round;stroke-miterlimit:10;}
	.st3{fill:#414042;}
	.st4{fill:none;stroke:#414042;stroke-width:11.5246;stroke-linecap:round;stroke-miterlimit:10;}
	.st5{fill:none;stroke:#414042;stroke-width:5.8076;stroke-linecap:round;stroke-linejoin:round;stroke-miterlimit:10;}
	.st6{fill:none;stroke:#414042;stroke-width:3.5571;stroke-linecap:round;stroke-linejoin:round;stroke-miterlimit:10;}
	.st7{fill:none;stroke:#414042;stroke-width:4.6877;stroke-linecap:round;stroke-miterlimit:10;}
	.st8{fill:none;stroke:#414042;stroke-width:6.7333;stroke-linecap:round;stroke-miterlimit:10;}
	.st9{fill:none;stroke:#414042;stroke-width:7.4814;stroke-linecap:round;stroke-linejoin:round;stroke-miterlimit:10;}
	.st10{fill:none;stroke:#414042;stroke-width:5.187;stroke-linecap:round;stroke-linejoin:round;stroke-miterlimit:10;}
	.st11{fill:none;stroke:#414042;stroke-width:7.4731;stroke-linecap:round;stroke-linejoin:round;stroke-miterlimit:10;}
	.st12{fill:none;stroke:#414042;stroke-width:6.4281;stroke-miterlimit:10;}
	.st13{fill-rule:evenodd;clip-rule:evenodd;fill:#414042;}
	.st14{fill-rule:evenodd;clip-rule:evenodd;fill:#FEFEFE;}
	.st15{fill:#FEFEFE;}
	.st16{fill:#414042;stroke:#414042;stroke-width:2;stroke-miterlimit:10;}
	.st17{fill:none;stroke:#414042;stroke-width:5.7093;stroke-linecap:round;stroke-linejoin:round;stroke-miterlimit:10;}
	.st18{fill:none;stroke:#414042;stroke-width:5.2488;stroke-miterlimit:10;}
	.st19{fill:#00796B;}
	.st20{fill-rule:evenodd;clip-rule:evenodd;fill:#00796B;}
	.st21{fill:#E3E6E8;}
	.st22{fill-rule:evenodd;clip-rule:evenodd;fill:#E3E6E8;}
</style>
<g>
	<path class="st19" d="M43.62,45.57c1.21,3.64,2.42,7.27,3.63,10.88c0.4,0.04,0.76,0.04,1.11,0.11c1.51,0.32,2.56,1.61,2.58,3.14
		c0.02,1.57-1,2.89-2.52,3.24c-1.49,0.35-3.01-0.37-3.69-1.73c-0.68-1.37-0.33-3.07,0.9-4c0.36-0.28,0.36-0.5,0.23-0.86
		c-0.25-0.69-0.5-1.4-0.7-2.11c-0.1-0.35-0.28-0.44-0.63-0.44c-3.06,0.01-6.13,0.01-9.19,0c-0.34,0-0.48,0.12-0.61,0.42
		c-1.13,2.67-2.27,5.33-3.42,7.99c-0.06,0.14-0.12,0.27-0.18,0.41c-0.18,0.37-0.48,0.52-0.85,0.35c-0.38-0.17-0.45-0.51-0.31-0.87
		c0.23-0.58,0.48-1.15,0.73-1.73c2.07-4.82,4.13-9.65,6.2-14.47c0.05-0.12,0.1-0.24,0.14-0.35c-0.81-0.33-1.63-0.6-2.38-0.98
		c-4.11-2.09-6.54-5.43-7.28-9.99c-0.04-0.24-0.08-0.49-0.08-0.74c-0.02-0.66,0-1.26-0.74-1.69c-0.65-0.38-0.77-1.33-0.5-2.06
		c0.28-0.74,0.94-1.23,1.73-1.27c0.21-0.01,0.43,0,0.64,0c8.12,0,16.24,0,24.36,0c1.03,0,1.79,0.54,2.03,1.4
		c0.25,0.92-0.12,1.77-1,2.3c-0.07,0.04-0.13,0.08-0.32,0.2c0.26,0.02,0.4,0.05,0.53,0.05c0.91,0,1.81,0,2.72,0
		c0.58,0,0.77,0.2,0.78,0.77c0.01,0.38,0,0.76,0,1.14c0,0.42-0.22,0.66-0.63,0.66c-0.42,0-0.62-0.26-0.63-0.67
		c-0.01-0.19,0-0.38,0-0.63c-0.88,0-1.7-0.01-2.52,0.02c-0.09,0-0.24,0.23-0.26,0.37c-0.36,2.73-1.46,5.11-3.31,7.15
		c-1.68,1.86-3.74,3.13-6.16,3.83c-0.09,0.03-0.19,0.06-0.28,0.09C43.72,45.5,43.71,45.51,43.62,45.57z M28.52,32.75
		c0.16,4.35,1.96,7.8,5.63,10.05c4.18,2.57,8.53,2.54,12.68-0.08c3.59-2.27,5.34-5.68,5.5-9.97C44.38,32.75,36.5,32.75,28.52,32.75z
		 M35.49,52.5c3.07,0,6.04,0,9.04,0c-0.02-0.12-0.02-0.2-0.04-0.28c-0.68-2.04-1.37-4.08-2.03-6.13c-0.1-0.3-0.28-0.29-0.52-0.29
		c-1.03,0.01-2.07,0.03-3.1-0.02c-0.37-0.02-0.52,0.09-0.66,0.4c-0.62,1.47-1.25,2.93-1.88,4.4C36.03,51.21,35.77,51.82,35.49,52.5z
		 M40.42,30.09c-4.05,0-8.1,0-12.15,0c-0.15,0-0.3-0.02-0.44,0.01c-0.37,0.07-0.59,0.3-0.58,0.68c0.01,0.38,0.23,0.6,0.61,0.64
		c0.13,0.01,0.26,0.01,0.39,0.01c8.12,0,16.24,0,24.35,0c0.13,0,0.26,0.01,0.39-0.01c0.38-0.05,0.6-0.27,0.6-0.65
		c0.01-0.39-0.22-0.61-0.59-0.67c-0.14-0.03-0.3-0.01-0.44-0.01C48.52,30.09,44.47,30.09,40.42,30.09z M47.66,61.75
		c1.11,0,2.01-0.9,2-2.01c-0.01-1.09-0.89-1.98-1.98-1.98c-1.1,0-2.02,0.91-2.01,2.01C45.68,60.85,46.58,61.75,47.66,61.75z"/>
	<path class="st19" d="M32.42,23.3c0.3,0.22,0.53,0.38,0.74,0.56c0.89,0.7,0.88,1.73-0.02,2.42c-0.31,0.24-0.65,0.41-0.78,0.85
		c-0.05,0.15-0.47,0.3-0.69,0.26c-0.18-0.04-0.4-0.34-0.44-0.55c-0.08-0.49,0.19-0.88,0.57-1.18c0.23-0.18,0.47-0.35,0.77-0.57
		c-0.2-0.16-0.35-0.3-0.51-0.41c-1.17-0.83-1.17-1.87-0.02-2.72c0.22-0.16,0.38-0.42,0.53-0.66c0.18-0.29,0.44-0.48,0.73-0.33
		c0.21,0.1,0.43,0.37,0.46,0.59c0.08,0.49-0.21,0.88-0.59,1.18C32.97,22.9,32.73,23.07,32.42,23.3z"/>
	<path class="st19" d="M48.42,25.06c-0.31-0.24-0.55-0.4-0.78-0.59c-0.84-0.69-0.83-1.68,0.02-2.36c0.31-0.25,0.67-0.43,0.81-0.88
		c0.05-0.16,0.47-0.31,0.69-0.27c0.18,0.04,0.4,0.34,0.44,0.55c0.08,0.52-0.21,0.91-0.6,1.22c-0.23,0.18-0.46,0.35-0.75,0.57
		c0.28,0.21,0.5,0.37,0.71,0.54c0.91,0.72,0.9,1.74-0.01,2.46c-0.28,0.22-0.45,0.57-0.73,0.8c-0.19,0.16-0.49,0.34-0.69,0.29
		c-0.2-0.05-0.43-0.35-0.46-0.58c-0.08-0.49,0.21-0.88,0.59-1.18C47.88,25.45,48.12,25.29,48.42,25.06z"/>
	<path class="st19" d="M42.96,23.29c0.29,0.22,0.5,0.37,0.7,0.52c0.93,0.71,0.93,1.78-0.01,2.48c-0.3,0.22-0.59,0.41-0.73,0.81
		c-0.06,0.17-0.5,0.35-0.68,0.28c-0.21-0.08-0.44-0.4-0.47-0.64c-0.04-0.46,0.22-0.84,0.6-1.12c0.23-0.17,0.46-0.35,0.75-0.57
		c-0.23-0.18-0.41-0.32-0.59-0.45c-1.05-0.74-1.06-1.84-0.04-2.61c0.26-0.19,0.4-0.53,0.65-0.74c0.19-0.16,0.49-0.35,0.69-0.31
		c0.2,0.04,0.45,0.35,0.48,0.57c0.08,0.51-0.22,0.9-0.62,1.21C43.5,22.91,43.27,23.07,42.96,23.29z"/>
	<path class="st19" d="M37.87,25.06c-0.31-0.24-0.56-0.42-0.8-0.61c-0.8-0.66-0.78-1.68,0.03-2.33c0.33-0.26,0.71-0.44,0.84-0.91
		c0.04-0.15,0.5-0.3,0.69-0.24c0.2,0.07,0.46,0.44,0.42,0.61c-0.09,0.39-0.32,0.77-0.57,1.09c-0.18,0.24-0.48,0.38-0.79,0.61
		c0.23,0.17,0.4,0.32,0.58,0.44c1.07,0.74,1.07,1.86,0.02,2.64c-0.24,0.18-0.38,0.51-0.61,0.71c-0.19,0.16-0.48,0.36-0.69,0.32
		c-0.2-0.04-0.45-0.34-0.49-0.56c-0.09-0.45,0.15-0.83,0.5-1.12C37.26,25.51,37.53,25.32,37.87,25.06z"/>
	<path class="st19" d="M39.79,43.25c-3.09-0.23-5.71-1.56-7.7-4.08c-0.3-0.37-0.27-0.76,0.04-1c0.31-0.24,0.66-0.16,0.97,0.23
		c1.84,2.27,4.2,3.49,7.12,3.59c0.56,0.02,0.85,0.26,0.82,0.69c-0.02,0.4-0.32,0.6-0.86,0.58C40.09,43.25,39.99,43.25,39.79,43.25z"
		/>
</g>
</svg>
