<?xml version="1.0" encoding="utf-8"?>
<!-- Generator: Adobe Illustrator 23.1.1, SVG Export Plug-In . SVG Version: 6.00 Build 0)  -->
<svg version="1.1" id="Layer_1" xmlns="http://www.w3.org/2000/svg" xmlns:xlink="http://www.w3.org/1999/xlink" x="0px" y="0px"
	 viewBox="0 0 83 83" style="enable-background:new 0 0 83 83;" xml:space="preserve">
<style type="text/css">
	.st0{fill:none;stroke:#414042;stroke-width:4.725;stroke-miterlimit:10;}
	.st1{fill:none;stroke:#414042;stroke-width:11.475;stroke-miterlimit:10;}
	.st2{fill:none;stroke:#414042;stroke-width:3.375;stroke-linecap:round;stroke-linejoin:round;stroke-miterlimit:10;}
	.st3{fill:#414042;}
	.st4{fill:none;stroke:#414042;stroke-width:11.5246;stroke-linecap:round;stroke-miterlimit:10;}
	.st5{fill:none;stroke:#414042;stroke-width:5.8076;stroke-linecap:round;stroke-linejoin:round;stroke-miterlimit:10;}
	.st6{fill:none;stroke:#414042;stroke-width:3.5571;stroke-linecap:round;stroke-linejoin:round;stroke-miterlimit:10;}
	.st7{fill:none;stroke:#414042;stroke-width:4.6877;stroke-linecap:round;stroke-miterlimit:10;}
	.st8{fill:none;stroke:#414042;stroke-width:6.7333;stroke-linecap:round;stroke-miterlimit:10;}
	.st9{fill:none;stroke:#414042;stroke-width:7.4814;stroke-linecap:round;stroke-linejoin:round;stroke-miterlimit:10;}
	.st10{fill:none;stroke:#414042;stroke-width:5.187;stroke-linecap:round;stroke-linejoin:round;stroke-miterlimit:10;}
	.st11{fill:none;stroke:#414042;stroke-width:7.4731;stroke-linecap:round;stroke-linejoin:round;stroke-miterlimit:10;}
	.st12{fill:none;stroke:#414042;stroke-width:6.4281;stroke-miterlimit:10;}
	.st13{fill-rule:evenodd;clip-rule:evenodd;fill:#414042;}
	.st14{fill-rule:evenodd;clip-rule:evenodd;fill:#FEFEFE;}
	.st15{fill:#FEFEFE;}
	.st16{fill:#414042;stroke:#414042;stroke-width:2;stroke-miterlimit:10;}
	.st17{fill:none;stroke:#414042;stroke-width:5.7093;stroke-linecap:round;stroke-linejoin:round;stroke-miterlimit:10;}
	.st18{fill:none;stroke:#414042;stroke-width:5.2488;stroke-miterlimit:10;}
	.st19{fill:#00796B;}
	.st20{fill-rule:evenodd;clip-rule:evenodd;fill:#00796B;}
	.st21{fill:#E3E6E8;}
	.st22{fill-rule:evenodd;clip-rule:evenodd;fill:#E3E6E8;}
</style>
<g>
	<path class="st19" d="M45.14,42.17H25.63c-0.74,0-1.34-0.6-1.34-1.34v-0.52c0-0.74,0.6-1.34,1.34-1.34h19.51
		c0.74,0,1.34,0.6,1.34,1.34v0.52C46.48,41.57,45.87,42.17,45.14,42.17z"/>
	<path class="st19" d="M57.74,63.18h-1.68V30.57c0-5.47-4.45-9.92-9.92-9.92c-5.47,0-9.92,4.45-9.92,9.92v3.78h-1.68v-3.78
		c0-6.4,5.2-11.6,11.6-11.6c6.4,0,11.6,5.2,11.6,11.6V63.18z"/>
	<path class="st19" d="M43.93,38.31c-0.34-4.42-4.04-7.9-8.54-7.9s-8.2,3.48-8.54,7.9H43.93z"/>
	<path class="st19" d="M28.63,45.64c0,0.4-0.33,0.73-0.73,0.73s-0.73-0.33-0.73-0.73s0.33-1.12,0.73-1.12S28.63,45.24,28.63,45.64z"
		/>
	<path class="st19" d="M36.2,45.64c0,0.4-0.33,0.73-0.73,0.73s-0.73-0.33-0.73-0.73s0.33-1.12,0.73-1.12S36.2,45.24,36.2,45.64z"/>
	<path class="st19" d="M32.67,45.64c0,0.4-0.33,0.73-0.73,0.73s-0.73-0.33-0.73-0.73s0.33-1.12,0.73-1.12S32.67,45.24,32.67,45.64z"
		/>
	<path class="st19" d="M39.89,45.64c0,0.4-0.33,0.73-0.73,0.73s-0.73-0.33-0.73-0.73s0.33-1.12,0.73-1.12S39.89,45.24,39.89,45.64z"
		/>
	<path class="st19" d="M43.59,45.64c0,0.4-0.33,0.73-0.73,0.73s-0.73-0.33-0.73-0.73s0.33-1.12,0.73-1.12S43.59,45.24,43.59,45.64z"
		/>
	<path class="st19" d="M28.63,49.85c0,0.4-0.33,0.73-0.73,0.73s-0.73-0.33-0.73-0.73s0.33-1.12,0.73-1.12S28.63,49.44,28.63,49.85z"
		/>
	<path class="st19" d="M36.2,49.85c0,0.4-0.33,0.73-0.73,0.73s-0.73-0.33-0.73-0.73s0.33-1.12,0.73-1.12S36.2,49.44,36.2,49.85z"/>
	<path class="st19" d="M32.67,49.85c0,0.4-0.33,0.73-0.73,0.73s-0.73-0.33-0.73-0.73s0.33-1.12,0.73-1.12S32.67,49.44,32.67,49.85z"
		/>
	<path class="st19" d="M39.89,49.85c0,0.4-0.33,0.73-0.73,0.73s-0.73-0.33-0.73-0.73s0.33-1.12,0.73-1.12S39.89,49.44,39.89,49.85z"
		/>
	<path class="st19" d="M43.59,49.85c0,0.4-0.33,0.73-0.73,0.73s-0.73-0.33-0.73-0.73s0.33-1.12,0.73-1.12S43.59,49.44,43.59,49.85z"
		/>
	<path class="st19" d="M28.63,54.05c0,0.4-0.33,0.73-0.73,0.73s-0.73-0.33-0.73-0.73c0-0.4,0.33-1.12,0.73-1.12
		S28.63,53.65,28.63,54.05z"/>
	<path class="st19" d="M36.2,54.05c0,0.4-0.33,0.73-0.73,0.73s-0.73-0.33-0.73-0.73c0-0.4,0.33-1.12,0.73-1.12
		S36.2,53.65,36.2,54.05z"/>
	<path class="st19" d="M32.67,54.05c0,0.4-0.33,0.73-0.73,0.73s-0.73-0.33-0.73-0.73c0-0.4,0.33-1.12,0.73-1.12
		S32.67,53.65,32.67,54.05z"/>
	<path class="st19" d="M39.89,54.05c0,0.4-0.33,0.73-0.73,0.73s-0.73-0.33-0.73-0.73c0-0.4,0.33-1.12,0.73-1.12
		S39.89,53.65,39.89,54.05z"/>
	<path class="st19" d="M43.59,54.05c0,0.4-0.33,0.73-0.73,0.73s-0.73-0.33-0.73-0.73c0-0.4,0.33-1.12,0.73-1.12
		S43.59,53.65,43.59,54.05z"/>
	<path class="st19" d="M28.63,58.25c0,0.4-0.33,0.73-0.73,0.73s-0.73-0.33-0.73-0.73s0.33-1.12,0.73-1.12S28.63,57.85,28.63,58.25z"
		/>
	<path class="st19" d="M36.2,58.25c0,0.4-0.33,0.73-0.73,0.73s-0.73-0.33-0.73-0.73s0.33-1.12,0.73-1.12S36.2,57.85,36.2,58.25z"/>
	<path class="st19" d="M32.67,58.25c0,0.4-0.33,0.73-0.73,0.73s-0.73-0.33-0.73-0.73s0.33-1.12,0.73-1.12S32.67,57.85,32.67,58.25z"
		/>
	<path class="st19" d="M39.89,58.25c0,0.4-0.33,0.73-0.73,0.73s-0.73-0.33-0.73-0.73s0.33-1.12,0.73-1.12S39.89,57.85,39.89,58.25z"
		/>
	<path class="st19" d="M43.59,58.25c0,0.4-0.33,0.73-0.73,0.73s-0.73-0.33-0.73-0.73s0.33-1.12,0.73-1.12S43.59,57.85,43.59,58.25z"
		/>
	<path class="st19" d="M28.63,62.45c0,0.4-0.33,0.73-0.73,0.73s-0.73-0.33-0.73-0.73s0.33-1.12,0.73-1.12S28.63,62.05,28.63,62.45z"
		/>
	<path class="st19" d="M36.2,62.45c0,0.4-0.33,0.73-0.73,0.73s-0.73-0.33-0.73-0.73s0.33-1.12,0.73-1.12S36.2,62.05,36.2,62.45z"/>
	<path class="st19" d="M32.67,62.45c0,0.4-0.33,0.73-0.73,0.73s-0.73-0.33-0.73-0.73s0.33-1.12,0.73-1.12S32.67,62.05,32.67,62.45z"
		/>
	<path class="st19" d="M39.89,62.45c0,0.4-0.33,0.73-0.73,0.73s-0.73-0.33-0.73-0.73s0.33-1.12,0.73-1.12S39.89,62.05,39.89,62.45z"
		/>
	<path class="st19" d="M43.59,62.45c0,0.4-0.33,0.73-0.73,0.73s-0.73-0.33-0.73-0.73s0.33-1.12,0.73-1.12S43.59,62.05,43.59,62.45z"
		/>
</g>
</svg>
