<?xml version="1.0" encoding="utf-8"?>
<!-- Generator: Adobe Illustrator 23.1.1, SVG Export Plug-In . SVG Version: 6.00 Build 0)  -->
<svg version="1.1" id="Layer_1" xmlns="http://www.w3.org/2000/svg" xmlns:xlink="http://www.w3.org/1999/xlink" x="0px" y="0px"
	 viewBox="0 0 83 83" style="enable-background:new 0 0 83 83;" xml:space="preserve">
<style type="text/css">
	.st0{fill:none;stroke:#414042;stroke-width:4.725;stroke-miterlimit:10;}
	.st1{fill:none;stroke:#414042;stroke-width:11.475;stroke-miterlimit:10;}
	.st2{fill:none;stroke:#414042;stroke-width:3.375;stroke-linecap:round;stroke-linejoin:round;stroke-miterlimit:10;}
	.st3{fill:#414042;}
	.st4{fill:none;stroke:#414042;stroke-width:11.5246;stroke-linecap:round;stroke-miterlimit:10;}
	.st5{fill:none;stroke:#414042;stroke-width:5.8076;stroke-linecap:round;stroke-linejoin:round;stroke-miterlimit:10;}
	.st6{fill:none;stroke:#414042;stroke-width:3.5571;stroke-linecap:round;stroke-linejoin:round;stroke-miterlimit:10;}
	.st7{fill:none;stroke:#414042;stroke-width:4.6877;stroke-linecap:round;stroke-miterlimit:10;}
	.st8{fill:none;stroke:#414042;stroke-width:6.7333;stroke-linecap:round;stroke-miterlimit:10;}
	.st9{fill:none;stroke:#414042;stroke-width:7.4814;stroke-linecap:round;stroke-linejoin:round;stroke-miterlimit:10;}
	.st10{fill:none;stroke:#414042;stroke-width:5.187;stroke-linecap:round;stroke-linejoin:round;stroke-miterlimit:10;}
	.st11{fill:none;stroke:#414042;stroke-width:7.4731;stroke-linecap:round;stroke-linejoin:round;stroke-miterlimit:10;}
	.st12{fill:none;stroke:#414042;stroke-width:6.4281;stroke-miterlimit:10;}
	.st13{fill-rule:evenodd;clip-rule:evenodd;fill:#414042;}
	.st14{fill-rule:evenodd;clip-rule:evenodd;fill:#FEFEFE;}
	.st15{fill:#FEFEFE;}
	.st16{fill:#414042;stroke:#414042;stroke-width:2;stroke-miterlimit:10;}
	.st17{fill:none;stroke:#414042;stroke-width:5.7093;stroke-linecap:round;stroke-linejoin:round;stroke-miterlimit:10;}
	.st18{fill:none;stroke:#414042;stroke-width:5.2488;stroke-miterlimit:10;}
	.st19{fill:#00796B;}
	.st20{fill-rule:evenodd;clip-rule:evenodd;fill:#00796B;}
	.st21{fill:#E3E6E8;}
	.st22{fill-rule:evenodd;clip-rule:evenodd;fill:#E3E6E8;}
</style>
<g>
	<circle class="st19" cx="41.55" cy="51.48" r="3.65"/>
	<path class="st19" d="M48.16,46.56c-0.39,0-0.78-0.15-1.08-0.46c-1.47-1.51-3.43-2.34-5.53-2.34c-2.03,0-3.95,0.78-5.4,2.21
		c-0.59,0.58-1.55,0.57-2.13-0.02c-0.58-0.59-0.57-1.55,0.02-2.13c2.02-1.98,4.69-3.07,7.52-3.07c2.92,0,5.65,1.15,7.69,3.25
		c0.58,0.6,0.57,1.55-0.03,2.13C48.92,46.42,48.54,46.56,48.16,46.56z"/>
	<path class="st19" d="M29.88,41.68c-0.38,0-0.76-0.14-1.05-0.43c-0.6-0.58-0.61-1.54-0.02-2.13c3.37-3.45,7.88-5.35,12.71-5.35
		c4.72,0,9.17,1.83,12.52,5.16c0.59,0.59,0.59,1.54,0.01,2.13c-0.59,0.59-1.54,0.59-2.13,0.01c-2.78-2.76-6.47-4.28-10.39-4.28
		c-4,0-7.75,1.58-10.55,4.44C30.66,41.53,30.27,41.68,29.88,41.68z"/>
	<path class="st19" d="M58.22,36.78c-0.39,0-0.78-0.15-1.08-0.46c-4.15-4.27-9.72-6.62-15.68-6.62c-5.68,0-11.07,2.17-15.16,6.11
		c-0.6,0.58-1.55,0.56-2.13-0.04c-0.58-0.6-0.56-1.55,0.04-2.13c4.66-4.48,10.79-6.95,17.25-6.95c6.78,0,13.11,2.68,17.84,7.53
		c0.58,0.6,0.57,1.55-0.03,2.13C58.97,36.64,58.59,36.78,58.22,36.78z"/>
</g>
</svg>
