<?xml version="1.0" encoding="utf-8"?>
<!-- Generator: Adobe Illustrator 23.1.1, SVG Export Plug-In . SVG Version: 6.00 Build 0)  -->
<svg version="1.1" id="Layer_1" xmlns="http://www.w3.org/2000/svg" xmlns:xlink="http://www.w3.org/1999/xlink" x="0px" y="0px"
	 viewBox="0 0 83 83" style="enable-background:new 0 0 83 83;" xml:space="preserve">
<style type="text/css">
	.st0{fill:none;stroke:#414042;stroke-width:4.725;stroke-miterlimit:10;}
	.st1{fill:none;stroke:#414042;stroke-width:11.475;stroke-miterlimit:10;}
	.st2{fill:none;stroke:#414042;stroke-width:3.375;stroke-linecap:round;stroke-linejoin:round;stroke-miterlimit:10;}
	.st3{fill:#414042;}
	.st4{fill:none;stroke:#414042;stroke-width:11.5246;stroke-linecap:round;stroke-miterlimit:10;}
	.st5{fill:none;stroke:#414042;stroke-width:5.8076;stroke-linecap:round;stroke-linejoin:round;stroke-miterlimit:10;}
	.st6{fill:none;stroke:#414042;stroke-width:3.5571;stroke-linecap:round;stroke-linejoin:round;stroke-miterlimit:10;}
	.st7{fill:none;stroke:#414042;stroke-width:4.6877;stroke-linecap:round;stroke-miterlimit:10;}
	.st8{fill:none;stroke:#414042;stroke-width:6.7333;stroke-linecap:round;stroke-miterlimit:10;}
	.st9{fill:none;stroke:#414042;stroke-width:7.4814;stroke-linecap:round;stroke-linejoin:round;stroke-miterlimit:10;}
	.st10{fill:none;stroke:#414042;stroke-width:5.187;stroke-linecap:round;stroke-linejoin:round;stroke-miterlimit:10;}
	.st11{fill:none;stroke:#414042;stroke-width:7.4731;stroke-linecap:round;stroke-linejoin:round;stroke-miterlimit:10;}
	.st12{fill:none;stroke:#414042;stroke-width:6.4281;stroke-miterlimit:10;}
	.st13{fill-rule:evenodd;clip-rule:evenodd;fill:#414042;}
	.st14{fill-rule:evenodd;clip-rule:evenodd;fill:#FEFEFE;}
	.st15{fill:#FEFEFE;}
	.st16{fill:#414042;stroke:#414042;stroke-width:2;stroke-miterlimit:10;}
	.st17{fill:none;stroke:#414042;stroke-width:5.7093;stroke-linecap:round;stroke-linejoin:round;stroke-miterlimit:10;}
	.st18{fill:none;stroke:#414042;stroke-width:5.2488;stroke-miterlimit:10;}
	.st19{fill:#00796B;}
	.st20{fill-rule:evenodd;clip-rule:evenodd;fill:#00796B;}
	.st21{fill:#E3E6E8;}
	.st22{fill-rule:evenodd;clip-rule:evenodd;fill:#E3E6E8;}
</style>
<path class="st19" d="M43.63,31.59c-0.82-1.34-1.6-2.69-2.46-4c-0.39-0.59-0.43-1.1,0-1.65c0.74-0.95,1.4-1.97,2.23-2.83
	c0.87-0.9,1.74-0.66,2.09,0.55c0.74,2.53,1.39,5.08,2.09,7.68c2.6,0.28,4.33,1.83,5.47,4.05c1.56,3.03,4.02,4.46,7.37,4.5
	c0.84,0.01,1.68,0.11,2.51,0.18c1.3,0.11,2.09,0.91,1.89,2.11c-0.81,4.61-4.01,9.28-8.71,10.66c-1.57,0.46-3.09,0.38-4.65-0.04
	c-2.92-0.78-4.69,0.01-6.15,2.68c-0.33,0.61-0.6,1.26-0.93,1.95c-6.95-1.98-13.87-3.95-20.96-5.97c0.22-1.22,0.42-2.46,0.66-3.69
	c0.85-4.35,2.6-8.22,6.02-11.2c0.72-0.63,1.8-1.07,2.16-1.85c0.35-0.75-0.11-1.84-0.07-2.77c0.12-2.9,0.72-5.7,1.98-8.34
	c0.09-0.18,0.16-0.37,0.26-0.54c1.18-2.06,2.26-2.13,3.5-0.13c1.66,2.68,3.24,5.4,4.86,8.1c0.17,0.28,0.41,0.52,0.61,0.77
	C43.48,31.74,43.56,31.67,43.63,31.59z M49.19,36.8c-0.74,0-1.28,0.52-1.27,1.25c0,0.82,0.5,1.23,1.25,1.31
	c0.69,0.08,1.43-0.65,1.35-1.33C50.42,37.3,50.02,36.79,49.19,36.8z"/>
</svg>
