<?xml version="1.0" encoding="utf-8"?>
<!-- Generator: Adobe Illustrator 23.1.1, SVG Export Plug-In . SVG Version: 6.00 Build 0)  -->
<svg version="1.1" id="Layer_1" xmlns="http://www.w3.org/2000/svg" xmlns:xlink="http://www.w3.org/1999/xlink" x="0px" y="0px"
	 viewBox="0 0 83 83" style="enable-background:new 0 0 83 83;" xml:space="preserve">
<style type="text/css">
	.st0{fill:none;stroke:#414042;stroke-width:4.725;stroke-miterlimit:10;}
	.st1{fill:none;stroke:#414042;stroke-width:11.475;stroke-miterlimit:10;}
	.st2{fill:none;stroke:#414042;stroke-width:3.375;stroke-linecap:round;stroke-linejoin:round;stroke-miterlimit:10;}
	.st3{fill:#414042;}
	.st4{fill:none;stroke:#414042;stroke-width:11.5246;stroke-linecap:round;stroke-miterlimit:10;}
	.st5{fill:none;stroke:#414042;stroke-width:5.8076;stroke-linecap:round;stroke-linejoin:round;stroke-miterlimit:10;}
	.st6{fill:none;stroke:#414042;stroke-width:3.5571;stroke-linecap:round;stroke-linejoin:round;stroke-miterlimit:10;}
	.st7{fill:none;stroke:#414042;stroke-width:4.6877;stroke-linecap:round;stroke-miterlimit:10;}
	.st8{fill:none;stroke:#414042;stroke-width:6.7333;stroke-linecap:round;stroke-miterlimit:10;}
	.st9{fill:none;stroke:#414042;stroke-width:7.4814;stroke-linecap:round;stroke-linejoin:round;stroke-miterlimit:10;}
	.st10{fill:none;stroke:#414042;stroke-width:5.187;stroke-linecap:round;stroke-linejoin:round;stroke-miterlimit:10;}
	.st11{fill:none;stroke:#414042;stroke-width:7.4731;stroke-linecap:round;stroke-linejoin:round;stroke-miterlimit:10;}
	.st12{fill:none;stroke:#414042;stroke-width:6.4281;stroke-miterlimit:10;}
	.st13{fill-rule:evenodd;clip-rule:evenodd;fill:#414042;}
	.st14{fill-rule:evenodd;clip-rule:evenodd;fill:#FEFEFE;}
	.st15{fill:#FEFEFE;}
	.st16{fill:#414042;stroke:#414042;stroke-width:2;stroke-miterlimit:10;}
	.st17{fill:none;stroke:#414042;stroke-width:5.7093;stroke-linecap:round;stroke-linejoin:round;stroke-miterlimit:10;}
	.st18{fill:none;stroke:#414042;stroke-width:5.2488;stroke-miterlimit:10;}
	.st19{fill:#00796B;}
	.st20{fill-rule:evenodd;clip-rule:evenodd;fill:#00796B;}
	.st21{fill:#E3E6E8;}
	.st22{fill-rule:evenodd;clip-rule:evenodd;fill:#E3E6E8;}
</style>
<g>
	<path class="st19" d="M41.97,25.11c2.97,0,5.39,2.42,5.39,5.39V43.1c0,2.97-2.42,5.39-5.39,5.39s-5.39-2.42-5.39-5.39V30.5
		C36.58,27.53,39,25.11,41.97,25.11 M41.97,23.76L41.97,23.76c-3.71,0-6.74,3.04-6.74,6.74V43.1c0,3.71,3.04,6.74,6.74,6.74h0
		c3.71,0,6.74-3.04,6.74-6.74V30.5C48.71,26.79,45.68,23.76,41.97,23.76L41.97,23.76z"/>
	<path class="st19" d="M41.97,52.84c-5.2,0-9.43-4.23-9.43-9.43V32.58c0-0.37,0.3-0.68,0.68-0.68c0.37,0,0.68,0.3,0.68,0.68v10.83
		c0,4.45,3.62,8.07,8.07,8.07s8.07-3.62,8.07-8.07V32.58c0-0.37,0.3-0.68,0.68-0.68c0.37,0,0.68,0.3,0.68,0.68v10.83
		C51.4,48.61,47.17,52.84,41.97,52.84z"/>
	<path class="st19" d="M42.04,56.2c-0.37,0-0.68-0.3-0.68-0.68v-3.26c0-0.37,0.3-0.68,0.68-0.68c0.37,0,0.68,0.3,0.68,0.68v3.26
		C42.72,55.9,42.41,56.2,42.04,56.2z"/>
	<path class="st19" d="M41.97,55.63L41.97,55.63c-2.14,0-4.06,0.95-5.38,2.45h10.76C46.03,56.58,44.11,55.63,41.97,55.63
		L41.97,55.63z"/>
	<path class="st19" d="M47.66,41.39H36.54c-0.37,0-0.68-0.3-0.68-0.68s0.3-0.68,0.68-0.68h11.12c0.37,0,0.68,0.3,0.68,0.68
		S48.03,41.39,47.66,41.39z"/>
	<path class="st19" d="M42.03,32.2h-5.37c-0.37,0-0.68-0.3-0.68-0.68s0.3-0.68,0.68-0.68h5.37c0.37,0,0.68,0.3,0.68,0.68
		S42.41,32.2,42.03,32.2z"/>
	<path class="st19" d="M42.03,34.31h-5.37c-0.37,0-0.68-0.3-0.68-0.68s0.3-0.68,0.68-0.68h5.37c0.37,0,0.68,0.3,0.68,0.68
		S42.41,34.31,42.03,34.31z"/>
	<path class="st19" d="M42.03,36.42h-5.37c-0.37,0-0.68-0.3-0.68-0.68c0-0.37,0.3-0.68,0.68-0.68h5.37c0.37,0,0.68,0.3,0.68,0.68
		C42.71,36.12,42.41,36.42,42.03,36.42z"/>
</g>
</svg>
