<?xml version="1.0" encoding="utf-8"?>
<!-- Generator: Adobe Illustrator 23.1.1, SVG Export Plug-In . SVG Version: 6.00 Build 0)  -->
<svg version="1.1" id="Layer_1" xmlns="http://www.w3.org/2000/svg" xmlns:xlink="http://www.w3.org/1999/xlink" x="0px" y="0px"
	 viewBox="0 0 83 83" style="enable-background:new 0 0 83 83;" xml:space="preserve">
<style type="text/css">
	.st0{fill:none;stroke:#414042;stroke-width:4.725;stroke-miterlimit:10;}
	.st1{fill:none;stroke:#414042;stroke-width:11.475;stroke-miterlimit:10;}
	.st2{fill:none;stroke:#414042;stroke-width:3.375;stroke-linecap:round;stroke-linejoin:round;stroke-miterlimit:10;}
	.st3{fill:#414042;}
	.st4{fill:none;stroke:#414042;stroke-width:11.5246;stroke-linecap:round;stroke-miterlimit:10;}
	.st5{fill:none;stroke:#414042;stroke-width:5.8076;stroke-linecap:round;stroke-linejoin:round;stroke-miterlimit:10;}
	.st6{fill:none;stroke:#414042;stroke-width:3.5571;stroke-linecap:round;stroke-linejoin:round;stroke-miterlimit:10;}
	.st7{fill:none;stroke:#414042;stroke-width:4.6877;stroke-linecap:round;stroke-miterlimit:10;}
	.st8{fill:none;stroke:#414042;stroke-width:6.7333;stroke-linecap:round;stroke-miterlimit:10;}
	.st9{fill:none;stroke:#414042;stroke-width:7.4814;stroke-linecap:round;stroke-linejoin:round;stroke-miterlimit:10;}
	.st10{fill:none;stroke:#414042;stroke-width:5.187;stroke-linecap:round;stroke-linejoin:round;stroke-miterlimit:10;}
	.st11{fill:none;stroke:#414042;stroke-width:7.4731;stroke-linecap:round;stroke-linejoin:round;stroke-miterlimit:10;}
	.st12{fill:none;stroke:#414042;stroke-width:6.4281;stroke-miterlimit:10;}
	.st13{fill-rule:evenodd;clip-rule:evenodd;fill:#414042;}
	.st14{fill-rule:evenodd;clip-rule:evenodd;fill:#FEFEFE;}
	.st15{fill:#FEFEFE;}
	.st16{fill:#414042;stroke:#414042;stroke-width:2;stroke-miterlimit:10;}
	.st17{fill:none;stroke:#414042;stroke-width:5.7093;stroke-linecap:round;stroke-linejoin:round;stroke-miterlimit:10;}
	.st18{fill:none;stroke:#414042;stroke-width:5.2488;stroke-miterlimit:10;}
	.st19{fill:#00796B;}
	.st20{fill-rule:evenodd;clip-rule:evenodd;fill:#00796B;}
	.st21{fill:#E3E6E8;}
	.st22{fill-rule:evenodd;clip-rule:evenodd;fill:#E3E6E8;}
</style>
<g>
	<path class="st20" d="M63.14,27.28h-5.91c-0.71,0-1.26,0.16-1.26,0.4v24.91c0,0.24,0.55,0.39,1.26,0.39h5.91
		c0.71,0,1.18-0.16,1.18-0.39V27.68C64.32,27.44,63.85,27.28,63.14,27.28z M59.51,30.28h1.34v8.28h-1.34V30.28z M60.14,50.23
		c-0.71,0-1.26-0.55-1.26-1.26c0-0.71,0.55-1.26,1.26-1.26c0.71,0,1.26,0.55,1.26,1.26C61.4,49.68,60.85,50.23,60.14,50.23z"/>
	<path class="st19" d="M52.89,51.06c-0.07-0.04-0.13-0.04-0.2-0.04H17.38c0,0-0.06,0-0.13,0.04c0,0,0,0.04,0,0.08
		c0,0.04,0.52,2.16,4.62,2.16h26.34c4.16,0,4.68-2.11,4.68-2.16C52.89,51.1,52.89,51.06,52.89,51.06L52.89,51.06z"/>
	<path class="st19" d="M51.99,26.89h-33.9c-0.47,0-0.87,0.39-0.87,0.87v20.82c0,0.47,0.39,0.87,0.87,0.87h33.9
		c0.47,0,0.87-0.39,0.87-0.87V27.76C52.86,27.28,52.46,26.89,51.99,26.89z M49.78,46.37H20.3v-16.4h29.49V46.37z"/>
</g>
</svg>
