<?xml version="1.0" encoding="utf-8"?>
<!-- Generator: Adobe Illustrator 23.1.1, SVG Export Plug-In . SVG Version: 6.00 Build 0)  -->
<svg version="1.1" id="Layer_1" xmlns="http://www.w3.org/2000/svg" xmlns:xlink="http://www.w3.org/1999/xlink" x="0px" y="0px"
	 viewBox="0 0 83 83" style="enable-background:new 0 0 83 83;" xml:space="preserve">
<style type="text/css">
	.st0{fill:none;stroke:#414042;stroke-width:4.725;stroke-miterlimit:10;}
	.st1{fill:none;stroke:#414042;stroke-width:11.475;stroke-miterlimit:10;}
	.st2{fill:none;stroke:#414042;stroke-width:3.375;stroke-linecap:round;stroke-linejoin:round;stroke-miterlimit:10;}
	.st3{fill:#414042;}
	.st4{fill:none;stroke:#414042;stroke-width:11.5246;stroke-linecap:round;stroke-miterlimit:10;}
	.st5{fill:none;stroke:#414042;stroke-width:5.8076;stroke-linecap:round;stroke-linejoin:round;stroke-miterlimit:10;}
	.st6{fill:none;stroke:#414042;stroke-width:3.5571;stroke-linecap:round;stroke-linejoin:round;stroke-miterlimit:10;}
	.st7{fill:none;stroke:#414042;stroke-width:4.6877;stroke-linecap:round;stroke-miterlimit:10;}
	.st8{fill:none;stroke:#414042;stroke-width:6.7333;stroke-linecap:round;stroke-miterlimit:10;}
	.st9{fill:none;stroke:#414042;stroke-width:7.4814;stroke-linecap:round;stroke-linejoin:round;stroke-miterlimit:10;}
	.st10{fill:none;stroke:#414042;stroke-width:5.187;stroke-linecap:round;stroke-linejoin:round;stroke-miterlimit:10;}
	.st11{fill:none;stroke:#414042;stroke-width:7.4731;stroke-linecap:round;stroke-linejoin:round;stroke-miterlimit:10;}
	.st12{fill:none;stroke:#414042;stroke-width:6.4281;stroke-miterlimit:10;}
	.st13{fill-rule:evenodd;clip-rule:evenodd;fill:#414042;}
	.st14{fill-rule:evenodd;clip-rule:evenodd;fill:#FEFEFE;}
	.st15{fill:#FEFEFE;}
	.st16{fill:#414042;stroke:#414042;stroke-width:2;stroke-miterlimit:10;}
	.st17{fill:none;stroke:#414042;stroke-width:5.7093;stroke-linecap:round;stroke-linejoin:round;stroke-miterlimit:10;}
	.st18{fill:none;stroke:#414042;stroke-width:5.2488;stroke-miterlimit:10;}
	.st19{fill:#00796B;}
	.st20{fill-rule:evenodd;clip-rule:evenodd;fill:#00796B;}
	.st21{fill:#E3E6E8;}
	.st22{fill-rule:evenodd;clip-rule:evenodd;fill:#E3E6E8;}
</style>
<g>
	<path class="st19" d="M65.74,30.24H18.2L41.97,19.5L65.74,30.24z M26,28.56h31.93l-15.97-7.21L26,28.56z"/>
	<polygon class="st19" points="34.25,29.97 33.02,28.82 41.97,19.19 50.92,28.82 49.69,29.97 41.97,21.66 	"/>
	<rect x="41.13" y="29.4" class="st19" width="1.68" height="14.1"/>
	<rect x="31.07" y="42.66" class="st19" width="21.79" height="1.68"/>
	<path class="st19" d="M51.14,46.9H32.8v-4.24h18.35V46.9z M34.48,45.22h14.98v-0.88H34.48V45.22z"/>
	<rect x="41.13" y="46.06" class="st19" width="1.68" height="14.1"/>
	<rect x="37.48" y="59.32" class="st19" width="8.97" height="1.68"/>
	<path class="st19" d="M61.4,53.31H49.46v-0.84c0-1.88,1.53-3.4,3.4-3.4h8.53V53.31z M51.36,51.63h8.36v-0.88h-6.85
		C52.22,50.75,51.66,51.1,51.36,51.63z"/>
	
		<rect x="59.08" y="52.42" transform="matrix(0.9864 -0.1644 0.1644 0.9864 -8.4431 10.6161)" class="st19" width="1.68" height="7.8"/>
	
		<rect x="48.33" y="55.48" transform="matrix(0.1644 -0.9864 0.9864 0.1644 -11.9124 98.5731)" class="st19" width="7.8" height="1.68"/>
	
		<rect x="54.76" y="42.66" transform="matrix(0.0994 -0.9951 0.9951 0.0994 11.8352 100.0719)" class="st19" width="12.88" height="1.68"/>
	<path class="st19" d="M34.48,53.31H22.54v-4.24h8.53c1.88,0,3.4,1.53,3.4,3.4V53.31z M24.22,51.63h8.36
		c-0.3-0.53-0.86-0.88-1.5-0.88h-6.85V51.63z"/>
	
		<rect x="20.12" y="55.48" transform="matrix(0.1644 -0.9864 0.9864 0.1644 -35.479 70.7536)" class="st19" width="7.8" height="1.68"/>
	
		<rect x="30.87" y="52.42" transform="matrix(0.9864 -0.1644 0.1644 0.9864 -8.8268 5.9797)" class="st19" width="1.68" height="7.8"/>
	
		<rect x="21.9" y="37.06" transform="matrix(0.995 -0.0995 0.0995 0.995 -4.2152 2.4784)" class="st19" width="1.68" height="12.88"/>
</g>
</svg>
