<?xml version="1.0" encoding="utf-8"?>
<!-- Generator: Adobe Illustrator 23.1.1, SVG Export Plug-In . SVG Version: 6.00 Build 0)  -->
<svg version="1.1" id="Layer_1" xmlns="http://www.w3.org/2000/svg" xmlns:xlink="http://www.w3.org/1999/xlink" x="0px" y="0px"
	 viewBox="0 0 83 83" style="enable-background:new 0 0 83 83;" xml:space="preserve">
<style type="text/css">
	.st0{fill:none;stroke:#414042;stroke-width:4.725;stroke-miterlimit:10;}
	.st1{fill:none;stroke:#414042;stroke-width:11.475;stroke-miterlimit:10;}
	.st2{fill:none;stroke:#414042;stroke-width:3.375;stroke-linecap:round;stroke-linejoin:round;stroke-miterlimit:10;}
	.st3{fill:#414042;}
	.st4{fill:none;stroke:#414042;stroke-width:11.5246;stroke-linecap:round;stroke-miterlimit:10;}
	.st5{fill:none;stroke:#414042;stroke-width:5.8076;stroke-linecap:round;stroke-linejoin:round;stroke-miterlimit:10;}
	.st6{fill:none;stroke:#414042;stroke-width:3.5571;stroke-linecap:round;stroke-linejoin:round;stroke-miterlimit:10;}
	.st7{fill:none;stroke:#414042;stroke-width:4.6877;stroke-linecap:round;stroke-miterlimit:10;}
	.st8{fill:none;stroke:#414042;stroke-width:6.7333;stroke-linecap:round;stroke-miterlimit:10;}
	.st9{fill:none;stroke:#414042;stroke-width:7.4814;stroke-linecap:round;stroke-linejoin:round;stroke-miterlimit:10;}
	.st10{fill:none;stroke:#414042;stroke-width:5.187;stroke-linecap:round;stroke-linejoin:round;stroke-miterlimit:10;}
	.st11{fill:none;stroke:#414042;stroke-width:7.4731;stroke-linecap:round;stroke-linejoin:round;stroke-miterlimit:10;}
	.st12{fill:none;stroke:#414042;stroke-width:6.4281;stroke-miterlimit:10;}
	.st13{fill-rule:evenodd;clip-rule:evenodd;fill:#414042;}
	.st14{fill-rule:evenodd;clip-rule:evenodd;fill:#FEFEFE;}
	.st15{fill:#FEFEFE;}
	.st16{fill:#414042;stroke:#414042;stroke-width:2;stroke-miterlimit:10;}
	.st17{fill:none;stroke:#414042;stroke-width:5.7093;stroke-linecap:round;stroke-linejoin:round;stroke-miterlimit:10;}
	.st18{fill:none;stroke:#414042;stroke-width:5.2488;stroke-miterlimit:10;}
	.st19{fill:#00796B;}
	.st20{fill-rule:evenodd;clip-rule:evenodd;fill:#00796B;}
	.st21{fill:#E3E6E8;}
	.st22{fill-rule:evenodd;clip-rule:evenodd;fill:#E3E6E8;}
</style>
<g>
	<path class="st19" d="M48.12,50.84c-2.23,0-4.41-0.74-6.17-2.1H19.77c-2.38,0-4.32-1.94-4.32-4.32V37c0-2.38,1.94-4.32,4.32-4.32
		h22.18c1.76-1.36,3.95-2.1,6.17-2.1s4.41,0.74,6.17,2.1h7.48c2.38,0,4.32,1.94,4.32,4.32v7.41c0,2.38-1.94,4.32-4.32,4.32H54.3
		C52.53,50.09,50.35,50.84,48.12,50.84z M19.77,33.91c-1.7,0-3.09,1.39-3.09,3.09v7.41c0,1.7,1.39,3.09,3.09,3.09h22.61l0.17,0.14
		c1.6,1.28,3.52,1.96,5.57,1.96s3.98-0.68,5.57-1.96l0.17-0.14h7.91c1.7,0,3.09-1.39,3.09-3.09V37c0-1.7-1.39-3.09-3.09-3.09h-7.91
		l-0.17-0.14c-1.6-1.28-3.52-1.96-5.57-1.96s-3.98,0.68-5.57,1.96l-0.17,0.14H19.77z"/>
	<path class="st19" d="M48.18,48.51c-4.3,0-7.8-3.5-7.8-7.8c0-4.3,3.5-7.8,7.8-7.8c4.3,0,7.8,3.5,7.8,7.8
		C55.99,45.01,52.49,48.51,48.18,48.51z M48.18,35.91c-2.65,0-4.8,2.15-4.8,4.8c0,2.65,2.15,4.8,4.8,4.8c2.65,0,4.8-2.15,4.8-4.8
		C52.98,38.06,50.83,35.91,48.18,35.91z"/>
	<path class="st19" d="M23.29,43.06H20.2c-0.45,0-0.81-0.36-0.81-0.81v-3.09c0-0.45,0.36-0.81,0.81-0.81h3.09
		c0.45,0,0.81,0.36,0.81,0.81v3.09C24.1,42.7,23.74,43.06,23.29,43.06z M20.27,42.18h2.95v-2.95h-2.95V42.18z"/>
	<path class="st19" d="M23.29,51.25H20.2c-0.55,0-0.99-0.44-0.99-0.99v-0.62c0-0.55,0.44-0.99,0.99-0.99h3.09
		c0.55,0,0.99,0.44,0.99,0.99v0.62C24.28,50.81,23.83,51.25,23.29,51.25z M20.45,50.02h2.59V49.9h-2.59V50.02z"/>
	<path class="st19" d="M61.1,51.25h-3.09c-0.55,0-0.99-0.44-0.99-0.99v-0.62c0-0.55,0.44-0.99,0.99-0.99h3.09
		c0.55,0,0.99,0.44,0.99,0.99v0.62C62.08,50.81,61.64,51.25,61.1,51.25z M58.25,50.02h2.59V49.9h-2.59V50.02z"/>
	<path class="st19" d="M32.99,39.28h-7.17c-0.24,0-0.44-0.2-0.44-0.44c0-0.24,0.2-0.44,0.44-0.44h7.17c0.24,0,0.44,0.2,0.44,0.44
		C33.43,39.08,33.23,39.28,32.99,39.28z"/>
	<path class="st19" d="M32.99,41.13h-7.17c-0.24,0-0.44-0.2-0.44-0.44s0.2-0.44,0.44-0.44h7.17c0.24,0,0.44,0.2,0.44,0.44
		S33.23,41.13,32.99,41.13z"/>
	<path class="st19" d="M32.99,43.11h-7.17c-0.24,0-0.44-0.2-0.44-0.44s0.2-0.44,0.44-0.44h7.17c0.24,0,0.44,0.2,0.44,0.44
		S33.23,43.11,32.99,43.11z"/>
</g>
</svg>
