<svg width="55" height="29" viewBox="0 0 55 29" fill="none" xmlns="http://www.w3.org/2000/svg">
<g opacity="0.5" clip-path="url(#clip0)">
<path d="M42.9714 9.30738H12.0566C11.5531 9.30738 11.1455 8.90765 11.1455 8.41387V4.8359C11.1455 4.34211 11.5531 3.94238 12.0566 3.94238H42.9674C43.4709 3.94238 43.8786 4.34211 43.8786 4.8359V8.41387C43.8826 8.90765 43.4749 9.30738 42.9714 9.30738ZM12.9678 7.52036H42.0563V5.72941H12.9678V7.52036Z" fill="#82848D"/>
<path d="M27.502 29.0001C26.9984 29.0001 26.5908 28.6004 26.5908 28.1066V8.41402C26.5908 7.92024 26.9984 7.52051 27.502 7.52051C28.0055 7.52051 28.4131 7.92024 28.4131 8.41402V28.1027C28.4131 28.5964 28.0055 29.0001 27.502 29.0001Z" fill="#82848D"/>
<path d="M33.8882 29.0002H21.1123C20.6088 29.0002 20.2012 28.6004 20.2012 28.1066C20.2012 27.6129 20.6088 27.2131 21.1123 27.2131H33.8882C34.3918 27.2131 34.7994 27.6129 34.7994 28.1066C34.8034 28.5965 34.3918 29.0002 33.8882 29.0002Z" fill="#82848D"/>
<path d="M53.9684 18.2583H39.3662C38.8627 18.2583 38.4551 17.8586 38.4551 17.3648C38.4551 14.8959 40.5011 12.8894 43.0188 12.8894H53.9684C54.4719 12.8894 54.8796 13.2891 54.8796 13.7829V17.3648C54.8796 17.8586 54.4719 18.2583 53.9684 18.2583ZM40.4332 16.4674H53.0533V14.6764H43.0148C41.8239 14.6804 40.8089 15.4249 40.4332 16.4674Z" fill="#82848D"/>
<path d="M53.9689 29C53.9649 29 53.9649 29 53.9609 29C53.4574 28.9961 53.0497 28.5924 53.0537 28.0986L53.1257 17.3608C53.1297 16.867 53.5373 16.4712 54.0368 16.4712C54.0408 16.4712 54.0408 16.4712 54.0448 16.4712C54.5483 16.4751 54.9559 16.8788 54.9519 17.3725L54.88 28.1104C54.876 28.6003 54.4684 29 53.9689 29Z" fill="#82848D"/>
<path d="M41.1932 29C41.1453 29 41.0933 28.9961 41.0414 28.9882C40.5458 28.9059 40.2102 28.4474 40.2901 27.9575L42.1164 17.2197C42.2003 16.7338 42.6678 16.4007 43.1674 16.483C43.6629 16.5653 43.9986 17.0238 43.9187 17.5136L42.0924 28.2515C42.0165 28.6865 41.6288 29 41.1932 29Z" fill="#82848D"/>
<path d="M53.9688 14.6803C53.9648 14.6803 53.9648 14.6803 53.9608 14.6803C53.4573 14.6764 53.0537 14.2727 53.0576 13.7789L53.1815 0.889595C53.1815 0.395811 53.5891 0 54.0887 0C54.0927 0 54.0927 0 54.0967 0C54.6002 0.00391892 55.0038 0.407568 54.9998 0.901351L54.8759 13.7907C54.8759 14.2845 54.4683 14.6803 53.9688 14.6803Z" fill="#82848D"/>
<path d="M15.6374 18.2583H1.03516C0.531638 18.2583 0.124023 17.8586 0.124023 17.3648V13.7829C0.124023 13.2891 0.531638 12.8894 1.03516 12.8894H11.9848C14.5024 12.8894 16.5485 14.8959 16.5485 17.3648C16.5485 17.8586 16.1409 18.2583 15.6374 18.2583ZM1.9463 16.4674H14.5664C14.1907 15.4249 13.1757 14.6764 11.9848 14.6764H1.9463V16.4674Z" fill="#82848D"/>
<path d="M1.03519 29C1.03519 29 1.03119 29 1.03519 29C0.527671 29 0.120056 28.5963 0.124053 28.1026L0.160019 17.3608C0.160019 16.867 0.571629 16.4673 1.07116 16.4673H1.07515C1.57868 16.4673 1.98629 16.8709 1.98629 17.3647L1.95033 28.1026C1.94633 28.6003 1.53872 29 1.03519 29Z" fill="#82848D"/>
<path d="M13.8105 29.0001C13.371 29.0001 12.9873 28.6905 12.9114 28.2516L11.0851 17.5137C11.0012 17.0278 11.3369 16.5654 11.8364 16.4831C12.3319 16.4008 12.8035 16.73 12.8874 17.2198L14.7137 27.9577C14.7976 28.4436 14.4619 28.906 13.9624 28.9883C13.9105 28.9962 13.8585 29.0001 13.8105 29.0001Z" fill="#82848D"/>
<path d="M1.03505 14.6803C0.535523 14.6803 0.127909 14.2845 0.123912 13.7946L2.94203e-05 0.901351C-0.0039668 0.407568 0.399652 0.00391892 0.903176 0C0.907172 0 0.907172 0 0.911168 0C1.4107 0 1.81831 0.395811 1.82231 0.885676L1.94619 13.775C1.95019 14.2688 1.54657 14.6724 1.04304 14.6764C1.03905 14.6803 1.03905 14.6803 1.03505 14.6803Z" fill="#82848D"/>
</g>
<defs>
<clipPath id="clip0">
<rect width="55" height="29" fill="white"/>
</clipPath>
</defs>
</svg>
