<svg width="54" height="30" viewBox="0 0 54 30" fill="none" xmlns="http://www.w3.org/2000/svg">
<g opacity="0.5">
<path fill-rule="evenodd" clip-rule="evenodd" d="M52.6435 0.445557H45.8645C45.0513 0.445557 44.418 0.623774 44.418 0.898527V29.198C44.418 29.4654 45.0513 29.6436 45.8645 29.6436H52.6435C53.4567 29.6436 54.0001 29.4654 54.0001 29.198V0.898527C54.0001 0.627487 53.4567 0.445557 52.6435 0.445557ZM48.4839 3.85026H50.0203V13.255H48.4839V3.85026ZM49.2071 26.5099C48.394 26.5099 47.7606 25.8824 47.7606 25.0805C47.7606 24.2748 48.394 23.6473 49.2071 23.6473C50.0203 23.6473 50.6536 24.2785 50.6536 25.0805C50.6536 25.8824 50.0203 26.5099 49.2071 26.5099Z" fill="#82848D"/>
<path d="M40.8956 27.4531C40.8207 27.4048 40.7457 27.4048 40.6708 27.4048H0.180169C0.180169 27.4048 0.105221 27.4048 0.0302734 27.4531C0.0302734 27.4531 0.0302734 27.5013 0.0302734 27.5496C0.0302734 27.5979 0.62611 30.0001 5.32535 30.0001H35.5256C40.2961 30.0001 40.8956 27.5979 40.8956 27.5496C40.8956 27.5013 40.8956 27.4531 40.8956 27.4531Z" fill="#82848D"/>
<path d="M39.8648 0H0.99306C0.449688 0 0 0.445545 0 0.983911V24.6312C0 25.1658 0.449688 25.6151 0.99306 25.6151H39.8648C40.4082 25.6151 40.8579 25.1658 40.8579 24.6312V0.983911C40.8579 0.445545 40.4044 0 39.8648 0ZM37.3316 22.1213H3.5263V3.49381H37.3316V22.1213Z" fill="#82848D"/>
</g>
</svg>
