<svg width="43" height="46" viewBox="0 0 43 46" fill="none" xmlns="http://www.w3.org/2000/svg">
<g opacity="0.5">
<path d="M18.8519 42.4645C18.3706 42.4645 17.9796 42.4545 17.5886 42.4678C17.1308 42.4812 16.8969 42.2842 16.8969 41.8135C16.9002 39.4299 16.8768 37.0462 16.9136 34.6659C16.9303 33.6711 17.4048 33.2104 18.3406 32.8565C18.6179 32.7497 18.8953 32.3958 18.9889 32.0987C19.5537 30.316 20.0583 28.5166 20.5963 26.7272C20.8503 25.8826 21.2914 25.5621 22.1737 25.5688C24.5698 25.5855 26.966 25.6289 29.3621 25.6322C30.9094 25.6355 32.4533 25.5821 34.0006 25.5688C35.3173 25.5588 36.634 25.5654 37.9507 25.5688C38.8931 25.5721 39.3276 25.9059 39.5949 26.834C40.1129 28.6301 40.6376 30.4262 41.1389 32.2289C41.2391 32.5961 41.3962 32.7964 41.7805 32.9333C42.5458 33.2037 42.9769 33.798 42.9836 34.6259C42.997 37.0095 42.9836 39.3931 42.997 41.7734C43.0003 42.2909 42.763 42.4812 42.2785 42.4645C41.8908 42.4511 41.4998 42.4611 41.042 42.4611C41.042 43.4193 41.0219 44.3173 41.0486 45.212C41.0654 45.7728 40.8648 46.0299 40.2834 45.9965C39.7754 45.9698 39.2641 45.9765 38.7561 45.9932C38.2448 46.0099 38.0543 45.7728 38.0643 45.2788C38.0811 44.3807 38.071 43.4794 38.071 42.5212C32.6538 42.5212 27.2768 42.5212 21.8295 42.5212C21.8295 43.4259 21.8094 44.3206 21.8362 45.2153C21.8529 45.7829 21.6323 46.0232 21.0609 45.9932C20.5763 45.9665 20.0884 45.9631 19.6038 45.9932C19.0156 46.0299 18.8285 45.7495 18.8418 45.202C18.8686 44.3273 18.8519 43.4526 18.8519 42.4645ZM20.3123 32.743C26.8356 32.743 33.2788 32.743 39.7654 32.743C39.2708 30.947 38.8062 29.211 38.2949 27.4917C38.2314 27.278 37.9206 27.0143 37.7068 26.9976C36.9749 26.9342 36.233 26.9676 35.4944 26.9742C33.0716 26.9909 30.6487 27.0277 28.2258 27.031C26.3343 27.0343 24.4395 26.9976 22.548 26.9709C22.1971 26.9676 21.9398 27.0076 21.8261 27.4249C21.3449 29.1776 20.8336 30.9269 20.3123 32.743ZM38.4654 39.0126C39.7019 38.9992 40.7178 37.9543 40.6877 36.7257C40.6576 35.4672 39.6551 34.509 38.3885 34.5291C37.1453 34.5491 36.1327 35.5873 36.1662 36.8125C36.2029 38.0745 37.1955 39.0259 38.4654 39.0126ZM21.3315 39.0126C22.5714 38.9959 23.5639 37.9777 23.5472 36.7358C23.5338 35.4839 22.538 34.5224 21.2714 34.5291C20.0215 34.5391 19.0323 35.5473 19.049 36.7959C19.0658 38.0311 20.0917 39.0259 21.3315 39.0126Z" fill="#82848D"/>
<path d="M7.34212 27.5758C4.81565 27.5758 2.43623 27.5758 0 27.5758C0 18.4386 0 9.33142 0 0.137427C0.217222 0.120735 0.457838 0.0840128 0.701795 0.0840128C4.74213 0.0806744 8.79249 -0.122969 12.8161 0.124074C21.1274 0.631513 23.5135 8.15296 20.6662 13.1539C18.9585 16.1485 16.1279 17.4304 12.8061 17.6608C11.0249 17.7843 9.23028 17.6841 7.34546 17.6841C7.34212 20.9758 7.34212 24.2241 7.34212 27.5758ZM7.34546 4.88131C7.34546 7.61214 7.34546 10.2328 7.34546 12.8902C9.02977 12.9369 10.6372 13.0905 12.1411 12.2358C13.4912 11.4713 14.1328 10.3496 14.1228 8.82732C14.1094 7.33171 13.4477 6.24672 12.131 5.51227C10.6238 4.67099 9.0164 4.83124 7.34546 4.88131Z" fill="#82848D"/>
</g>
</svg>
