<svg width="50" height="38" viewBox="0 0 50 38" fill="none" xmlns="http://www.w3.org/2000/svg">
<g opacity="0.5" clip-path="url(#clip0)">
<path d="M49.4849 10.555V5.67221C49.4849 5.67221 49.5608 3.88867 48.1707 3.88867H42.2142H36.2543C34.8642 3.88867 34.9402 5.67221 34.9402 5.67221V10.555V23.9721C34.9402 23.9721 34.8642 25.7556 36.2543 25.7556H42.2109H48.1674C49.5575 25.7556 49.4816 23.9721 49.4816 23.9721V10.555H49.4849Z" fill="white"/>
<path d="M49.9934 10.555V6.63058C49.9934 5.67221 50.109 4.47994 49.2868 3.78472C48.4482 3.07326 46.6982 3.38838 45.6944 3.38838H42.1746H37.9516C36.8223 3.38838 35.3761 3.13173 34.7355 4.29477C34.2469 5.18491 34.4318 6.46165 34.4318 7.42976V10.633V18.6475V22.9585C34.4318 23.6278 34.369 24.3522 34.587 24.9955C35.0558 26.3664 36.3105 26.2559 37.5091 26.2559H42.0392H45.1925H47.5897C48.0519 26.2559 48.5241 26.2884 48.95 26.0805C49.8481 25.6419 49.9934 24.6186 49.9967 23.7317C50.0033 22.6012 49.9967 21.4739 49.9967 20.3433V11.1625V10.555C49.9967 9.90851 48.9798 9.90851 48.9798 10.555C48.9798 15.0025 49.092 19.4629 48.9798 23.9104C48.9698 24.2223 48.9731 24.5634 48.8147 24.846C48.534 25.3398 48.0189 25.2553 47.5302 25.2553H43.076C40.91 25.2553 38.7242 25.3496 36.5648 25.2553C35.627 25.2131 35.4653 24.6089 35.4553 23.7902C35.4487 22.8448 35.4553 21.9027 35.4553 20.9573V12.0527V6.54936C35.4553 5.76642 35.2671 4.48644 36.3402 4.38898C37.6148 4.27202 38.9586 4.38898 40.2364 4.38898C42.7458 4.38898 45.2619 4.324 47.7713 4.38898C48.4911 4.40847 48.8906 4.63588 48.9732 5.42206C49.0062 5.74368 48.9798 6.07505 48.9798 6.39667V10.5518C48.9764 11.1982 49.9934 11.2015 49.9934 10.555Z" fill="#82848D"/>
<path d="M36.1295 3.52826H48.1714C48.8285 3.52826 48.8285 2.52441 48.1714 2.52441H36.1295C35.4725 2.52766 35.4725 3.52826 36.1295 3.52826Z" fill="#82848D"/>
<path d="M36.1295 27.1169H48.1714C48.8285 27.1169 48.8285 26.113 48.1714 26.113H36.1295C35.4725 26.113 35.4725 27.1169 36.1295 27.1169Z" fill="#82848D"/>
<path d="M43.7824 3.5769C45.0107 2.78422 46.239 1.99479 47.4673 1.20211C48.1607 0.757034 47.5135 -0.344273 46.8168 0.104047L43.1319 2.47884C42.4386 2.92391 43.0857 4.02522 43.7824 3.5769Z" fill="#82848D"/>
<path d="M46.6387 5.95489V23.5108C46.6387 24.1248 47.6061 24.1248 47.6061 23.5108V5.95489C47.6061 5.34088 46.6387 5.34088 46.6387 5.95489Z" fill="#82848D"/>
<path d="M34.9404 12.1858L49.4851 7.82935V15.2981L34.9404 19.164V12.1858Z" fill="#82848D"/>
<path d="M31.9984 23.6698C31.2554 23.6665 30.9418 23.3709 30.3573 22.7569C29.7003 22.0714 28.7989 21.126 26.8243 21.113C26.8111 21.113 26.7946 21.113 26.7814 21.113C24.8069 21.113 23.856 22.0974 23.1626 22.8186C22.5154 23.4911 22.215 23.7477 21.5876 23.738C20.9041 23.7282 20.5574 23.3904 19.9466 22.7406C19.2829 22.0259 18.3716 21.0546 16.5523 21.0383C16.5292 21.0383 16.506 21.0416 16.4895 21.0416C16.4763 21.0416 16.4631 21.0383 16.4466 21.0383C16.4433 21.0383 16.44 21.0383 16.4367 21.0383C14.6207 21.0513 13.7094 22.0259 13.0457 22.7406C12.4382 23.3936 12.0882 23.7315 11.408 23.738C10.7839 23.7477 10.4835 23.4911 9.833 22.8186C9.13961 22.1007 8.18867 21.113 6.21416 21.113C6.20096 21.113 6.18445 21.113 6.17124 21.113C4.19673 21.126 3.29532 22.0714 2.63825 22.7569C2.05383 23.3709 1.73685 23.6698 0.993931 23.6698C0.439219 23.6763 -0.00653127 24.0336 7.24375e-05 24.4754C0.00337429 24.914 0.452427 25.2681 1.00053 25.2681C1.00384 25.2681 1.00714 25.2681 1.00714 25.2681C2.76703 25.2551 3.6123 24.3715 4.22975 23.725C4.86371 23.0623 5.23682 22.7179 6.18775 22.7082C7.1585 22.7212 7.57453 23.0948 8.2415 23.79C8.90518 24.4754 9.73394 25.3331 11.3882 25.3331C11.3981 25.3331 11.4113 25.3331 11.4212 25.3331C13.1316 25.3201 13.9735 24.417 14.6504 23.6893C15.2943 23.0005 15.6674 22.6399 16.4532 22.6367C16.4664 22.6367 16.4796 22.6334 16.4928 22.6302C16.5061 22.6302 16.5193 22.6367 16.5325 22.6367C17.3183 22.6399 17.6881 23.0005 18.332 23.6893C19.0122 24.417 19.8541 25.3201 21.5645 25.3331C21.5744 25.3331 21.5876 25.3331 21.6008 25.3331C23.2583 25.3331 24.0805 24.4787 24.7475 23.79C25.4112 23.1013 25.8371 22.7082 26.7781 22.7082C26.7847 22.7082 26.7946 22.7082 26.8012 22.7082C27.7522 22.7147 28.1253 23.0623 28.7559 23.725C29.3767 24.3715 30.222 25.2551 31.9785 25.2681C31.9818 25.2681 31.9851 25.2681 31.9851 25.2681C32.5366 25.2681 32.9856 24.914 32.9889 24.4754C32.9988 24.0336 32.5531 23.6763 31.9984 23.6698Z" fill="#82848D"/>
<path d="M16.4959 4.85669C7.81204 4.85669 0.722954 11.1397 0.287109 19.0372H32.7047C32.2722 11.1397 25.1798 4.85669 16.4959 4.85669ZM6.42856 11.484C5.33234 11.484 5.36206 9.81095 6.45828 9.81095C7.55449 9.81095 7.52147 11.484 6.42856 11.484ZM9.8724 10.7953C8.37005 10.7953 8.41298 8.50498 9.91202 8.50498C11.4177 8.50498 11.3747 10.7953 9.8724 10.7953ZM13.7257 10.6719C12.121 10.6719 12.1672 8.22559 13.7719 8.22559C15.3733 8.22559 15.3271 10.6719 13.7257 10.6719ZM16.3671 14.3916C14.8648 14.3916 14.9077 12.0948 16.4068 12.0948C17.9091 12.0948 17.8662 14.3916 16.3671 14.3916ZM17.9884 8.87533C16.3837 8.87533 16.4299 6.42906 18.0313 6.42906C19.636 6.42906 19.5898 8.87533 17.9884 8.87533ZM23.0633 11.1916C21.561 11.1916 21.6039 8.90132 23.1029 8.90132C24.6053 8.90132 24.5624 11.1916 23.0633 11.1916ZM27.7288 12.868C26.1241 12.868 26.1704 10.4217 27.7718 10.4217C29.3765 10.4217 29.3302 12.868 27.7288 12.868Z" fill="#82848D"/>
<path d="M2.82991 35.69C3.30868 37.0252 5.84781 37.9998 8.08977 37.9998H24.9061C27.1481 37.9998 29.6839 37.0252 30.1627 35.69C30.4466 34.8973 30.6249 34.0657 30.6811 33.208H2.31152C2.37096 34.0624 2.54596 34.8941 2.82991 35.69Z" fill="#82848D"/>
<path d="M28.6705 27.6169H4.32263C2.08067 27.6169 0.264648 28.3154 0.264648 29.1828C0.264648 30.047 2.08067 30.7454 4.32263 30.7454H28.6705C30.9092 30.7454 32.7285 30.047 32.7285 29.1828C32.7285 28.3154 30.9125 27.6169 28.6705 27.6169Z" fill="#82848D"/>
</g>
<defs>
<clipPath id="clip0">
<rect width="50" height="38" fill="white"/>
</clipPath>
</defs>
</svg>
