<svg width="55" height="49" viewBox="0 0 55 49" fill="none" xmlns="http://www.w3.org/2000/svg">
<g opacity="0.5">
<path d="M55 12.9461H0L27.5 0.367676L55 12.9461ZM9.02929 10.9774H45.9707L27.5 2.52792L9.02929 10.9774Z" fill="#82848D"/>
<path d="M18.5729 12.6321L17.1475 11.2915L27.5001 0L37.8528 11.2915L36.4273 12.6321L27.5001 2.89565L18.5729 12.6321Z" fill="#82848D"/>
<path d="M28.4718 11.9617H26.5283V28.4852H28.4718V11.9617Z" fill="#82848D"/>
<path d="M40.1032 27.501H14.8945V29.4697H40.1032V27.501Z" fill="#82848D"/>
<path d="M38.114 32.4764H16.8906V27.501H38.114V32.4764ZM18.8341 30.5077H36.1667V29.4735H18.8341V30.5077Z" fill="#82848D"/>
<path d="M28.4718 31.4922H26.5283V48.0158H28.4718V31.4922Z" fill="#82848D"/>
<path d="M32.6877 47.0312H22.3086V49H32.6877V47.0312Z" fill="#82848D"/>
<path d="M49.9746 39.9875H36.166V39.0031C36.166 36.8046 37.9318 35.0159 40.1021 35.0159H49.9708V39.9875H49.9746ZM38.3666 38.0188H48.0311V36.9846H40.1059C39.3573 36.9846 38.7069 37.4021 38.3666 38.0188Z" fill="#82848D"/>
<path d="M48.4805 38.8421L46.5635 39.1658L48.0466 48.1804L49.9637 47.8567L48.4805 38.8421Z" fill="#82848D"/>
<path d="M39.1463 38.8389L37.6631 47.8535L39.5801 48.1772L41.0633 39.1626L39.1463 38.8389Z" fill="#82848D"/>
<path d="M49.5206 20.8764L48.0391 35.9011L49.973 36.0968L51.4546 21.0721L49.5206 20.8764Z" fill="#82848D"/>
<path d="M18.834 39.9877H5.02539V35.0122H14.8941C17.0644 35.0122 18.8302 36.8009 18.8302 38.9995V39.9877H18.834ZM6.96888 38.0189H16.6372C16.2969 37.4023 15.6427 36.9848 14.8979 36.9848H6.96888V38.0189Z" fill="#82848D"/>
<path d="M6.52126 38.8374L5.03809 47.8521L6.95515 48.1757L8.43832 39.1611L6.52126 38.8374Z" fill="#82848D"/>
<path d="M15.8526 38.8426L13.9355 39.1663L15.4187 48.1809L17.3358 47.8572L15.8526 38.8426Z" fill="#82848D"/>
<path d="M5.48065 20.8786L3.54688 21.0745L5.02994 36.0977L6.96371 35.9018L5.48065 20.8786Z" fill="#82848D"/>
</g>
</svg>
