<svg width="58" height="31" viewBox="0 0 58 31" fill="none" xmlns="http://www.w3.org/2000/svg">
<g opacity="0.5" clip-path="url(#clip0)">
<path d="M56.6925 11.6469C55.8604 10.5408 54.6791 9.9099 53.4532 9.9099C53.0391 9.9099 52.6494 9.94677 52.28 10.0041V5.2683C52.28 2.54397 50.0839 0.327637 47.3844 0.327637H10.6067C7.90725 0.327637 5.71114 2.54397 5.71114 5.2683V10.0041C5.34174 9.94677 4.95205 9.9099 4.53799 9.9099C3.31207 9.9099 2.13486 10.5449 1.29863 11.6469C0.42181 12.8063 0.10924 14.2647 0.458345 15.5511C0.973882 17.4479 2.69505 18.0624 3.79919 18.1566V23.6381C3.79919 24.9531 4.76937 26.0347 6.02371 26.2231V30.2953C6.02371 30.5042 6.19015 30.6722 6.39717 30.6722H8.59328C8.76783 30.6722 8.91803 30.5534 8.95862 30.3813L9.93693 26.26H48.0542L49.0325 30.3813C49.0731 30.5493 49.2233 30.6722 49.3979 30.6722H51.594C51.801 30.6722 51.9674 30.5042 51.9674 30.2953V26.2231C53.2218 26.0388 54.192 24.9572 54.192 23.6381V18.1566C55.2961 18.0624 57.0173 17.4479 57.5328 15.5511C57.8819 14.2647 57.5693 12.8063 56.6925 11.6469ZM51.5331 5.2683V10.168C49.6658 10.7006 48.5616 12.0525 48.5616 13.9698V16.5343H37.0087V1.08553H47.3844C49.6739 1.08553 51.5331 2.96184 51.5331 5.2683ZM9.43763 17.2881H48.5616V21.0203H9.43763V17.2881ZM21.7375 16.5302V1.08553H36.2618V16.5343H21.7375V16.5302ZM6.46212 5.2683C6.46212 2.96184 8.32131 1.08553 10.6067 1.08553H20.9865V16.5343H9.43763V13.9698C9.43763 12.0566 8.33348 10.7047 6.46618 10.1721V5.2683H6.46212ZM8.30101 29.9184H6.77469V26.26H9.16971L8.30101 29.9184ZM49.6983 29.9184L48.8296 26.26H51.2246V29.9184H49.6983ZM56.8102 15.3545C56.2419 17.4479 53.92 17.4233 53.8266 17.4151C53.7251 17.411 53.6277 17.452 53.5546 17.5216C53.4816 17.5913 53.441 17.6896 53.441 17.792V23.6381C53.441 24.6663 52.6129 25.5021 51.594 25.5021H6.40123C5.38234 25.5021 4.55423 24.6663 4.55423 23.6381V17.792C4.55423 17.6896 4.51364 17.5913 4.44057 17.5216C4.37156 17.452 4.27819 17.4151 4.18077 17.4151C4.17671 17.4151 4.17265 17.4151 4.16859 17.4151C4.14424 17.4192 1.7614 17.4561 1.18903 15.3545C0.900814 14.2934 1.16873 13.0808 1.90347 12.1058C2.59356 11.1922 3.55563 10.6678 4.54611 10.6678C5.5163 10.6678 8.69071 10.9054 8.69071 13.9657V21.3931C8.69071 21.602 8.85714 21.77 9.06417 21.77H48.9392C49.1462 21.77 49.3126 21.602 49.3126 21.3931V13.9657C49.3126 10.9054 52.483 10.6678 53.4572 10.6678C54.4436 10.6678 55.4098 11.1922 56.0999 12.1058C56.8305 13.0808 57.0985 14.2934 56.8102 15.3545Z" fill="#82848D"/>
<path d="M51.594 31H49.3979C49.0731 31 48.793 30.7788 48.72 30.4592L47.7985 26.5878H10.1967L9.2793 30.4592C9.20218 30.7788 8.92208 31 8.59733 31H6.40123C6.01559 31 5.70302 30.6846 5.70302 30.2954V26.4895C4.4162 26.17 3.47849 24.9901 3.47849 23.6382V18.4476C2.13485 18.2428 0.632888 17.4193 0.149826 15.6372C-0.227694 14.2525 0.109232 12.6835 1.04694 11.4463C1.94406 10.2623 3.21869 9.58226 4.54204 9.58226C4.82214 9.58226 5.10223 9.59865 5.39045 9.62733V5.2684C5.39045 2.36382 7.73269 0 10.6108 0H47.3885C50.2666 0 52.6088 2.36382 52.6088 5.2684V9.63143C52.893 9.59865 53.1731 9.58636 53.4572 9.58636C54.7846 9.58636 56.0593 10.2664 56.9564 11.4545C57.8941 12.6958 58.227 14.2607 57.8494 15.6454C57.3664 17.4234 55.8644 18.251 54.5208 18.4558V23.6382C54.5208 24.9901 53.5831 26.17 52.2962 26.4895V30.2954C52.2962 30.6846 51.9796 31 51.594 31ZM9.68524 25.9323H48.314L49.3532 30.3077C49.3573 30.3322 49.3776 30.3445 49.4019 30.3445H51.598C51.6264 30.3445 51.6467 30.324 51.6467 30.2954V25.9405L51.9228 25.8996C53.031 25.7357 53.8672 24.7648 53.8672 23.6423V17.8577L54.1635 17.8331C54.5776 17.7962 56.66 17.5176 57.2162 15.4693C57.5409 14.2812 57.2446 12.9293 56.4327 11.8478C55.6614 10.8277 54.5735 10.2377 53.4532 10.2377C53.0838 10.2377 52.7184 10.2664 52.3328 10.3279L51.9593 10.3852V5.2684C51.9593 2.72433 49.9093 0.655478 47.3885 0.655478H10.6108C8.08991 0.655478 6.03994 2.72433 6.03994 5.2684V10.3852L5.66648 10.3279C5.28084 10.2664 4.9155 10.2377 4.54204 10.2377C3.42166 10.2377 2.33376 10.8236 1.56248 11.8437C0.74655 12.9211 0.454277 14.273 0.779025 15.4652C1.33516 17.5135 3.42166 17.7962 3.83166 17.829L4.12799 17.8536V23.6382C4.12799 24.7607 4.96422 25.7316 6.07242 25.8955L6.34845 25.9364V30.2913C6.34845 30.3199 6.37281 30.3404 6.39717 30.3404H8.59327C8.61763 30.3404 8.63793 30.324 8.64199 30.2995L9.68524 25.9323ZM51.5453 30.2462H49.4385L48.4155 25.9323H51.5453V30.2462ZM49.954 29.5907H50.8998V26.5878H49.2436L49.954 29.5907ZM8.55674 30.2462H6.44994V25.9323H9.5797L8.55674 30.2462ZM7.09943 29.5907H8.04526L8.75971 26.5878H7.10349V29.5907H7.09943ZM51.594 25.834H6.40123C5.20372 25.834 4.22947 24.8508 4.22947 23.6423V17.7921C4.22947 17.7798 4.22541 17.7675 4.21324 17.7553C4.20512 17.7471 4.19294 17.7389 4.1767 17.7389C4.17264 17.7389 4.16858 17.7389 4.16452 17.7389C3.787 17.7389 1.46911 17.6324 0.87239 15.4406C0.555761 14.2812 0.843975 12.9621 1.63961 11.9092C2.39465 10.9137 3.45008 10.3402 4.54204 10.3402C6.70162 10.3402 9.01139 11.2947 9.01139 13.9699V21.3973C9.01139 21.4259 9.03168 21.4464 9.0601 21.4464H48.9351C48.9635 21.4464 48.9838 21.4259 48.9838 21.3973V13.9658C48.9838 11.2906 51.2936 10.3361 53.4532 10.3361C54.5451 10.3361 55.6006 10.9096 56.3556 11.9051C57.1512 12.958 57.4394 14.2812 57.1228 15.4365C56.4733 17.8331 53.8266 17.7348 53.7982 17.7348C53.8063 17.7348 53.7941 17.7389 53.786 17.7512C53.7738 17.7634 53.7698 17.7757 53.7698 17.788V23.6382C53.7698 24.8467 52.7955 25.834 51.594 25.834ZM4.14423 17.0875H4.16858C4.36343 17.0875 4.53392 17.1571 4.66788 17.2882C4.80184 17.4193 4.87897 17.6037 4.87897 17.7921V23.6382C4.87897 24.4862 5.56094 25.1744 6.40123 25.1744H51.594C52.4343 25.1744 53.1162 24.4862 53.1162 23.6382V17.7921C53.1162 17.6037 53.1934 17.4193 53.3273 17.2882C53.4613 17.1571 53.6439 17.0793 53.8347 17.0875C53.8672 17.0875 55.9821 17.1448 56.4936 15.2685C56.7575 14.3058 56.5099 13.1997 55.836 12.3066C55.2068 11.475 54.3381 10.9956 53.4491 10.9956C52.3003 10.9956 49.6292 11.2865 49.6292 13.9699V21.3973C49.6292 21.7864 49.3167 22.1019 48.931 22.1019H9.0601C8.67446 22.1019 8.36189 21.7864 8.36189 21.3973V13.9658C8.36189 11.2824 5.69084 10.9915 4.54204 10.9915C3.6571 10.9915 2.7884 11.4709 2.1592 12.3025C1.48535 13.1956 1.23773 14.3017 1.50159 15.2644C1.98871 17.0506 3.96156 17.0793 4.14017 17.0834L4.14423 17.0875ZM48.8864 21.344H9.11287V16.9605H48.8864V21.344ZM9.76237 20.6885H48.2369V17.616H9.76237V20.6885ZM48.8864 16.8581H36.684V0.757896H47.3844C49.8485 0.757896 51.8538 2.78168 51.8538 5.2684V10.4139L51.6183 10.4795C49.8525 10.9833 48.8823 12.2206 48.8823 13.9658V16.8581H48.8864ZM37.3335 16.2026H48.2369V13.9658C48.2369 12.0116 49.3167 10.5491 51.2083 9.92229V5.2684C51.2083 3.1422 49.4953 1.41337 47.3885 1.41337H37.3335V16.2026ZM36.5866 16.8581H21.4127V0.757896H36.5866V16.8581ZM22.0622 16.2026H35.9371V1.41337H22.0622V16.2026ZM21.3112 16.8581H9.11287V13.9658C9.11287 12.2206 8.14269 10.9833 6.37687 10.4795L6.14143 10.4139V5.2684C6.14143 2.78168 8.14675 0.757896 10.6108 0.757896H21.3112V16.8581ZM9.76237 16.2026H20.6617V1.41337H10.6108C8.50397 1.41337 6.79092 3.1422 6.79092 5.2684V9.92639C8.68258 10.5532 9.76237 12.0157 9.76237 13.9699V16.2026Z" fill="#82848D"/>
</g>
<defs>
<clipPath id="clip0">
<rect width="58" height="31" fill="white"/>
</clipPath>
</defs>
</svg>
