<svg width="51" height="37" viewBox="0 0 51 37" fill="none" xmlns="http://www.w3.org/2000/svg">
<g opacity="0.5" clip-path="url(#clip0)">
<path d="M25.9871 26.8922H6.39552C2.86759 26.8922 0 24.0199 0 20.4898V14.7452C0 14.1423 0.488876 13.6526 1.09085 13.6526H31.2881C31.8864 13.6526 32.3716 14.1313 32.3789 14.7306C32.3789 14.7306 32.3862 15.2057 32.3899 15.6844C32.3935 16.0644 32.3935 16.3824 32.3716 16.6418H32.3789V20.4898C32.3753 24.0199 29.5113 26.8922 25.9871 26.8922ZM2.1817 15.8379V20.4935C2.1817 22.8176 4.07154 24.7106 6.39187 24.7106H25.9834C28.3037 24.7106 30.1936 22.8176 30.1936 20.4935V16.6418C30.1936 16.5943 30.1972 16.5505 30.2009 16.503C30.2045 16.397 30.2045 16.1448 30.2045 15.8379H2.1817ZM30.2775 16.2252C30.2483 16.2983 30.2264 16.3714 30.2118 16.4408C30.2264 16.3677 30.2483 16.2947 30.2775 16.2252Z" fill="#82848D"/>
<path d="M4.83428 28.5549C2.57231 32.8195 5.56759 33.3786 5.56759 33.3786C4.27243 32.4614 4.85252 30.8718 5.1152 30.2176C7.1911 31.6246 6.42495 33.0059 6.42495 33.0059C8.43518 31.4601 4.83428 28.5549 4.83428 28.5549Z" fill="#82848D"/>
<path d="M11.9888 28.533C9.49334 32.6623 12.4521 33.3932 12.4521 33.3932C11.2081 32.4029 11.8793 30.8498 12.1785 30.2103C14.1741 31.7305 13.3314 33.068 13.3314 33.068C15.4255 31.6355 11.9888 28.533 11.9888 28.533Z" fill="#82848D"/>
<path d="M19.5515 33.28C22.0105 32.6734 19.8762 28.5623 19.8762 28.5623C16.0929 31.5588 18.6139 33.2763 18.6139 33.2763C17.8003 31.9133 18.9641 30.6927 19.4676 30.1994C20.8065 32.3226 19.5515 33.28 19.5515 33.28Z" fill="#82848D"/>
<path d="M24.8741 32.8707C24.5822 31.3103 26.0926 30.5684 26.7384 30.2797C27.2637 32.7355 25.7533 33.1995 25.7533 33.1995C28.267 33.4846 27.6869 28.8875 27.6869 28.8875C23.1046 30.3857 24.8741 32.8707 24.8741 32.8707Z" fill="#82848D"/>
<path d="M27.406 34.6321H4.40332V37.0001H27.406V34.6321Z" fill="#82848D"/>
<path d="M16.4027 2.57264C16.4574 2.67496 16.5012 2.77728 16.5267 2.86499L16.5377 2.89788V2.90153C16.545 2.91249 16.5304 2.88326 16.534 2.88691V2.89422L16.5377 2.90884L16.545 2.93807C16.5559 2.97462 16.5705 3.01847 16.5705 3.03309L16.5997 3.17926C16.6325 3.38756 16.6289 3.56662 16.5997 3.74933C16.5486 4.11477 16.3626 4.52405 16.1145 4.98815C15.8664 5.44859 15.5636 5.94193 15.2827 6.52296C15.1404 6.81165 15.0127 7.13323 14.9032 7.48405C14.8047 7.83852 14.7208 8.22953 14.7245 8.64247C14.7245 8.84711 14.7354 9.05175 14.7719 9.25274C14.8011 9.3843 14.8449 9.60355 14.8886 9.76069C14.9871 10.0969 15.1185 10.4185 15.2827 10.7072C15.611 11.2772 16.0598 11.745 16.5815 11.946C16.2932 11.3978 16.1254 10.8424 16.0379 10.3015C15.9941 10.0311 15.9722 9.76069 15.9685 9.50123C15.9649 9.35872 15.9722 9.27467 15.9758 9.09926C15.9868 8.99694 15.9977 8.89462 16.0233 8.7923C16.1145 8.39397 16.3261 7.98104 16.5924 7.52425C16.8587 7.07111 17.1761 6.59605 17.4717 6.01501C17.6212 5.72997 17.7599 5.41205 17.873 5.05027C17.9897 4.6958 18.0627 4.28286 18.07 3.85531C18.0736 3.4241 17.9934 2.98923 17.8474 2.62015C17.811 2.52879 17.7745 2.44109 17.727 2.34242C17.7015 2.2876 17.6869 2.26568 17.6687 2.23279L17.5957 2.10123C17.4936 1.92583 17.3841 1.78331 17.271 1.65541C16.8259 1.15842 16.3516 0.847802 15.8664 0.581037C15.3848 0.328889 14.885 0.120593 14.3633 0C14.7464 0.442173 15.1221 0.86242 15.476 1.28632C15.8263 1.71388 16.1729 2.14874 16.4027 2.57264Z" fill="#82848D"/>
<path d="M23.3568 5.06846C23.5319 5.31695 23.5939 5.62026 23.5501 5.86876C23.5136 6.12821 23.3677 6.40229 23.178 6.69829C22.9883 6.99429 22.7584 7.30125 22.5468 7.65572C22.3425 8.00653 22.1382 8.43043 22.1273 8.92377C22.1236 9.04436 22.1309 9.16861 22.1565 9.28555C22.1747 9.37325 22.2039 9.50115 22.2367 9.59616C22.306 9.80446 22.3936 9.99814 22.5067 10.1772C22.7438 10.528 23.0503 10.8313 23.4261 10.9738C23.1962 10.6523 23.0394 10.3161 22.9591 9.97256C22.919 9.80081 22.8934 9.63271 22.8825 9.46461C22.8752 9.37325 22.8752 9.31113 22.8788 9.20881C22.8825 9.13937 22.8898 9.06629 22.908 9.00051C23.0357 8.4414 23.5574 7.90787 23.9952 7.21355C24.2105 6.86639 24.4221 6.43518 24.4367 5.91992C24.4403 5.66777 24.3856 5.41197 24.2871 5.19271C24.2615 5.13789 24.236 5.08308 24.2032 5.02461C24.1849 4.99172 24.174 4.9771 24.163 4.95518L24.112 4.87844C24.0426 4.77246 23.9624 4.68841 23.8821 4.60802C23.5611 4.30105 23.2181 4.10006 22.8606 3.92466C22.5067 3.74925 22.1382 3.61039 21.7588 3.51172C22.058 3.76752 22.3498 4.01601 22.6271 4.27182C22.9007 4.53493 23.1707 4.79804 23.3568 5.06846Z" fill="#82848D"/>
<path d="M8.9785 4.39621C9.02958 4.47295 9.077 4.55334 9.10254 4.62277L9.11349 4.64835C9.10619 4.63739 9.12078 4.67028 9.12443 4.67759C9.13538 4.70317 9.14997 4.73606 9.14997 4.74702L9.17916 4.86396C9.21564 5.0284 9.21929 5.17458 9.19375 5.32806C9.14997 5.62771 8.9785 5.94929 8.75595 6.29645C8.52975 6.64361 8.25978 7.00905 8.01169 7.42929C7.76725 7.84954 7.52646 8.35384 7.51187 8.94584C7.50822 9.09201 7.51917 9.23818 7.54835 9.3807C7.57024 9.47937 7.60673 9.6365 7.64321 9.74979C7.72347 9.99463 7.83292 10.2322 7.97156 10.4441C8.24883 10.8644 8.62826 11.2188 9.077 11.3833C8.80338 10.9996 8.63556 10.5939 8.53705 10.192C8.48962 9.98732 8.46408 9.78999 8.45679 9.59265C8.44949 9.48302 8.45314 9.41359 8.45314 9.28934C8.46044 9.20529 8.46773 9.1249 8.48962 9.0445C8.56624 8.72292 8.75595 8.40134 8.99674 8.05784C9.23388 7.71433 9.51845 7.35986 9.77748 6.93961C9.90882 6.73132 10.0329 6.5011 10.1277 6.24529C10.2299 5.98949 10.2919 5.7008 10.2992 5.39749C10.3028 5.09418 10.2372 4.78356 10.1168 4.52411C10.0876 4.45833 10.0548 4.39621 10.0146 4.32677C9.99274 4.29023 9.98179 4.27196 9.96355 4.24638L9.90153 4.15137C9.81761 4.02712 9.72276 3.9248 9.6279 3.82979C9.24483 3.46801 8.83621 3.23048 8.41301 3.02218C7.9898 2.82119 7.552 2.65675 7.09961 2.54712C7.44985 2.85408 7.79279 3.15374 8.11749 3.4607C8.44584 3.76401 8.76325 4.07828 8.9785 4.39621Z" fill="#82848D"/>
<path d="M37.4755 18.352H31.3682C30.7662 18.352 30.2773 17.8624 30.2773 17.2594C30.2773 16.6564 30.7662 16.1667 31.3682 16.1667H37.4755C38.0775 16.1667 38.5664 16.6564 38.5664 17.2594C38.5664 17.8624 38.0775 18.352 37.4755 18.352Z" fill="#82848D"/>
<path d="M49.9091 19.4446H38.5664C37.9681 19.4446 37.4756 18.9513 37.4756 18.352V15.7318C37.4756 15.1325 37.9681 14.6392 38.5664 14.6392H49.9091C50.5074 14.6392 50.9999 15.1325 50.9999 15.7318V18.352C50.9999 18.9513 50.5074 19.4446 49.9091 19.4446Z" fill="#82848D"/>
</g>
<defs>
<clipPath id="clip0">
<rect width="51" height="37" fill="white"/>
</clipPath>
</defs>
</svg>
