<svg width="42" height="43" viewBox="0 0 42 43" fill="none" xmlns="http://www.w3.org/2000/svg">
<g opacity="0.5" clip-path="url(#clip0)">
<path d="M39.767 27.5746H2.11621V0H39.767V27.5746ZM3.40857 26.2854H38.4746V1.28917H3.40857V26.2854Z" fill="#82848D"/>
<path d="M35.2045 43C34.8598 43 34.529 42.8075 34.367 42.474L27.409 28.0456H14.0098L6.64158 42.4947C6.41068 42.9519 5.84893 43.1306 5.39402 42.9003C4.93567 42.67 4.75646 42.1096 4.98736 41.6558L12.8725 26.196H28.5773L36.0419 41.6765C36.2625 42.1371 36.0695 42.6906 35.6077 42.9106C35.4767 42.9725 35.3389 43 35.2045 43Z" fill="#82848D"/>
<path d="M29.5968 31.3769H11.7415C11.228 31.3769 10.8145 30.9609 10.8145 30.4521C10.8145 29.9399 11.2315 29.5273 11.7415 29.5273H29.5968C30.1103 29.5273 30.5238 29.9433 30.5238 30.4521C30.5238 30.9609 30.1103 31.3769 29.5968 31.3769Z" fill="#82848D"/>
<path d="M40.9661 28.0214H1.03044C0.461804 28.0214 0 27.5607 0 26.9901C0 26.4228 0.461804 25.9622 1.03044 25.9622H40.9661C41.5347 25.9622 41.9966 26.4228 41.9966 26.9901C42 27.5607 41.5382 28.0214 40.9661 28.0214Z" fill="#82848D"/>
<path d="M32.4367 27.5059H29.466C28.5389 27.5059 27.7842 26.753 27.7842 25.8283C27.7842 24.9035 28.5389 24.1506 29.466 24.1506H32.4367C33.3637 24.1506 34.1185 24.9035 34.1185 25.8283C34.1185 26.7565 33.3637 27.5059 32.4367 27.5059ZM29.466 25.4432C29.2557 25.4432 29.0765 25.622 29.0765 25.8317C29.0765 26.0414 29.2557 26.2168 29.466 26.2168H32.4367C32.6469 26.2168 32.8227 26.038 32.8227 25.8317C32.8227 25.622 32.6435 25.4432 32.4367 25.4432H29.466Z" fill="#82848D"/>
<path d="M13.6952 21.8335H9.81814C9.60447 21.8335 9.42871 21.6582 9.42871 21.445V14.2256C9.42871 14.0125 9.60447 13.8372 9.81814 13.8372H13.6952C13.9089 13.8372 14.0847 14.0125 14.0847 14.2256V21.445C14.0847 21.6616 13.9089 21.8335 13.6952 21.8335Z" fill="#82848D"/>
<path d="M23.0038 21.8335H19.1267C18.9131 21.8335 18.7373 21.6581 18.7373 21.445V11.3929C18.7373 11.1797 18.9131 11.0044 19.1267 11.0044H23.0038C23.2175 11.0044 23.3933 11.1797 23.3933 11.3929V21.4484C23.3898 21.6616 23.214 21.8335 23.0038 21.8335Z" fill="#82848D"/>
<path d="M31.5331 21.8335H27.656C27.4424 21.8335 27.2666 21.6582 27.2666 21.4451V8.03764C27.2666 7.8245 27.4424 7.64917 27.656 7.64917H31.5331C31.7468 7.64917 31.9225 7.8245 31.9225 8.03764V21.4451C31.9191 21.6616 31.7468 21.8335 31.5331 21.8335Z" fill="#82848D"/>
</g>
<defs>
<clipPath id="clip0">
<rect width="42" height="43" fill="white"/>
</clipPath>
</defs>
</svg>
