<svg width="34" height="55" viewBox="0 0 34 55" fill="none" xmlns="http://www.w3.org/2000/svg">
<g opacity="0.5" clip-path="url(#clip0)">
<path d="M29.7725 2.39087H4.22673C3.96546 2.39087 3.75488 2.59944 3.75488 2.85821V50.821C3.75488 51.0798 3.96546 51.2883 4.22673 51.2883H29.7725C30.0338 51.2883 30.2444 51.0798 30.2444 50.821V2.85435C30.2444 2.59944 30.0299 2.39087 29.7725 2.39087ZM29.3007 50.3536H4.69857V3.3217H29.3007V50.3536Z" fill="#82848D"/>
<path d="M0.471843 55H33.532C33.7933 55 34.0039 54.7914 34.0039 54.5327V0.467346C34.0039 0.208567 33.7933 0 33.532 0H0.471843C0.210575 0 0 0.208567 0 0.467346V54.5327C0 54.7914 0.210575 55 0.471843 55ZM0.939786 0.930829H33.0563V54.0653H0.939786V0.930829Z" fill="#82848D"/>
<path d="M20.168 8.88726L7.41699 21.5203L8.57525 22.6672L21.3262 10.0341L20.168 8.88726Z" fill="#82848D"/>
<path d="M26.1533 14.8162L13.4023 27.4492L14.5606 28.5961L27.3116 15.9631L26.1533 14.8162Z" fill="#82848D"/>
<path d="M26.4465 8.94577L7.40137 27.8147L8.55962 28.9616L27.6048 10.0927L26.4465 8.94577Z" fill="#82848D"/>
</g>
<defs>
<clipPath id="clip0">
<rect width="34" height="55" fill="white"/>
</clipPath>
</defs>
</svg>
