<svg width="55" height="22" viewBox="0 0 55 22" fill="none" xmlns="http://www.w3.org/2000/svg">
<g opacity="0.5">
<path d="M35.4814 21.5549C33.0646 21.5549 30.6904 20.7621 28.7776 19.3191H4.69512C2.10446 19.3226 0 17.2572 0 14.7223V6.8361C0 4.29777 2.10446 2.23582 4.69512 2.23582H28.7776C30.694 0.792793 33.0646 0 35.4814 0C37.8981 0 40.2723 0.792793 42.1851 2.23582H50.3049C52.892 2.23582 55 4.29777 55 6.8361V14.7223C55 17.2572 52.8955 19.3226 50.3049 19.3226H42.1851C40.2723 20.7621 37.9017 21.5549 35.4814 21.5549ZM4.69512 3.55018C2.84617 3.55018 1.34146 5.0245 1.34146 6.8361V14.7223C1.34146 16.5339 2.84617 18.0082 4.69512 18.0082H29.246L29.4306 18.1543C31.1624 19.5208 33.2562 20.244 35.4814 20.244C37.7065 20.244 39.8003 19.5208 41.5321 18.1543L41.7167 18.0082H50.3049C52.1538 18.0082 53.6585 16.5339 53.6585 14.7223V6.8361C53.6585 5.0245 52.1538 3.55018 50.3049 3.55018H41.7167L41.5321 3.40414C39.8003 2.03762 37.7065 1.31437 35.4814 1.31437C33.2562 1.31437 31.1624 2.03762 29.4306 3.40414L29.246 3.55018H4.69512Z" fill="#82848D"/>
<path d="M35.5492 19.0757C30.8789 19.0757 27.0781 15.3552 27.0781 10.7792C27.0781 6.20329 30.8789 2.47925 35.5492 2.47925C40.2195 2.47925 44.0203 6.20329 44.0203 10.7792C44.0203 15.3552 40.2195 19.0757 35.5492 19.0757ZM35.5492 5.67128C32.6747 5.67128 30.336 7.96273 30.336 10.7792C30.336 13.5957 32.6747 15.8872 35.5492 15.8872C38.4238 15.8872 40.7625 13.5957 40.7625 10.7792C40.7625 7.96273 38.4238 5.67128 35.5492 5.67128Z" fill="#82848D"/>
<path d="M8.51697 13.2862H5.16332C4.67713 13.2862 4.2832 12.9003 4.2832 12.4239V9.13797C4.2832 8.6616 4.67713 8.27563 5.16332 8.27563H8.51697C9.00317 8.27563 9.39709 8.6616 9.39709 9.13797V12.4239C9.40064 12.8968 9.00317 13.2862 8.51697 13.2862ZM5.24139 12.3474H8.44245V9.21099H5.24139V12.3474Z" fill="#82848D"/>
<path d="M8.51721 21.9998H5.16355C4.57089 21.9998 4.0918 21.5269 4.0918 20.9497V20.2925C4.0918 19.7118 4.57444 19.2424 5.16355 19.2424H8.51721C9.10986 19.2424 9.58896 19.7153 9.58896 20.2925V20.9497C9.59251 21.5269 9.10986 21.9998 8.51721 21.9998ZM5.43326 20.6855H8.25104V20.5533H5.43326V20.6855Z" fill="#82848D"/>
<path d="M49.567 21.9998H46.2134C45.6207 21.9998 45.1416 21.5269 45.1416 20.9497V20.2925C45.1416 19.7118 45.6242 19.2424 46.2134 19.2424H49.567C50.1597 19.2424 50.6388 19.7153 50.6388 20.2925V20.9497C50.6388 21.5269 50.1597 21.9998 49.567 21.9998ZM46.4831 20.6855H49.3008V20.5533H46.4831V20.6855Z" fill="#82848D"/>
<path d="M19.0498 9.25963H11.2672C11.001 9.25963 10.7881 9.051 10.7881 8.79022C10.7881 8.52943 11.001 8.3208 11.2672 8.3208H19.0462C19.3124 8.3208 19.5253 8.52943 19.5253 8.79022C19.5289 9.04753 19.3124 9.25963 19.0498 9.25963Z" fill="#82848D"/>
<path d="M19.0498 11.2311H11.2672C11.001 11.2311 10.7881 11.0224 10.7881 10.7617C10.7881 10.5009 11.001 10.2922 11.2672 10.2922H19.0462C19.3124 10.2922 19.5253 10.5009 19.5253 10.7617C19.5253 11.0224 19.3124 11.2311 19.0498 11.2311Z" fill="#82848D"/>
<path d="M19.0498 13.3351H11.2672C11.001 13.3351 10.7881 13.1264 10.7881 12.8657C10.7881 12.6049 11.001 12.3962 11.2672 12.3962H19.0462C19.3124 12.3962 19.5253 12.6049 19.5253 12.8657C19.5289 13.123 19.3124 13.3351 19.0498 13.3351Z" fill="#82848D"/>
</g>
</svg>
