<svg width="21" height="38" viewBox="0 0 21 38" fill="none" xmlns="http://www.w3.org/2000/svg">
<g opacity="0.5" clip-path="url(#clip0)">
<path d="M10.5002 1.50219C13.8096 1.50219 16.5002 4.17718 16.5002 7.46752V21.4144C16.5002 24.7047 13.806 27.3797 10.5002 27.3797C7.19436 27.3797 4.50018 24.7047 4.50018 21.4144V7.46752C4.50018 4.17718 7.19071 1.50219 10.5002 1.50219ZM10.5002 0C6.3679 0 2.98926 3.36274 2.98926 7.46752V21.4144C2.98926 25.5228 6.37154 28.8819 10.5002 28.8819C14.6325 28.8819 18.0111 25.5191 18.0111 21.4144V7.46752C18.0147 3.36274 14.6325 0 10.5002 0Z" fill="#82848D"/>
<path d="M10.5 32.2085C4.71116 32.2085 0 27.5246 0 21.7656V9.76979C0 9.35352 0.338592 9.02051 0.757281 9.02051C1.17597 9.02051 1.51456 9.35714 1.51456 9.76979V21.7656C1.51456 26.6921 5.54854 30.7027 10.5036 30.7027C15.4587 30.7027 19.4927 26.6921 19.4927 21.7656V9.76979C19.4927 9.35352 19.8313 9.02051 20.2464 9.02051C20.665 9.02051 21.0036 9.35714 21.0036 9.76979V21.7656C21 27.5246 16.2888 32.2085 10.5 32.2085Z" fill="#82848D"/>
<path d="M10.5766 35.9294C10.1579 35.9294 9.81934 35.5928 9.81934 35.1801V31.5676C9.81934 31.1514 10.1579 30.8184 10.5766 30.8184C10.9953 30.8184 11.3303 31.155 11.3303 31.5676V35.1801C11.3303 35.5964 10.9953 35.9294 10.5766 35.9294Z" fill="#82848D"/>
<path d="M10.4996 35.2925C8.11849 35.2925 5.97407 36.3422 4.50684 38H16.4923C15.025 36.3458 12.8806 35.2925 10.4996 35.2925Z" fill="#82848D"/>
<path d="M16.8382 19.532H4.44869C4.03 19.532 3.69141 19.1954 3.69141 18.7827C3.69141 18.3665 4.03 18.0334 4.44869 18.0334H16.8382C17.2569 18.0334 17.5919 18.3701 17.5919 18.7827C17.5919 19.1954 17.2533 19.532 16.8382 19.532Z" fill="#82848D"/>
<path d="M10.5731 9.35355H4.59127C4.17258 9.35355 3.83398 9.01692 3.83398 8.60427C3.83398 8.188 4.17258 7.85498 4.59127 7.85498H10.5731C10.9918 7.85498 11.3267 8.19162 11.3267 8.60427C11.3267 9.01692 10.9881 9.35355 10.5731 9.35355Z" fill="#82848D"/>
<path d="M10.5731 11.6883H4.59127C4.17258 11.6883 3.83398 11.3516 3.83398 10.939C3.83398 10.5227 4.17258 10.1897 4.59127 10.1897H10.5731C10.9918 10.1897 11.3267 10.5263 11.3267 10.939C11.3267 11.3516 10.9881 11.6883 10.5731 11.6883Z" fill="#82848D"/>
<path d="M10.5731 14.0264H4.59127C4.17258 14.0264 3.83398 13.6898 3.83398 13.2771C3.83398 12.8608 4.17258 12.5278 4.59127 12.5278H10.5731C10.9918 12.5278 11.3267 12.8645 11.3267 13.2771C11.3267 13.6898 10.9881 14.0264 10.5731 14.0264Z" fill="#82848D"/>
</g>
<defs>
<clipPath id="clip0">
<rect width="21" height="38" fill="white"/>
</clipPath>
</defs>
</svg>
