<svg width="38" height="51" viewBox="0 0 38 51" fill="none" xmlns="http://www.w3.org/2000/svg">
<g opacity="0.5" clip-path="url(#clip0)">
<path d="M21.2682 29.8626C22.7267 34.2665 24.1813 38.6587 25.632 43.0389C26.1076 43.0824 26.548 43.0824 26.9686 43.1695C28.7809 43.5533 30.0468 45.1163 30.0704 46.9681C30.094 48.8674 28.8635 50.462 27.0433 50.8893C25.2546 51.3127 23.4226 50.4462 22.6088 48.7961C21.7911 47.1343 22.2117 45.0767 23.6938 43.949C24.1302 43.6166 24.1302 43.3475 23.9729 42.9083C23.6663 42.0655 23.3754 41.2188 23.1316 40.3562C23.0098 39.9288 22.7936 39.818 22.3729 39.822C18.6893 39.8378 15.0056 39.8378 11.322 39.818C10.9092 39.8141 10.7402 39.9644 10.5908 40.3245C9.23055 43.5533 7.85459 46.7702 6.48257 49.9951C6.41181 50.1613 6.34104 50.3235 6.26635 50.4857C6.05012 50.9289 5.69238 51.1109 5.24028 50.9131C4.77638 50.7113 4.69382 50.2998 4.87073 49.8566C5.14986 49.1523 5.45257 48.4598 5.75135 47.7674C8.23593 41.927 10.7205 36.0867 13.2051 30.2464C13.268 30.1039 13.323 29.9575 13.3781 29.823C12.3992 29.4233 11.4203 29.1028 10.5122 28.6359C5.55871 26.1035 2.63382 22.0675 1.75321 16.5438C1.70603 16.251 1.66279 15.9502 1.65492 15.6535C1.63134 14.8502 1.65492 14.134 0.762518 13.6117C-0.0198118 13.1527 -0.161339 11.9973 0.16496 11.1189C0.499121 10.2207 1.30111 9.62716 2.24069 9.5876C2.49622 9.57573 2.75569 9.58364 3.01122 9.58364C12.7766 9.58364 22.542 9.58364 32.3073 9.58364C33.5417 9.58364 34.4617 10.2326 34.7447 11.2811C35.0474 12.393 34.5993 13.4297 33.5378 14.0628C33.4592 14.1103 33.3806 14.1657 33.1565 14.3121C33.4749 14.3398 33.6361 14.3675 33.7934 14.3675C34.8823 14.3714 35.9713 14.3635 37.0603 14.3714C37.7561 14.3754 37.9841 14.6128 37.9959 15.3053C38.0038 15.7643 37.9999 16.2233 37.9959 16.6823C37.992 17.1887 37.7247 17.4815 37.2332 17.4815C36.734 17.4815 36.4902 17.161 36.4706 16.6743C36.4588 16.4409 36.4706 16.2074 36.4706 15.9146C35.417 15.9146 34.4302 15.8988 33.4435 15.9344C33.3295 15.9384 33.1525 16.2153 33.129 16.3815C32.6926 19.6816 31.3717 22.5701 29.1505 25.0312C27.1259 27.2748 24.6491 28.8219 21.7478 29.6687C21.6338 29.7003 21.5198 29.7359 21.4097 29.7715C21.3901 29.7755 21.3744 29.7913 21.2682 29.8626ZM3.11344 14.3477C3.30607 19.6182 5.46829 23.7888 9.87922 26.519C14.9034 29.6251 20.1321 29.5974 25.1248 26.4201C29.4414 23.674 31.5525 19.5431 31.7373 14.3477C22.1881 14.3477 12.7098 14.3477 3.11344 14.3477ZM11.4911 38.2511C15.1865 38.2511 18.7561 38.2511 22.3611 38.2511C22.3375 38.1047 22.3375 38.0058 22.3061 37.9187C21.4884 35.4457 20.6628 32.9766 19.8608 30.4996C19.7429 30.1316 19.5266 30.1514 19.2318 30.1554C17.9895 30.1672 16.7433 30.187 15.501 30.1316C15.0607 30.1118 14.872 30.2385 14.7108 30.6223C13.9717 32.4029 13.2051 34.1716 12.4542 35.9482C12.1397 36.6842 11.8331 37.432 11.4911 38.2511ZM17.4195 11.1229C12.5486 11.1229 7.67769 11.1229 2.80287 11.1229C2.62596 11.1229 2.44119 11.1031 2.26821 11.1347C1.82397 11.2178 1.55664 11.4908 1.56844 11.9578C1.58023 12.4207 1.84756 12.6858 2.30752 12.7373C2.46477 12.7531 2.62596 12.7452 2.78321 12.7452C12.5446 12.7452 22.31 12.7452 32.0714 12.7452C32.2287 12.7452 32.3899 12.757 32.5471 12.7373C33.0071 12.6819 33.2666 12.4168 33.2744 11.9498C33.2823 11.479 33.011 11.2139 32.5668 11.1347C32.3938 11.1031 32.213 11.1229 32.0321 11.1229C27.1652 11.1229 22.2943 11.1229 17.4195 11.1229ZM26.1312 49.453C27.4639 49.4569 28.549 48.3609 28.5372 47.0195C28.5293 45.7019 27.4639 44.6296 26.1548 44.6256C24.826 44.6217 23.7253 45.7296 23.7371 47.0551C23.7489 48.3609 24.8339 49.449 26.1312 49.453Z" fill="#82848D"/>
<path d="M7.80332 2.90428C8.165 3.17335 8.43626 3.36723 8.69966 3.57695C9.76504 4.42767 9.75325 5.66617 8.67607 6.50503C8.31046 6.78992 7.9016 6.99963 7.74435 7.52985C7.68931 7.71583 7.17431 7.89784 6.91877 7.8464C6.70255 7.80288 6.43916 7.43885 6.39591 7.18165C6.29763 6.58416 6.62393 6.1133 7.07996 5.74927C7.35515 5.52768 7.64607 5.32192 8.00382 5.05681C7.76794 4.86293 7.5871 4.7007 7.39053 4.55825C5.98312 3.54925 5.98706 2.29492 7.37087 1.26614C7.63427 1.0683 7.82691 0.755705 8.00382 0.466854C8.22004 0.11865 8.52668 -0.106891 8.88443 0.0672112C9.13603 0.189874 9.3955 0.514337 9.43874 0.78736C9.53309 1.38485 9.18714 1.8478 8.73111 2.21183C8.45591 2.42154 8.17286 2.6273 7.80332 2.90428Z" fill="#82848D"/>
<path d="M27.0474 5.02918C26.67 4.74428 26.383 4.54248 26.1078 4.31694C25.1014 3.486 25.1093 2.28707 26.1275 1.46404C26.5049 1.15937 26.9295 0.941738 27.1064 0.399648C27.1693 0.209718 27.6764 0.0277024 27.932 0.0791416C28.1482 0.122667 28.4155 0.486698 28.4588 0.743895C28.561 1.36908 28.2072 1.8439 27.7315 2.2198C27.4563 2.43743 27.1772 2.64319 26.8351 2.90434C27.1693 3.15758 27.4366 3.35147 27.6922 3.55327C28.789 4.41982 28.7693 5.65436 27.6804 6.52883C27.3462 6.79789 27.1339 7.22128 26.8037 7.49826C26.5757 7.69215 26.2101 7.90582 25.9663 7.85042C25.7304 7.79502 25.4513 7.42308 25.4081 7.15401C25.3098 6.55653 25.6557 6.09357 26.1118 5.72954C26.3909 5.51191 26.6779 5.30616 27.0474 5.02918Z" fill="#82848D"/>
<path d="M20.4781 2.89641C20.828 3.15756 21.0757 3.33958 21.3234 3.52951C22.4477 4.38815 22.4477 5.686 21.3155 6.52881C20.9538 6.79787 20.6 7.02737 20.431 7.51407C20.3602 7.71587 19.8334 7.93349 19.6172 7.85436C19.3616 7.75939 19.0825 7.36766 19.0589 7.07881C19.0078 6.51694 19.3263 6.05794 19.7862 5.72161C20.0653 5.51189 20.3445 5.29822 20.6904 5.03707C20.4113 4.8234 20.2029 4.65326 19.9828 4.49498C18.7169 3.59677 18.709 2.27122 19.9356 1.3374C20.2423 1.10395 20.4152 0.696393 20.7101 0.443154C20.9381 0.245311 21.2998 0.0197695 21.5396 0.0751656C21.7794 0.130562 22.0782 0.494593 22.1214 0.76366C22.2197 1.38489 21.8541 1.85971 21.3784 2.23166C21.1229 2.4295 20.8516 2.61943 20.4781 2.89641Z" fill="#82848D"/>
<path d="M14.3575 5.03306C13.984 4.74421 13.6813 4.53054 13.3982 4.29313C12.439 3.4978 12.4586 2.26326 13.4336 1.4798C13.8267 1.1672 14.2828 0.949577 14.4479 0.371875C14.499 0.197773 15.0494 0.00388705 15.2813 0.0869812C15.5172 0.170075 15.8317 0.621158 15.7845 0.826914C15.6705 1.29778 15.4032 1.75678 15.1044 2.15246C14.8882 2.43736 14.5304 2.61146 14.1609 2.8924C14.4361 3.10211 14.6405 3.27621 14.8567 3.42657C16.1462 4.32874 16.1462 5.67407 14.8842 6.61976C14.5933 6.83739 14.4321 7.23307 14.1491 7.47444C13.9171 7.67229 13.5673 7.9097 13.3235 7.85826C13.0798 7.81078 12.781 7.4507 12.7299 7.18164C12.6277 6.6435 12.9107 6.18055 13.3314 5.82839C13.6262 5.58306 13.9447 5.34961 14.3575 5.03306Z" fill="#82848D"/>
<path d="M16.6689 27.057C12.9459 26.7761 9.80087 25.1696 7.40277 22.1149C7.04895 21.6598 7.0804 21.189 7.44995 20.9001C7.81949 20.6113 8.24014 20.7023 8.62147 21.1771C10.8309 23.9232 13.6732 25.3951 17.1917 25.5217C17.8679 25.5455 18.2099 25.8343 18.1785 26.3527C18.151 26.8354 17.7971 27.0728 17.1406 27.057C17.0266 27.057 16.9087 27.057 16.6689 27.057Z" fill="#82848D"/>
</g>
<defs>
<clipPath id="clip0">
<rect width="38" height="51" fill="white"/>
</clipPath>
</defs>
</svg>
