
<svg width="37" height="48" viewBox="0 0 37 48" fill="none" xmlns="http://www.w3.org/2000/svg">
<g opacity="0.5">
<path d="M23.0626 25.1872H1.4787C0.665234 25.1872 0 24.5307 0 23.7321V23.1678C0 22.3693 0.665234 21.7163 1.4787 21.7163H23.0626C23.8761 21.7163 24.5413 22.3693 24.5413 23.1678V23.7321C24.5413 24.5307 23.8761 25.1872 23.0626 25.1872Z" fill="#82848D"/>
<path d="M37.0006 48H35.1423V12.5918C35.1423 6.65434 30.2217 1.82418 24.1731 1.82418C18.1246 1.82418 13.204 6.65434 13.204 12.5918V16.698H11.3457V12.5918C11.3421 5.64998 17.0978 0 24.1695 0C31.2449 0 36.997 5.64998 36.997 12.5918V48H37.0006Z" fill="#82848D"/>
<path d="M21.7216 20.9888C21.342 16.1906 17.2566 12.4109 12.271 12.4109C7.28533 12.4109 3.19993 16.1906 2.82031 20.9888H21.7216Z" fill="#82848D"/>
<path d="M4.80485 28.9562C4.80485 29.3927 4.44331 29.7476 3.99862 29.7476C3.55392 29.7476 3.19238 29.3927 3.19238 28.9562C3.19238 28.5197 3.55392 27.7424 3.99862 27.7424C4.44331 27.7424 4.80485 28.5197 4.80485 28.9562Z" fill="#82848D"/>
<path d="M13.1711 28.9562C13.1711 29.3927 12.8095 29.7476 12.3648 29.7476C11.9201 29.7476 11.5586 29.3927 11.5586 28.9562C11.5586 28.5197 11.9201 27.7424 12.3648 27.7424C12.8095 27.7424 13.1711 28.5197 13.1711 28.9562Z" fill="#82848D"/>
<path d="M9.26676 28.9562C9.26676 29.3927 8.90522 29.7476 8.46053 29.7476C8.01584 29.7476 7.6543 29.3927 7.6543 28.9562C7.6543 28.5197 8.01584 27.7424 8.46053 27.7424C8.90522 27.7424 9.26676 28.5197 9.26676 28.9562Z" fill="#82848D"/>
<path d="M17.2599 28.9562C17.2599 29.3927 16.8984 29.7476 16.4537 29.7476C16.009 29.7476 15.6475 29.3927 15.6475 28.9562C15.6475 28.5197 16.009 27.7424 16.4537 27.7424C16.8984 27.7424 17.2599 28.5197 17.2599 28.9562Z" fill="#82848D"/>
<path d="M21.3527 28.9562C21.3527 29.3927 20.9912 29.7476 20.5465 29.7476C20.1018 29.7476 19.7402 29.3927 19.7402 28.9562C19.7402 28.5197 20.1018 27.7424 20.5465 27.7424C20.9912 27.7424 21.3527 28.5197 21.3527 28.9562Z" fill="#82848D"/>
<path d="M4.80485 33.5201C4.80485 33.9567 4.44331 34.3116 3.99862 34.3116C3.55392 34.3116 3.19238 33.9567 3.19238 33.5201C3.19238 33.0836 3.55392 32.3064 3.99862 32.3064C4.44331 32.3064 4.80485 33.0801 4.80485 33.5201Z" fill="#82848D"/>
<path d="M13.1711 33.5202C13.1711 33.9567 12.8095 34.3116 12.3648 34.3116C11.9201 34.3116 11.5586 33.9567 11.5586 33.5202C11.5586 33.0836 11.9201 32.3064 12.3648 32.3064C12.8095 32.3029 13.1711 33.0801 13.1711 33.5202Z" fill="#82848D"/>
<path d="M9.26676 33.5201C9.26676 33.9567 8.90522 34.3116 8.46053 34.3116C8.01584 34.3116 7.6543 33.9567 7.6543 33.5201C7.6543 33.0836 8.01584 32.3064 8.46053 32.3064C8.90522 32.3064 9.26676 33.0801 9.26676 33.5201Z" fill="#82848D"/>
<path d="M17.2599 33.5202C17.2599 33.9567 16.8984 34.3116 16.4537 34.3116C16.009 34.3116 15.6475 33.9567 15.6475 33.5202C15.6475 33.0836 16.009 32.3064 16.4537 32.3064C16.8984 32.3029 17.2599 33.0801 17.2599 33.5202Z" fill="#82848D"/>
<path d="M21.3527 33.5202C21.3527 33.9567 20.9912 34.3116 20.5465 34.3116C20.1018 34.3116 19.7402 33.9567 19.7402 33.5202C19.7402 33.0836 20.1018 32.3064 20.5465 32.3064C20.9912 32.3029 21.3527 33.0801 21.3527 33.5202Z" fill="#82848D"/>
<path d="M4.80485 38.0807C4.80485 38.5172 4.44331 38.8721 3.99862 38.8721C3.55392 38.8721 3.19238 38.5172 3.19238 38.0807C3.19238 37.6442 3.55392 36.8669 3.99862 36.8669C4.44331 36.8669 4.80485 37.6442 4.80485 38.0807Z" fill="#82848D"/>
<path d="M13.1711 38.0807C13.1711 38.5172 12.8095 38.8721 12.3648 38.8721C11.9201 38.8721 11.5586 38.5172 11.5586 38.0807C11.5586 37.6442 11.9201 36.8669 12.3648 36.8669C12.8095 36.8669 13.1711 37.6442 13.1711 38.0807Z" fill="#82848D"/>
<path d="M9.26676 38.0807C9.26676 38.5172 8.90522 38.8721 8.46053 38.8721C8.01584 38.8721 7.6543 38.5172 7.6543 38.0807C7.6543 37.6442 8.01584 36.8669 8.46053 36.8669C8.90522 36.8669 9.26676 37.6442 9.26676 38.0807Z" fill="#82848D"/>
<path d="M17.2599 38.0807C17.2599 38.5172 16.8984 38.8721 16.4537 38.8721C16.009 38.8721 15.6475 38.5172 15.6475 38.0807C15.6475 37.6442 16.009 36.8669 16.4537 36.8669C16.8984 36.8669 17.2599 37.6442 17.2599 38.0807Z" fill="#82848D"/>
<path d="M21.3527 38.0807C21.3527 38.5172 20.9912 38.8721 20.5465 38.8721C20.1018 38.8721 19.7402 38.5172 19.7402 38.0807C19.7402 37.6442 20.1018 36.8669 20.5465 36.8669C20.9912 36.8669 21.3527 37.6442 21.3527 38.0807Z" fill="#82848D"/>
<path d="M4.80485 42.6447C4.80485 43.0812 4.44331 43.4361 3.99862 43.4361C3.55392 43.4361 3.19238 43.0812 3.19238 42.6447C3.19238 42.2081 3.55392 41.4309 3.99862 41.4309C4.44331 41.4309 4.80485 42.2081 4.80485 42.6447Z" fill="#82848D"/>
<path d="M13.1711 42.6447C13.1711 43.0812 12.8095 43.4361 12.3648 43.4361C11.9201 43.4361 11.5586 43.0812 11.5586 42.6447C11.5586 42.2082 11.9201 41.4309 12.3648 41.4309C12.8095 41.4274 13.1711 42.2082 13.1711 42.6447Z" fill="#82848D"/>
<path d="M9.26676 42.6447C9.26676 43.0812 8.90522 43.4361 8.46053 43.4361C8.01584 43.4361 7.6543 43.0812 7.6543 42.6447C7.6543 42.2081 8.01584 41.4309 8.46053 41.4309C8.90522 41.4309 9.26676 42.2081 9.26676 42.6447Z" fill="#82848D"/>
<path d="M17.2599 42.6447C17.2599 43.0812 16.8984 43.4361 16.4537 43.4361C16.009 43.4361 15.6475 43.0812 15.6475 42.6447C15.6475 42.2082 16.009 41.4309 16.4537 41.4309C16.8984 41.4274 17.2599 42.2082 17.2599 42.6447Z" fill="#82848D"/>
<path d="M21.3527 42.6447C21.3527 43.0812 20.9912 43.4361 20.5465 43.4361C20.1018 43.4361 19.7402 43.0812 19.7402 42.6447C19.7402 42.2082 20.1018 41.4309 20.5465 41.4309C20.9912 41.4274 21.3527 42.2082 21.3527 42.6447Z" fill="#82848D"/>
<path d="M4.80485 47.205C4.80485 47.6415 4.44331 47.9964 3.99862 47.9964C3.55392 47.9964 3.19238 47.6415 3.19238 47.205C3.19238 46.7684 3.55392 45.9912 3.99862 45.9912C4.44331 45.9912 4.80485 46.7684 4.80485 47.205Z" fill="#82848D"/>
<path d="M13.1711 47.205C13.1711 47.6415 12.8095 47.9964 12.3648 47.9964C11.9201 47.9964 11.5586 47.6415 11.5586 47.205C11.5586 46.7684 11.9201 45.9912 12.3648 45.9912C12.8095 45.9912 13.1711 46.7684 13.1711 47.205Z" fill="#82848D"/>
<path d="M9.26676 47.205C9.26676 47.6415 8.90522 47.9964 8.46053 47.9964C8.01584 47.9964 7.6543 47.6415 7.6543 47.205C7.6543 46.7684 8.01584 45.9912 8.46053 45.9912C8.90522 45.9912 9.26676 46.7684 9.26676 47.205Z" fill="#82848D"/>
<path d="M17.2599 47.205C17.2599 47.6415 16.8984 47.9964 16.4537 47.9964C16.009 47.9964 15.6475 47.6415 15.6475 47.205C15.6475 46.7684 16.009 45.9912 16.4537 45.9912C16.8984 45.9912 17.2599 46.7684 17.2599 47.205Z" fill="#82848D"/>
<path d="M21.3527 47.205C21.3527 47.6415 20.9912 47.9964 20.5465 47.9964C20.1018 47.9964 19.7402 47.6415 19.7402 47.205C19.7402 46.7684 20.1018 45.9912 20.5465 45.9912C20.9912 45.9912 21.3527 46.7684 21.3527 47.205Z" fill="#82848D"/>
</g>
</svg>