<svg width="32" height="40" viewBox="0 0 32 40" fill="none" xmlns="http://www.w3.org/2000/svg">
<g opacity="0.5" clip-path="url(#clip0)">
<path d="M9.24116 22.325C8.62084 22.325 8.11816 22.8266 8.11816 23.4456V32.2547C8.11816 32.8737 8.62084 33.3754 9.24116 33.3754C9.86148 33.3754 10.3642 32.8737 10.3642 32.2547V23.4456C10.3677 22.8266 9.86504 22.325 9.24116 22.325Z" fill="#82848D"/>
<path d="M17.7509 22.325C17.1306 22.325 16.6279 22.8266 16.6279 23.4456V32.2547C16.6279 32.8737 17.1306 33.3754 17.7509 33.3754C18.3712 33.3754 18.8739 32.8737 18.8739 32.2547V23.4456C18.8775 22.8266 18.3712 22.325 17.7509 22.325Z" fill="#82848D"/>
<path d="M27.508 13.9038H26.2032V12.6265C26.7023 11.8011 26.9911 10.837 26.9911 9.80521C26.9911 7.02659 24.8984 4.72472 22.2032 4.38317C21.7041 1.88562 19.4866 0 16.8378 0C15.2977 0 13.8574 0.636841 12.8307 1.74331C12.303 1.57965 11.754 1.49426 11.2014 1.49426C9.15508 1.49426 7.29055 2.6541 6.35651 4.41163C6.06417 4.36538 5.76827 4.34048 5.47237 4.34048C2.45633 4.34048 0 6.79178 0 9.80521C0 10.837 0.28877 11.8011 0.787879 12.6265V33.2651C0.787879 36.9795 3.81462 40 7.53654 40H19.4581C22.8948 40 25.7362 37.4242 26.1533 34.1048H27.5116C29.9893 34.1048 32.0071 32.0911 32.0071 29.6184V18.3901C32 15.9139 29.9857 13.9038 27.508 13.9038ZM5.47594 6.58543C5.87166 6.58543 6.25668 6.65659 6.62389 6.79534C6.91622 6.90563 7.24421 6.8914 7.52585 6.75265C7.80749 6.61389 8.01783 6.36129 8.10339 6.05888C8.49911 4.6927 9.77184 3.73566 11.2014 3.73566C11.7184 3.73566 12.2175 3.85662 12.6774 4.09143C13.1907 4.35471 13.8217 4.18749 14.1355 3.7072C14.7344 2.78929 15.7469 2.24139 16.8378 2.24139C18.6132 2.24139 20.057 3.67873 20.0642 5.44695C20.0642 5.45762 20.0642 5.46473 20.0642 5.47185C20.0642 5.78493 20.1961 6.08379 20.4242 6.29369C20.6524 6.50716 20.9626 6.61389 21.2727 6.58899C21.3654 6.58187 21.4474 6.57832 21.5187 6.57832C23.2977 6.57832 24.7451 8.02277 24.7451 9.7981C24.7451 11.5734 23.2977 13.0179 21.5187 13.0179H11.9679C11.3476 13.0179 10.8449 13.5195 10.8449 14.1386V18.2549C10.8449 18.8704 10.3422 19.3721 9.72549 19.3721C9.10873 19.3721 8.60606 18.8704 8.60606 18.2549V14.1457C8.60606 13.5266 8.10339 13.025 7.48307 13.025H5.47594C3.69697 13.025 2.24955 11.5805 2.24955 9.80521C2.24955 8.02989 3.69697 6.58543 5.47594 6.58543ZM23.9537 33.2651C23.9537 35.7414 21.9358 37.7551 19.4545 37.7551H7.53654C5.05526 37.7551 3.03743 35.7414 3.03743 33.2651V14.6936C3.77184 15.06 4.59893 15.2664 5.47594 15.2664H6.35651V18.262C6.35651 20.1156 7.86809 21.6241 9.72549 21.6241C11.5829 21.6241 13.0945 20.1156 13.0945 18.262V15.2664H21.5187C22.3957 15.2664 23.2228 15.06 23.9572 14.6936V33.2651H23.9537ZM29.7504 29.622C29.7504 30.8565 28.7415 31.8634 27.5045 31.8634H26.2032V16.1487H27.5045C28.7415 16.1487 29.7504 17.1556 29.7504 18.3901V29.622Z" fill="#82848D"/>
</g>
<defs>
<clipPath id="clip0">
<rect width="32" height="40" fill="white"/>
</clipPath>
</defs>
</svg>
