<svg width="38" height="38" viewBox="0 0 38 38" fill="none" xmlns="http://www.w3.org/2000/svg">
<g opacity="0.5">
<path d="M27.6652 21.1711H6.78125V26.444H27.6652V21.1711Z" fill="#82848D"/>
<path d="M29.1669 21.1711H28.167V26.444H29.1669V21.1711Z" fill="#82848D"/>
<path d="M30.6689 21.1711H29.6689V26.444H30.6689V21.1711Z" fill="#82848D"/>
<path d="M28.6934 11.5457H26.313L26.4583 11.0198C26.524 10.7949 26.569 10.4662 26.569 10.3312C26.569 8.73276 25.3304 7.4353 23.8045 7.4353H22.0642L21.6006 9.24483H23.7146C24.4792 9.24483 25.0985 9.89183 25.0985 10.6911C25.0985 10.8329 25.0812 10.9713 25.0432 11.1028L24.7145 12.2619C24.7007 12.3103 24.6937 12.3622 24.6937 12.4175C24.6937 12.7151 24.9255 12.9608 25.2127 12.9608H28.2955C29.0428 12.9608 29.6483 13.5905 29.6483 14.3758C29.6483 14.3931 29.6483 14.4139 29.6483 14.4312L29.6621 19.9636H30.1431L30.797 14.0333C30.8074 13.9434 30.8143 13.8499 30.8143 13.7565C30.8039 12.5352 29.8594 11.5457 28.6934 11.5457Z" fill="#82848D"/>
<path d="M28.6726 19.9635H29.1501V16.7389C29.1501 15.8566 28.4685 15.1439 27.6277 15.1439H24.8633C23.4032 15.1439 22.2026 13.971 22.085 12.4728C22.0712 12.286 21.9224 12.1407 21.7425 12.1407H20.9778C18.8327 12.1407 17.0924 10.3208 17.0924 8.07186C17.0924 7.22419 17.3415 6.44225 17.7636 5.78833H15.7672C15.4524 6.48031 15.2725 7.25532 15.2725 8.07186C15.2725 11.0024 17.5422 13.3793 20.3447 13.3793H20.7322C21.3411 15.0332 22.8773 16.2095 24.673 16.2095H27.434C27.9633 16.2095 28.3993 16.6386 28.4443 17.1818L28.6726 19.9635Z" fill="#82848D"/>
<path d="M17.8876 0H20.1124C20.3822 0.031139 20.6486 0.0622781 20.9151 0.0899572C24.9908 0.543203 28.5856 2.09669 31.6407 4.84039C34.9034 7.77092 36.9378 11.4038 37.7024 15.7287C37.827 16.4414 37.8997 17.1645 37.9965 17.8842V20.1124C37.9654 20.3788 37.9343 20.6486 37.9031 20.9151C37.4464 25.0012 35.886 28.6099 33.1319 31.6684C30.2049 34.9138 26.5824 36.9413 22.2679 37.7059C21.5517 37.8339 20.8286 37.9031 20.1089 38H17.8876C17.6178 37.9689 17.3514 37.9377 17.0849 37.91C13.0092 37.4568 9.41437 35.9033 6.35928 33.1596C3.0966 30.2291 1.06219 26.5962 0.294091 22.2713C0.169535 21.5551 0.096877 20.832 0 20.1124V17.8876C0.031139 17.6212 0.0622781 17.3514 0.0899572 17.0849C0.539743 13.0784 2.04826 9.52854 4.71929 6.50114C7.66366 3.15888 11.3346 1.07603 15.7287 0.294091C16.4414 0.169535 17.168 0.096877 17.8876 0ZM7.96121 31.5058C14.8948 37.654 25.7208 37.09 31.8794 29.6132C37.9343 22.2609 36.0659 12.767 31.4816 7.99235C23.6449 15.8221 15.8117 23.6553 7.96121 31.5058ZM29.762 6.26587C23.4961 0.847674 13.4936 0.743877 7.0651 7.33497C0.480925 14.0887 1.18328 23.9909 6.27278 29.7551C14.0956 21.9323 21.9184 14.106 29.762 6.26587Z" fill="#82848D"/>
</g>
</svg>
