<svg width="42" height="37" viewBox="0 0 42 37" fill="none" xmlns="http://www.w3.org/2000/svg">
<g opacity="0.5">
<path d="M20.4777 10.4082C19.6503 9.03301 18.8516 7.63838 17.9827 6.29239C17.5865 5.68264 17.5482 5.16371 17.9795 4.59613C18.727 3.61664 19.3947 2.56255 20.2381 1.68036C21.1198 0.756013 21.9983 0.999264 22.3561 2.24471C23.1069 4.84586 23.765 7.47297 24.4806 10.1487C27.1161 10.4341 28.87 12.0299 30.0297 14.3164C31.611 17.4365 34.0996 18.909 37.5051 18.9479C38.3549 18.9576 39.2047 19.0582 40.0545 19.1295C41.3675 19.2398 42.1789 20.0701 41.9649 21.2993C41.147 26.0443 37.8981 30.8542 33.1381 32.2715C31.5439 32.7451 30.0073 32.664 28.426 32.2326C25.4645 31.425 23.6691 32.2391 22.19 34.9927C21.8514 35.6219 21.5798 36.29 21.2508 36.9971C14.2098 34.9635 7.19115 32.9332 0 30.8542C0.217236 29.6023 0.421693 28.3276 0.664486 27.0595C1.52385 22.5804 3.30326 18.5944 6.76306 15.5359C7.49783 14.8872 8.58721 14.4397 8.9514 13.6353C9.30281 12.8602 8.83958 11.7412 8.88111 10.7812C9.0057 7.79406 9.61269 4.91073 10.8874 2.19281C10.9736 2.0047 11.0535 1.81334 11.1557 1.63496C12.3473 -0.486185 13.4463 -0.554295 14.7018 1.50522C16.3821 4.25882 17.9859 7.06431 19.6311 9.83736C19.8004 10.1228 20.04 10.366 20.2477 10.6287C20.3243 10.5541 20.401 10.4828 20.4777 10.4082ZM26.113 15.7727C25.3655 15.7727 24.8192 16.3111 24.8224 17.0635C24.8256 17.91 25.3335 18.3252 26.0875 18.4127C26.7903 18.4938 27.5378 17.7414 27.4516 17.0408C27.3589 16.2786 26.9564 15.7597 26.113 15.7727Z" fill="#82848D"/>
</g>
</svg>
