<svg width="39" height="41" viewBox="0 0 39 41" fill="none" xmlns="http://www.w3.org/2000/svg">
<g opacity="0.5" clip-path="url(#clip0)">
<path d="M36.7088 28.6675H2.2945C1.03039 28.6675 0 27.6295 0 26.3562V9.25515C0 7.98178 1.03039 6.94385 2.2945 6.94385H36.7088C37.9729 6.94385 39.0033 7.98178 39.0033 9.25515V26.3562C39 27.6295 37.9729 28.6675 36.7088 28.6675ZM2.2945 8.48251C1.87313 8.48251 1.53077 8.82738 1.53077 9.25184V26.3529C1.53077 26.7773 1.87313 27.1222 2.2945 27.1222H36.7088C37.1302 27.1222 37.4725 26.7773 37.4725 26.3529V9.25515C37.4725 8.8307 37.1302 8.48582 36.7088 8.48582H2.2945V8.48251Z" fill="#82848D"/>
<path d="M31.5074 8.18408H7.49578C7.23571 8.18408 7.02832 7.97185 7.02832 7.7132V0.470883C7.02832 0.208913 7.23901 0 7.49578 0H26.0362C26.1514 0 26.2633 0.043109 26.3489 0.122695L31.8202 5.10013C31.9189 5.18966 31.9749 5.31567 31.9749 5.45163V7.7132C31.9749 7.97517 31.7642 8.18408 31.5074 8.18408ZM7.96324 7.24232H31.04V5.66055L25.8551 0.945082H7.96324V7.24232Z" fill="#82848D"/>
<path d="M31.5074 41.0001H7.49578C7.23571 41.0001 7.02832 40.7879 7.02832 40.5292V27.895C7.02832 27.633 7.23901 27.4241 7.49578 27.4241H31.5074C31.7675 27.4241 31.9749 27.6363 31.9749 27.895V40.5292C31.9749 40.7912 31.7642 41.0001 31.5074 41.0001ZM7.96324 40.0583H31.04V28.3692H7.96324V40.0583Z" fill="#82848D"/>
<path d="M34.3357 28.6674H4.6651C4.24373 28.6674 3.90137 28.3226 3.90137 27.8981V24.97C3.90137 24.5456 4.24373 24.2007 4.6651 24.2007H34.3357C34.757 24.2007 35.0994 24.5456 35.0994 24.97V27.8981C35.1027 28.3226 34.7603 28.6674 34.3357 28.6674ZM5.42884 27.1255H33.5719V25.7393H5.42884V27.1255Z" fill="#82848D"/>
<path d="M5.14569 14.3487C4.04288 14.3487 3.14746 13.4467 3.14746 12.3359C3.14746 11.225 4.04288 10.323 5.14569 10.323C6.2485 10.323 7.14392 11.225 7.14392 12.3359C7.14392 13.4434 6.2485 14.3487 5.14569 14.3487ZM5.14569 11.2648C4.55972 11.2648 4.08567 11.7456 4.08567 12.3325C4.08567 12.9195 4.56301 13.4003 5.14569 13.4003C5.73166 13.4003 6.2057 12.9195 6.2057 12.3325C6.2057 11.7456 5.73166 11.2648 5.14569 11.2648Z" fill="#82848D"/>
<path d="M9.42791 14.3487C8.3251 14.3487 7.42969 13.4467 7.42969 12.3359C7.42969 11.225 8.3251 10.323 9.42791 10.323C10.5307 10.323 11.4261 11.225 11.4261 12.3359C11.4261 13.4434 10.5307 14.3487 9.42791 14.3487ZM9.42791 11.2648C8.84194 11.2648 8.3679 11.7456 8.3679 12.3325C8.3679 12.9195 8.84524 13.4003 9.42791 13.4003C10.0139 13.4003 10.4879 12.9195 10.4879 12.3325C10.4879 11.7456 10.0139 11.2648 9.42791 11.2648Z" fill="#82848D"/>
<path d="M35.2773 11.2648H26.7116C26.4515 11.2648 26.2441 11.0525 26.2441 10.7939C26.2441 10.5352 26.4548 10.323 26.7116 10.323H35.2773C35.5374 10.323 35.7448 10.5352 35.7448 10.7939C35.7448 11.0525 35.5341 11.2648 35.2773 11.2648Z" fill="#82848D"/>
<path d="M35.2768 14.3487H28.2419C27.9818 14.3487 27.7744 14.1365 27.7744 13.8779C27.7744 13.6192 27.9851 13.407 28.2419 13.407H35.2768C35.5369 13.407 35.7443 13.6192 35.7443 13.8779C35.7443 14.1365 35.5336 14.3487 35.2768 14.3487Z" fill="#82848D"/>
<path d="M27.6824 31.7582H11.318C11.058 31.7582 10.8506 31.5459 10.8506 31.2873C10.8506 31.0253 11.0613 30.8164 11.318 30.8164H27.6824C27.9425 30.8164 28.1499 31.0286 28.1499 31.2873C28.1532 31.5459 27.9425 31.7582 27.6824 31.7582Z" fill="#82848D"/>
<path d="M27.6824 34.9913H11.318C11.058 34.9913 10.8506 34.7791 10.8506 34.5204C10.8506 34.2585 11.0613 34.0496 11.318 34.0496H27.6824C27.9425 34.0496 28.1499 34.2618 28.1499 34.5204C28.1532 34.7824 27.9425 34.9913 27.6824 34.9913Z" fill="#82848D"/>
<path d="M27.6824 38.2279H11.318C11.058 38.2279 10.8506 38.0157 10.8506 37.757C10.8506 37.495 11.0613 37.2861 11.318 37.2861H27.6824C27.9425 37.2861 28.1499 37.4984 28.1499 37.757C28.1532 38.0157 27.9425 38.2279 27.6824 38.2279Z" fill="#82848D"/>
<path d="M31.5306 5.95241H26.0231C25.7631 5.95241 25.5557 5.74018 25.5557 5.48153V0.703061C25.5557 0.441091 25.7664 0.232178 26.0231 0.232178C26.2832 0.232178 26.4906 0.444407 26.4906 0.703061V5.00733H31.5273C31.7874 5.00733 31.9948 5.21956 31.9948 5.47821C31.998 5.74018 31.7874 5.95241 31.5306 5.95241Z" fill="#82848D"/>
</g>
<defs>
<clipPath id="clip0">
<rect width="39" height="41" fill="white"/>
</clipPath>
</defs>
</svg>
