<svg width="42" height="33" viewBox="0 0 42 33" fill="none" xmlns="http://www.w3.org/2000/svg">
<g opacity="0.5" clip-path="url(#clip0)">
<path d="M20.7861 32.9999C23.142 32.9999 25.0518 31.102 25.0518 28.7607C25.0518 26.4195 23.142 24.5215 20.7861 24.5215C18.4303 24.5215 16.5205 26.4195 16.5205 28.7607C16.5205 31.102 18.4303 32.9999 20.7861 32.9999Z" fill="#82848D"/>
<path d="M28.5051 23.0503C28.0472 23.0503 27.5894 22.8721 27.2422 22.5194C25.5329 20.7714 23.2398 19.8083 20.7865 19.8083C18.4133 19.8083 16.1737 20.7183 14.4796 22.3715C13.7852 23.0465 12.6711 23.0389 11.992 22.3488C11.3128 21.6587 11.3205 20.5515 12.0149 19.8765C14.369 17.5787 17.4862 16.3123 20.7865 16.3123C24.1975 16.3123 27.3871 17.6508 29.7641 20.0813C30.4433 20.7752 30.4242 21.8786 29.7298 22.5536C29.3902 22.8872 28.9476 23.0503 28.5051 23.0503Z" fill="#82848D"/>
<path d="M7.16139 17.3854C6.7188 17.3854 6.27622 17.2185 5.93283 16.8886C5.23842 16.2137 5.22316 15.1065 5.90231 14.4164C9.83599 10.4123 15.1051 8.20923 20.7328 8.20923C26.2422 8.20923 31.4312 10.3326 35.342 14.1927C36.0326 14.8714 36.0364 15.9786 35.3496 16.6649C34.6667 17.3512 33.5526 17.355 32.862 16.6725C29.6151 13.4684 25.3075 11.7053 20.7328 11.7053C16.0589 11.7053 11.6865 13.5367 8.41666 16.8583C8.07327 17.211 7.61542 17.3854 7.16139 17.3854Z" fill="#82848D"/>
<path d="M40.2404 11.7053C39.7826 11.7053 39.3247 11.5271 38.9814 11.1744C34.132 6.22234 27.6305 3.49604 20.6789 3.49604C14.0439 3.49604 7.75607 6.01379 2.97918 10.5867C2.28096 11.2578 1.16686 11.2351 0.491533 10.5412C-0.183794 9.84729 -0.160902 8.74009 0.537318 8.06894C5.97809 2.86281 13.1282 0 20.6789 0C28.5882 0 35.9824 3.10169 41.4995 8.74009C42.1787 9.43399 42.1634 10.5374 41.4652 11.2123C41.1256 11.5422 40.683 11.7053 40.2404 11.7053Z" fill="#82848D"/>
</g>
<defs>
<clipPath id="clip0">
<rect width="42" height="33" fill="white"/>
</clipPath>
</defs>
</svg>
