<svg width="36" height="36" viewBox="0 0 36 36" fill="none" xmlns="http://www.w3.org/2000/svg">
<g opacity="0.5" clip-path="url(#clip0)">
<path d="M35.7377 17.1546C35.6175 15.9722 34.8038 15.5319 33.6757 15.5349C27.2493 15.538 20.8199 15.4888 14.3935 15.5688C13.0404 15.5842 12.7538 15.1623 12.7784 13.9091C12.8524 10.0877 12.8216 6.2632 12.8 2.43872C12.7908 0.85288 12.2298 0.280132 10.7041 0.267815C7.90856 0.24626 5.10993 0.240101 2.31438 0.267815C0.850344 0.280132 0.273974 0.862118 0.26781 2.34018C0.252399 7.53494 0.292467 12.7328 0.246234 17.9276C0.236988 19.0269 0.683905 19.2547 1.65171 19.2147C3.05103 19.1562 4.45651 19.1993 5.96678 19.1993C5.96678 21.1824 5.95445 22.9437 5.96986 24.702C5.98219 26.0446 6.62329 26.8113 8.02877 26.839C8.35856 26.8452 8.68528 26.8975 9.15377 26.9437C9.15377 29.4041 9.19692 31.7967 9.13527 34.1862C9.10754 35.2794 9.36336 35.7782 10.5839 35.7536C14.3103 35.6858 18.0428 35.6858 21.7692 35.7413C22.8572 35.7566 23.1068 35.3256 23.0729 34.3494C23.0144 32.7359 23.0575 31.1223 23.0575 29.3825C28.8305 28.2647 32.7942 25.4749 33.2719 19.2609C33.5647 19.2301 33.7558 19.2116 33.9469 19.1901C35.1613 19.0577 35.864 18.4048 35.7377 17.1546ZM3.60274 1.32401C5.55993 1.32709 7.52021 1.33325 9.4774 1.32401C11.8291 1.31477 11.8322 1.52109 11.8322 3.96296C8.50034 3.96296 4.91267 3.96296 1.46986 3.96296C1.46986 1.52109 1.24486 1.31785 3.60274 1.32401ZM1.53151 17.9891V17.9799C1.49144 17.9799 1.45445 17.9799 1.41438 17.9799C1.41438 13.7428 1.41438 5.04995 1.41438 5.04995H1.53151H11.8353V17.9922H1.53151V17.9891ZM28.1092 26.3463C26.1336 27.5965 23.9729 28.3263 21.5873 28.2555C20.3637 28.2185 19.137 28.2093 17.9164 28.274C17.5589 28.2924 16.8685 28.2832 16.8685 28.7944C16.8685 29.167 17.525 29.324 17.864 29.3425C19.1308 29.4072 20.4007 29.3702 21.8031 29.3702C21.8031 31.1439 21.8031 32.8159 21.8031 34.5804C18.0058 34.5804 14.2579 34.5804 10.2788 34.5804C10.2788 32.1939 10.2017 29.8629 10.3065 27.538C10.3682 26.1585 10.0014 25.5057 8.53733 25.7243C7.45548 25.8844 7.04863 25.3764 7.09178 24.2924C7.15343 22.682 7.10719 21.0684 7.10719 19.3256C15.4291 19.3256 23.674 19.3256 32.1038 19.3256C31.9188 22.3833 30.6428 24.7451 28.1092 26.3463ZM33.6017 18.0446C26.7562 18.0877 19.9075 17.9922 13.0096 17.9922C13.0096 17.0253 12.8432 16.6004 13.8418 16.6035C20.4007 16.6219 26.9596 16.6035 33.5154 16.6466C33.8853 16.6496 34.625 16.8159 34.625 17.3179C34.6219 17.9891 33.9438 18.0415 33.6017 18.0446Z" fill="#82848D"/>
<path d="M10.5064 36C9.91775 36 9.52323 35.8768 9.26124 35.6151C8.90679 35.2579 8.87288 34.6882 8.88521 34.1801C8.93145 32.4927 8.9222 30.836 8.91295 29.0839C8.90987 28.4496 8.90679 27.8091 8.90679 27.1655C8.83282 27.1563 8.76193 27.1501 8.69104 27.1409C8.44138 27.1132 8.22871 27.0885 8.0222 27.0854C6.53042 27.0547 5.73521 26.2325 5.72288 24.7021C5.71056 23.4827 5.71364 22.2664 5.71672 20.9761C5.71672 20.4773 5.7198 19.9692 5.7198 19.4457C5.34686 19.4457 4.97699 19.4426 4.6133 19.4396C3.59309 19.4303 2.63145 19.4211 1.66056 19.4642C1.20747 19.4827 0.698912 19.4611 0.366035 19.1409C0.110213 18.8945 -0.00691002 18.5096 -0.000745638 17.9307C0.0269941 14.8114 0.0239119 11.6459 0.0208297 8.58199C0.0177475 6.50346 0.0146653 4.42186 0.0208297 2.34026C0.0269941 0.729792 0.711241 0.0338722 2.3109 0.0184757C4.73967 -0.00615858 7.40576 -0.00615858 10.7037 0.0184757C12.3804 0.0307929 13.0338 0.708237 13.0431 2.43572L13.0493 3.7321C13.0677 7.06697 13.0862 10.5189 13.0215 13.9092C13.0092 14.5343 13.0832 14.8791 13.265 15.0608C13.4499 15.2456 13.7951 15.3226 14.39 15.3164C18.9393 15.261 23.5626 15.2702 28.0349 15.2794C29.915 15.2825 31.7921 15.2856 33.6722 15.2856H33.6753C35.426 15.2856 35.8945 16.2864 35.9808 17.127C36.1164 18.4542 35.4013 19.2764 33.9712 19.4365C33.8417 19.4519 33.7154 19.4642 33.5551 19.4796L33.4965 19.4858C33.0003 24.9915 29.6623 28.2987 23.3006 29.5858C23.3006 30.0385 23.2975 30.485 23.2945 30.9253C23.2852 32.1047 23.276 33.2194 23.3191 34.3433C23.3345 34.7929 23.3068 35.2979 22.9862 35.6274C22.7366 35.883 22.3513 35.9938 21.7657 35.9877C17.8297 35.9292 14.1743 35.9323 10.5897 36C10.5619 36 10.5342 36 10.5064 36ZM3.34035 18.9376C3.75953 18.9376 4.18179 18.9407 4.61638 18.9438C5.05713 18.9469 5.50713 18.953 5.9633 18.953H6.20987V19.1994C6.20987 19.8122 6.20987 20.4003 6.20679 20.9761C6.20371 22.2664 6.20062 23.4827 6.21295 24.699C6.22528 25.9646 6.80165 26.5681 8.02836 26.5928C8.25645 26.5989 8.48145 26.6236 8.74343 26.6513C8.87289 26.6667 9.01467 26.6821 9.17186 26.6975L9.39377 26.719V26.9438C9.39377 27.6613 9.39686 28.3726 9.39994 29.0808C9.40919 30.8391 9.41843 32.4988 9.3722 34.1925C9.35679 34.7683 9.42768 35.0885 9.60645 35.2702C9.77905 35.4426 10.0842 35.5196 10.5712 35.5104C14.1619 35.4457 17.8236 35.4396 21.7657 35.4981C22.1972 35.5042 22.4777 35.4334 22.6256 35.2856C22.7767 35.1316 22.8352 34.8453 22.8198 34.3618C22.7797 33.2286 22.789 32.1078 22.7951 30.9222C22.7982 30.4172 22.8013 29.9092 22.8013 29.3857V29.1824L23.0017 29.1424C29.4095 27.8984 32.5934 24.7544 33.0157 19.2425L33.0311 19.0362L33.4996 18.99C33.6568 18.9746 33.7832 18.9623 33.9064 18.9469C35.0561 18.8176 35.5862 18.2202 35.4814 17.1763C35.3859 16.234 34.7941 15.7783 33.666 15.7783H33.663C31.7828 15.7814 29.9027 15.7752 28.0225 15.7721C23.5503 15.7629 18.9301 15.7567 14.3838 15.8091C13.6349 15.8122 13.1941 15.6982 12.9044 15.4057C12.5469 15.0454 12.5068 14.4665 12.5191 13.8968C12.5869 10.5096 12.5654 7.06389 12.5469 3.7321L12.5407 2.43264C12.5345 0.985373 12.0845 0.517321 10.6883 0.508083C7.39343 0.483449 4.72734 0.483449 2.30165 0.508083C0.99172 0.52348 0.520145 1.00385 0.51398 2.34026C0.507816 4.42186 0.510898 6.50038 0.510898 8.58199C0.51398 11.6459 0.517063 14.8145 0.489323 17.9276C0.486241 18.3557 0.557131 18.6359 0.708158 18.7806C0.862268 18.9315 1.15199 18.9869 1.63898 18.9654C2.2061 18.9438 2.77015 18.9376 3.34035 18.9376ZM22.0493 34.8237H10.0318V34.5774C10.0318 33.8691 10.0256 33.164 10.0195 32.4619C10.004 30.8391 9.98864 29.164 10.0626 27.5227C10.0965 26.7929 9.99788 26.3526 9.75439 26.1339C9.53247 25.9338 9.1472 25.8814 8.57391 25.9646C7.99446 26.0508 7.56912 25.9646 7.27323 25.6998C6.95884 25.4165 6.81706 24.9546 6.8448 24.2802C6.88795 23.1655 6.87871 22.0539 6.86946 20.8807C6.86638 20.3726 6.86021 19.8553 6.86021 19.3256V19.0793H32.3654L32.3499 19.341C32.1558 22.5281 30.7719 24.9546 28.2414 26.5558C26.0623 27.9323 23.8832 28.5697 21.5808 28.5019C20.1013 28.4588 18.9732 28.465 17.9284 28.5204L17.8421 28.5235C17.3027 28.5481 17.1116 28.6189 17.1116 28.7945C17.1116 28.9084 17.4814 29.0747 17.876 29.0962C18.7821 29.1424 19.6914 29.1363 20.6561 29.127C21.029 29.1239 21.4112 29.1209 21.8027 29.1209H22.0493V34.8237ZM10.5249 34.331H21.5561V29.6135C21.251 29.6135 20.952 29.6166 20.6592 29.6197C19.6883 29.6259 18.7698 29.6351 17.8482 29.5858C17.4229 29.5643 16.6184 29.3703 16.6184 28.7914C16.6184 28.0831 17.429 28.0462 17.8205 28.0308L17.9006 28.0277C18.9609 27.9723 20.1013 27.9661 21.5931 28.0092C23.7969 28.077 25.8835 27.4611 27.9763 26.137C30.3311 24.6497 31.5979 22.4973 31.8383 19.5689H7.35336C7.35336 20.0123 7.35953 20.4465 7.36261 20.8745C7.37186 22.057 7.3811 23.1717 7.33795 24.2987C7.31946 24.8099 7.40884 25.1547 7.60302 25.3303C7.78179 25.4904 8.08384 25.5396 8.50302 25.475C9.23042 25.3672 9.74823 25.4596 10.0873 25.7644C10.454 26.0939 10.5989 26.642 10.5558 27.5443C10.4818 29.1701 10.4972 30.7652 10.5126 32.4557C10.5188 33.0778 10.5249 33.7028 10.5249 34.331ZM29.8626 18.3002C27.0424 18.3002 24.2191 18.2848 21.4575 18.2694C18.6897 18.254 15.8294 18.2386 13.0061 18.2386H12.7595V17.9923C12.7595 17.863 12.7564 17.7429 12.7534 17.6351C12.741 17.1948 12.7318 16.8468 12.966 16.6097C13.1356 16.4342 13.413 16.3572 13.8383 16.3603C16.3503 16.3664 18.8623 16.3695 21.3773 16.3695C25.3564 16.3726 29.4681 16.3757 33.515 16.4003C34.039 16.4034 34.8681 16.6559 34.8681 17.321C34.8681 17.6813 34.7047 18.2879 33.6013 18.2941C32.3592 18.2971 31.1109 18.3002 29.8626 18.3002ZM13.2496 17.7429C15.9958 17.7429 18.7729 17.7583 21.4606 17.7737C25.4397 17.7983 29.5575 17.8199 33.5982 17.7952C34.2825 17.7921 34.3749 17.5489 34.3749 17.3149C34.3749 17.0346 33.8201 16.8899 33.5119 16.8868C29.4681 16.8591 25.3534 16.8591 21.3773 16.856C18.8654 16.853 16.3503 16.853 13.8383 16.8468C13.4931 16.856 13.3667 16.9022 13.3205 16.9484C13.2342 17.0377 13.2404 17.2933 13.2496 17.6166C13.2465 17.6597 13.2496 17.6998 13.2496 17.7429ZM12.0814 18.2356L1.16741 18.2263V4.8037H12.0814V18.2356ZM1.77768 17.7429H11.5883V5.29638H1.66056V17.7336L1.77768 17.7429ZM12.0814 4.20631H1.22288V3.95997C1.22288 3.75058 1.2198 3.55658 1.2198 3.37798C1.21056 2.3649 1.20747 1.80754 1.55268 1.45958C1.88247 1.12702 2.42186 1.06851 3.60542 1.07775H4.40062C6.09275 1.08083 7.78487 1.08391 9.47699 1.07775C10.6914 1.06851 11.2986 1.13318 11.6623 1.49654C12.0784 1.90916 12.0784 2.59584 12.0784 3.95997V4.20631H12.0814ZM1.71604 3.71363H11.5883C11.5883 2.67898 11.5698 2.09392 11.3171 1.8445C11.0767 1.60431 10.528 1.5612 9.48008 1.57044C7.78795 1.5766 6.09275 1.57352 4.40062 1.57044H3.60542C2.63453 1.57044 2.10747 1.60431 1.90405 1.80754C1.70371 2.01078 1.70679 2.52502 1.71295 3.3749C1.71604 3.48268 1.71604 3.59661 1.71604 3.71363Z" fill="#82848D"/>
</g>
<defs>
<clipPath id="clip0">
<rect width="36" height="36" fill="white"/>
</clipPath>
</defs>
</svg>
