<svg width="45" height="32" viewBox="0 0 45 32" fill="none" xmlns="http://www.w3.org/2000/svg">
<g opacity="0.5" clip-path="url(#clip0)">
<path d="M22.417 31.9992C16.49 31.9992 10.5664 31.9992 4.63935 31.9992C3.65444 31.9992 2.71525 31.8312 1.88863 31.2676C0.569548 30.3679 -0.0671284 29.1146 0.00674007 27.5218C0.0595033 26.3946 0.435881 25.3899 1.2625 24.5917C1.50522 24.3572 1.78662 24.1541 2.07858 23.9826C8.34333 20.3209 14.6116 16.6661 20.8834 13.0149C21.0628 12.9099 21.1472 12.8083 21.1296 12.5948C21.1085 12.3287 21.1155 12.0592 21.1261 11.7931C21.1402 11.4186 21.0065 11.1035 20.7216 10.8759C20.3311 10.5679 19.9266 10.2703 19.5115 9.99376C18.3402 9.21661 17.6156 8.14889 17.3271 6.78361C17.0106 5.27831 17.3588 3.89202 18.1362 2.59676C18.8467 1.41702 19.8281 0.559348 21.1824 0.205776C24.5416 -0.665901 27.6758 1.25249 28.3617 4.56066C28.4918 5.18729 28.4848 5.79991 28.0592 6.33552C27.6652 6.83262 27.1481 7.08467 26.5115 6.95865C25.8607 6.82912 25.5617 6.34252 25.4245 5.7404C25.3718 5.50235 25.3647 5.2538 25.312 5.01575C25.0974 3.99004 24.4431 3.38792 23.4336 3.14987C22.2236 2.86632 20.9432 3.46844 20.4965 4.56416C20.0146 5.7404 20.3698 7.27371 21.7593 7.91784C22.6351 8.32393 23.3633 8.90154 23.7924 9.79072C23.9964 10.2108 24.0527 10.6589 24.0562 11.1175C24.0597 11.6321 24.0632 12.1432 24.0527 12.6578C24.0492 12.8153 24.1019 12.8994 24.2391 12.9799C28.3511 15.3884 32.4561 17.8038 36.5646 20.2193C38.6751 21.4586 40.7857 22.7013 42.8962 23.9406C43.962 24.5672 44.6937 25.4389 44.9223 26.6712C45.2143 28.2605 44.757 30.1439 43.2339 31.1836C42.5409 31.6562 41.7636 31.8942 40.9369 31.9642C40.5746 31.9957 40.2123 32.0027 39.85 32.0027C34.0355 31.9992 28.2245 31.9992 22.417 31.9992ZM22.3924 28.8801C28.2984 28.8801 34.2008 28.8801 40.1068 28.8801C40.1736 28.8801 40.2369 28.8836 40.3038 28.8801C40.7716 28.8591 41.1691 28.6981 41.4399 28.299C41.8761 27.6548 41.6475 26.8882 40.8947 26.4506C34.8094 22.9114 28.724 19.3757 22.6422 15.8329C22.512 15.7559 22.4206 15.7594 22.2939 15.8329C16.7854 19.0396 11.277 22.2392 5.76497 25.4424C5.12477 25.8135 4.48106 26.1775 3.85142 26.5556C3.00369 27.0667 3.00369 28.1379 3.83383 28.6806C4.09765 28.8521 4.38609 28.8836 4.6886 28.8836C10.584 28.8801 16.49 28.8801 22.3924 28.8801Z" fill="#82848D"/>
</g>
<defs>
<clipPath id="clip0">
<rect width="45" height="32" fill="white"/>
</clipPath>
</defs>
</svg>
